<svg xmlns="http://www.w3.org/2000/svg">
<defs>
<font id="BadassMoon" horiz-adv-x="208" >
  <font-face 
    font-family="Badass Moon"
    font-weight="400"
    font-stretch="normal"
    units-per-em="1000"
    panose-1="0 0 0 0 0 0 0 0 0 0"
    ascent="750"
    descent="-250"
    x-height="203"
    cap-height="381"
    bbox="-166 -246 2727.15 553"
    underline-thickness="50"
    underline-position="-75"
    unicode-range="U+000D-U+E005"
  />
<missing-glyph horiz-adv-x="361" 
d="M-25 0l9.5 27l9.5 27q5 11 10 23.5t10 26.5q11 29 24 53q-21 -37 -37.5 -76t-25.5 -81zM41 164q2 2 3 3.5t2 3.5q-2 -2 -2.5 -3.5t-2.5 -3.5zM-19 -45h22q5 1 10.5 1h10.5q-2 8 -3 13q-1 6 1 14q5 18 23 48q19 31 42 60l46 57l25 28.5l23 26.5q-13 77 -18 114
q-5 -5 -9.5 -11t-9.5 -12q-5 -7 -8.5 -13t-7.5 -11q-4 -6 -7.5 -10.5t-5.5 -8.5q-5 -8 -5 -10q-1 -3 -3 -3l-1 1q-15 -17 -36.5 -54t-41 -79.5t-33.5 -84t-14 -66.5zM167 166q-8 -8 -15.5 -17l-15.5 -19q-17 -20 -32 -40.5t-29 -42.5zM133 -37q5 -1 11.5 -1h13.5h27
q8 -1 15 -1h15l12 27q-6 23 -15 69l-10.5 50.5t-12.5 59.5v2q-7 -7 -16 -18l-21 -26l-27 -34.5t-36 -47.5l-33.5 -48.5t-20.5 -36.5q32 0 63 3q5 6 10 6q2 0 4 -2t7 -2h14zM191 213q-7 35 -12 63q-6 29 -9 39l8 -52.5t9 -52.5q1 1 2 1.5t2 1.5zM193 176q5 -31 12 -61
q4 -16 7.5 -33.5l7.5 -36.5l-24 134zM240 14l15.5 35l18.5 41l57 134t48 138h-21.5t-25.5 -1q-28 -1 -48 -6q0 -6 -4 -6q-5 0 -11 -0.5t-14 -1.5q-8 -2 -16 -3t-16 -3t-15 -3.5t-14 -3.5q-13 -3 -17 -5q4 -28 8.5 -55t10.5 -55q5 6 10.5 11.5l10.5 10.5t8.5 9.5t7.5 8.5
l7.5 7.5t6.5 7.5q0 2 5.5 7.5l12.5 12.5l13.5 13t7.5 7q8 7 14.5 13.5t13.5 11.5q14 11 15 10q5 0 7.5 -2t4.5 -6q1 -2 1 -7q-2 -4 -3 -7q-4 -6 -11 -10l-30 -24q-15 -14 -29 -29l-27 -30l-18 -22l-22 -26q1 -4 2 -8.5t2 -10.5l16 -76.5t18 -76.5zM232 -34q0 2 1 3
q-1 1 -1 2t-2 5l-6 -14h3q5 0 5 4zM244 -5l25 60q8 18 15 36t15 35l13.5 32.5t11.5 29.5t8.5 22t4.5 11l-95 -218q2 -6 2 -8zM248 -23l2 -2v-2q1 -1 -1 -5l-7 -6v-1l1 -2v-4l-14 -5q-8 -2 -16.5 -3.5t-18.5 -3.5q-19 -4 -39 -7t-40 -3q-7 0 -15 9l-13.5 -2t-14.5 -3

<glyph glyph-name="o_o" unicode="oo" horiz-adv-x="383" 
d="M340 221q1 0 2.5 0.5t3.5 0.5q4 0 10 -1.5t11 -6t9 -12.5t4 -22q0 -31 -20 -68t-48.5 -69t-58 -53t-49.5 -21q-19 0 -24 12.5t-5 21.5q0 10 4 19q-6 4 -9 7q-15 -6 -42 -10.5t-50 -4.5q-20 -19 -39 -30t-33 -11t-24 10t-11 25q-2 12 5 30t15 32q-3 6 -3 14q-2 23 10 47
t32 44.5t44.5 33.5t47.5 13q19 0 31.5 -12.5t14.5 -25.5q2 -18 -4 -38.5t-17 -41.5t-25.5 -41t-30.5 -37q14 0 36.5 4.5t35.5 11.5q-1 4 -1 11q0 22 19.5 51.5t47.5 56t57.5 45t50.5 18.5q2 0 2.5 -0.5t-0.5 -0.5q-16 -4 -36 -15t-33 -22q-20 -14 -39.5 -34t-33.5 -40
q37 37 76 70l21 15q6 3 11.5 6.5l10.5 6.5l12 6t12 5zM140 206q-22 -3 -44 -16q-18 -11 -39.5 -32.5t-40.5 -60.5q18 26 32.5 43.5t28 29.5t29 20t34.5 16zM-5 -5q10 0 20.5 5t24.5 18q-8 2 -17.5 10t-13.5 13l-8 -16t-6.5 -15t-3 -11t3.5 -4zM54 30q18 17 35.5 39t31.5 44
t22 41.5t7 32.5q0 9 -5 9q-14 0 -33.5 -11t-38.5 -28.5t-33.5 -37.5t-19.5 -38q6 -4 6 -8l-7 -14q3 -13 13.5 -19.5t21.5 -9.5zM82 25q16 16 29 34q12 15 23.5 33.5t16.5 37.5q-7 -15 -18 -33q-8 -14 -21.5 -33t-32.5 -39h3zM183 33q0 1 0.5 1.5t0.5 1.5q-1 0 -1.5 -0.5
t-1.5 -0.5zM202 -1q13 0 31 12t36.5 30.5t36.5 42t31 46t19.5 42t3.5 31.5q-20 0 -47.5 -17t-54 -40.5t-48 -49t-28.5 -42.5q8 5 15 10.5l12 9.5q5 7 9 8h1q8 0 13.5 -5t3.5 -10q-1 -2 -8 -13l-14 -23t-11 -22t-1 -10zM367 146q0 2 1 3q2 7 4 19q-1 -1 -1 -4l-5 -15
q-2 -5 -3.5 -9.5t-3.5 -9.5t-4.5 -9.5t-4.5 -9.5l-5 -9q-4 -6 -5 -9q3 5 6 9t5 9q6 9 9 18q2 2 2.5 5t1.5 5q2 2 2 5z" />
    <glyph glyph-name="s_s" unicode="ss" horiz-adv-x="235" 
d="M313 343q8 1 13.5 -4t9 -12t3.5 -13.5t-3 -8.5q-33 -22 -60 -49.5t-45.5 -55t-27 -52.5t-5.5 -43q7 -35 19.5 -62t12.5 -51q0 -11 -6.5 -20t-16 -15.5t-21.5 -10.5t-23 -4q-18 0 -35.5 7.5t-17.5 24.5q0 14 6 20t11 6q2 0 2 -2q0 -5 -2.5 -6t-2.5 -6q0 -6 7.5 -8.5
t18.5 -2.5q18 0 37 7.5t19 23.5q0 7 -5 19t-11 28t-11 36t-5 42q0 19 6 38q-21 -22 -44 -43t-46 -40q6 -8 10 -17t4 -21q0 -9 -5 -22.5t-14.5 -26t-24.5 -21.5t-36 -9h-4q-23 0 -33.5 12t-12.5 26q0 2 1.5 4.5t3.5 3.5q18 9 41 27.5t48 41.5q-5 5 -11.5 9.5l-13.5 9.5
l-15 -15.5l-12 -12.5l-11 -11l-5 18l16 15.5l16 15.5q-10 9 -16 20t-6 25q0 20 15 40.5t35 37t39.5 27.5t28.5 11q8 0 17.5 -8.5t9.5 -14.5q0 -10 -9.5 -25.5t-23.5 -34.5t-31.5 -38.5t-34.5 -36.5q6 -5 12.5 -9.5t12.5 -10.5l37.5 37l35 36.5l29.5 32.5l22 25
q13 23 28.5 43.5t30.5 36.5t28 25.5t21 10.5zM37 109l-2 1l-24 -25zM35 142q0 -8 9 -16q24 25 43 47.5t31.5 39.5t17.5 27t1 10t-20.5 -11.5t-34.5 -28.5t-32.5 -35.5t-14.5 -32.5zM50 121q28 26 46 48.5t29 39.5q12 20 19 36q-13 -23 -29.5 -45.5t-31.5 -39.5
q-17 -20 -35 -37zM14 4q13 0 25.5 5t23 12.5t17 17.5t6.5 19q0 10 -9 17l-31 -25.5l-25 -20.5l-24 -18q-2 -1 -2 -2t-1 -2v-1t2 -1t6 -0.5t12 -0.5z" />
    <glyph glyph-name=".notdef" horiz-adv-x="361" 
d="M-25 0l9.5 27l9.5 27q5 11 10 23.5t10 26.5q11 29 24 53q-21 -37 -37.5 -76t-25.5 -81zM41 164q2 2 3 3.5t2 3.5q-2 -2 -2.5 -3.5t-2.5 -3.5zM-19 -45h22q5 1 10.5 1h10.5q-2 8 -3 13q-1 6 1 14q5 18 23 48q19 31 42 60l46 57l25 28.5l23 26.5q-13 77 -18 114
q-5 -5 -9.5 -11t-9.5 -12q-5 -7 -8.5 -13t-7.5 -11q-4 -6 -7.5 -10.5t-5.5 -8.5q-5 -8 -5 -10q-1 -3 -3 -3l-1 1q-15 -17 -36.5 -54t-41 -79.5t-33.5 -84t-14 -66.5zM167 166q-8 -8 -15.5 -17l-15.5 -19q-17 -20 -32 -40.5t-29 -42.5zM133 -37q5 -1 11.5 -1h13.5h27
q8 -1 15 -1h15l12 27q-6 23 -15 69l-10.5 50.5t-12.5 59.5v2q-7 -7 -16 -18l-21 -26l-27 -34.5t-36 -47.5l-33.5 -48.5t-20.5 -36.5q32 0 63 3q5 6 10 6q2 0 4 -2t7 -2h14zM191 213q-7 35 -12 63q-6 29 -9 39l8 -52.5t9 -52.5q1 1 2 1.5t2 1.5zM193 176q5 -31 12 -61
q4 -16 7.5 -33.5l7.5 -36.5l-24 134zM240 14l15.5 35l18.5 41l57 134t48 138h-21.5t-25.5 -1q-28 -1 -48 -6q0 -6 -4 -6q-5 0 -11 -0.5t-14 -1.5q-8 -2 -16 -3t-16 -3t-15 -3.5t-14 -3.5q-13 -3 -17 -5q4 -28 8.5 -55t10.5 -55q5 6 10.5 11.5l10.5 10.5t8.5 9.5t7.5 8.5
l7.5 7.5t6.5 7.5q0 2 5.5 7.5l12.5 12.5l13.5 13t7.5 7q8 7 14.5 13.5t13.5 11.5q14 11 15 10q5 0 7.5 -2t4.5 -6q1 -2 1 -7q-2 -4 -3 -7q-4 -6 -11 -10l-30 -24q-15 -14 -29 -29l-27 -30l-18 -22l-22 -26q1 -4 2 -8.5t2 -10.5l16 -76.5t18 -76.5zM232 -34q0 2 1 3
q-1 1 -1 2t-2 5l-6 -14h3q5 0 5 4zM244 -5l25 60q8 18 15 36t15 35l13.5 32.5t11.5 29.5t8.5 22t4.5 11l-95 -218q2 -6 2 -8zM248 -23l2 -2v-2q1 -1 -1 -5l-7 -6v-1l1 -2v-4l-14 -5q-8 -2 -16.5 -3.5t-18.5 -3.5q-19 -4 -39 -7t-40 -3q-7 0 -15 9l-13.5 -2t-14.5 -3
q-8 -1 -15 -2l-14 -2t-13.5 -1.5t-11.5 -1.5t-9.5 -1h-6.5q-20 0 -30 5q-8 5 -8 29q0 43 20 95t49.5 104.5t63.5 100t62 81.5q0 4 3 5q0 5 3 5q3 1 5 -1q20 11 49 17t52 6q13 4 26 5q7 1 14 1t15 1t15 1t14 1h23q11 0 18 -6q6 -6 6 -16q0 -12 -9 -41q-24 -73 -56 -145
l-18 -41t-17 -40t-16 -37l-15 -33z" />
    <glyph glyph-name="uni0000" horiz-adv-x="0" 
 />
    <glyph glyph-name="uni0000" horiz-adv-x="0" 
 />
    <glyph glyph-name="uni000D" unicode="&#xd;" horiz-adv-x="250" 
 />
    <glyph glyph-name="space" unicode=" " horiz-adv-x="166" 
 />
    <glyph glyph-name="A" unicode="A" horiz-adv-x="386" 
d="M-56 91q4 0 -2 -6q-3 -3 -6 -5q41 10 80.5 17.5t81.5 13.5q5 5 9.5 9t9.5 8q45 43 94.5 81t92 66.5t72 45t34.5 16.5h11q32 45 57 73t32 28q14 0 19 -11t-1 -15q-3 -1 -18.5 -19.5l-34.5 -42l-35 -44.5t-20 -27q-9 -14 -11 -23.5t-7 -14.5q-1 -1 -8 -11l-17.5 -26
t-23 -37t-24.5 -44q13 -2 19.5 -6t8.5 -8.5t1.5 -7.5t-2.5 -3q-3 0 -9.5 5t-24.5 5l-21 -41t-19.5 -45.5t-14 -46.5t-5.5 -45q0 -8 3.5 -8.5t3.5 -6.5q0 -7 -8 -7q-10 0 -23.5 12t-13.5 35q0 37 15.5 78.5t33.5 73.5q-29 -2 -61 -5t-65 -8q-2 -2 -4 -4.5t-5 -4.5
q-32 -32 -56.5 -66t-41 -63.5t-24 -53t-6.5 -34.5t6.5 -14t12.5 -3q3 0 6.5 0.5t6.5 0.5q8 0 8 -5q0 -3 -7.5 -7t-18.5 -4q-17 0 -33.5 13t-20.5 52q-2 32 26.5 80.5t76.5 102.5q-54 -10 -100 -20t-72 -19q-3 3 -8 3q-2 0 -5.5 -0.5t-8.5 -1.5q-2 0 -3 -0.5t-2 -0.5
q-9 0 -9 12q-1 6 10.5 12t26 11t27.5 8t15 3zM171 118q53 5 111 6q24 42 53 86.5l58 86.5q-48 -28 -106.5 -76t-115.5 -103zM-38 70q34 7 70 13t71 11q-35 -36 -64.5 -75.5t-47.5 -81.5q9 20 23.5 41.5t30.5 42.5t32.5 40l31.5 35q5 1 9.5 1.5t8.5 0.5q-20 -21 -41.5 -47
t-39.5 -53t-32 -53.5t-19 -48.5q6 21 22 47.5t36 54.5t41.5 54.5l38.5 46.5l66.5 8.5t42.5 4.5q-26 0 -52.5 -3l-52.5 -6l14 16t11 12q2 2 4.5 5t4.5 5l-19 -17.5l-21 -20.5q-5 -2 -9 -2t-9 -1q26 28 58 59t74 64l-69.5 -58t-67.5 -66q-38 -5 -77 -11.5t-69 -17.5z" />
    <glyph glyph-name="AE" unicode="&#xc6;" horiz-adv-x="501" 
d="M582 263q3 -6 5 -11t1 -8.5t-6 -3.5t-6 3.5t-4.5 7.5t-14 7.5t-33.5 3.5q-41 0 -83 -5.5t-68 -14.5q-22 -34 -42 -69q2 0 4.5 0.5t4.5 0.5q18 0 27.5 -6t12.5 -12.5t1.5 -12.5t-5.5 -6q-6 0 -7 2t-2 5t-4 5t-14 2h-31l-21.5 -43.5l-22 -47l-20 -46l-16.5 -40.5
q39 10 90.5 17.5t96.5 7.5q38 0 58.5 -7.5t29.5 -16.5t9 -16.5t-5 -7.5q-4 0 -4.5 2t-5.5 4.5t-20 4.5t-49 2q-28 0 -58.5 -3.5t-59.5 -9t-55 -11.5l-44 -10q-3 -7 -6.5 -20.5t-6.5 -28t-5 -28t-2 -20.5q0 -8 3 -10.5t6.5 -3t6.5 -1.5t3 -5q0 -10 -13 -10q-11 0 -23.5 12.5
t-12.5 44.5q0 24 5 46q1 11 4 21q0 3 -0.5 6.5t-0.5 6.5v7q0 4 12 11l18 45t22 50.5l24 50t24 45.5q-26 -2 -53 -6l11 14.5t10 11.5q23 3 46 3l28 46.5l28 44.5q0 3 5 8l12 18t12 17l-64 -65l-66 -69q16 21 23 32q5 7 8 13q-27 -34 -61 -68.5t-65 -62.5t-53.5 -46.5
t-27.5 -21.5q15 7 29.5 15.5t27.5 17.5q-55 -51 -105.5 -84t-92.5 -33q-29 0 -36 19t-2.5 42t15 42t18.5 19q5 0 10 -3t8.5 -7.5t4.5 -9t-2 -7.5t-7.5 -14t-8 -23t-4.5 -21.5t3 -9.5q17 0 43.5 14t58.5 37.5t69 55t75 67.5q-22 -5 -43 -11.5t-41 -14.5q-4 -2 -6 -2
q-7 0 -12 7t0 15q6 9 41.5 19.5t93.5 17.5l100 99l86 88l83 89q5 3 9 3q11 0 20 -10.5t3 -18.5q-29 -29 -55 -61t-50 -65q19 3 43 5.5t51 2.5q32 0 48.5 -5.5t24.5 -11.5q9 -8 10 -18zM330 216q37 56 61 87q13 18 25 32q-24 -27 -45.5 -57t-40.5 -62l-46 -77t-44.5 -87.5
t-36.5 -94.5t-24 -97q15 55 37 115q19 51 47.5 114.5t66.5 126.5z" />
    <glyph glyph-name="Aacute" unicode="&#xc1;" horiz-adv-x="386" 
d="M-56 91q4 0 -2 -6q-3 -3 -6 -5q41 10 80.5 17.5t81.5 13.5q5 5 9.5 9t9.5 8q45 43 94.5 81t92 66.5t72 45t34.5 16.5h11q32 45 57 73t32 28q14 0 19 -11t-1 -15q-3 -1 -18.5 -19.5l-34.5 -42l-35 -44.5t-20 -27q-9 -14 -11 -23.5t-7 -14.5q-1 -1 -8 -11l-17.5 -26
t-23 -37t-24.5 -44q13 -2 19.5 -6t8.5 -8.5t1.5 -7.5t-2.5 -3q-3 0 -9.5 5t-24.5 5l-21 -41t-19.5 -45.5t-14 -46.5t-5.5 -45q0 -8 3.5 -8.5t3.5 -6.5q0 -7 -8 -7q-10 0 -23.5 12t-13.5 35q0 37 15.5 78.5t33.5 73.5q-29 -2 -61 -5t-65 -8q-2 -2 -4 -4.5t-5 -4.5
q-32 -32 -56.5 -66t-41 -63.5t-24 -53t-6.5 -34.5t6.5 -14t12.5 -3q3 0 6.5 0.5t6.5 0.5q8 0 8 -5q0 -3 -7.5 -7t-18.5 -4q-17 0 -33.5 13t-20.5 52q-2 32 26.5 80.5t76.5 102.5q-54 -10 -100 -20t-72 -19q-3 3 -8 3q-2 0 -5.5 -0.5t-8.5 -1.5q-2 0 -3 -0.5t-2 -0.5
q-9 0 -9 12q-1 6 10.5 12t26 11t27.5 8t15 3zM171 118q53 5 111 6q24 42 53 86.5l58 86.5q-48 -28 -106.5 -76t-115.5 -103zM-38 70q34 7 70 13t71 11q-35 -36 -64.5 -75.5t-47.5 -81.5q9 20 23.5 41.5t30.5 42.5t32.5 40l31.5 35q5 1 9.5 1.5t8.5 0.5q-20 -21 -41.5 -47
t-39.5 -53t-32 -53.5t-19 -48.5q6 21 22 47.5t36 54.5t41.5 54.5l38.5 46.5l66.5 8.5t42.5 4.5q-26 0 -52.5 -3l-52.5 -6l14 16t11 12q2 2 4.5 5t4.5 5l-19 -17.5l-21 -20.5q-5 -2 -9 -2t-9 -1q26 28 58 59t74 64l-69.5 -58t-67.5 -66q-38 -5 -77 -11.5t-69 -17.5zM583 539
q2 2 4 2q6 0 12 -9.5t4 -16.5q-2 -6 -10 -13t-18.5 -13.5t-22.5 -11t-23 -4.5q-15 0 -16 8t4 8q6 0 15 5.5t18.5 13t18 16.5z" />
    <glyph glyph-name="Acircumflex" unicode="&#xc2;" horiz-adv-x="386" 
d="M-56 91q4 0 -2 -6q-3 -3 -6 -5q41 10 80.5 17.5t81.5 13.5q5 5 9.5 9t9.5 8q45 43 94.5 81t92 66.5t72 45t34.5 16.5h11q32 45 57 73t32 28q14 0 19 -11t-1 -15q-3 -1 -18.5 -19.5l-34.5 -42l-35 -44.5t-20 -27q-9 -14 -11 -23.5t-7 -14.5q-1 -1 -8 -11l-17.5 -26
t-23 -37t-24.5 -44q13 -2 19.5 -6t8.5 -8.5t1.5 -7.5t-2.5 -3q-3 0 -9.5 5t-24.5 5l-21 -41t-19.5 -45.5t-14 -46.5t-5.5 -45q0 -8 3.5 -8.5t3.5 -6.5q0 -7 -8 -7q-10 0 -23.5 12t-13.5 35q0 37 15.5 78.5t33.5 73.5q-29 -2 -61 -5t-65 -8q-2 -2 -4 -4.5t-5 -4.5
q-32 -32 -56.5 -66t-41 -63.5t-24 -53t-6.5 -34.5t6.5 -14t12.5 -3q3 0 6.5 0.5t6.5 0.5q8 0 8 -5q0 -3 -7.5 -7t-18.5 -4q-17 0 -33.5 13t-20.5 52q-2 32 26.5 80.5t76.5 102.5q-54 -10 -100 -20t-72 -19q-3 3 -8 3q-2 0 -5.5 -0.5t-8.5 -1.5q-2 0 -3 -0.5t-2 -0.5
q-9 0 -9 12q-1 6 10.5 12t26 11t27.5 8t15 3zM171 118q53 5 111 6q24 42 53 86.5l58 86.5q-48 -28 -106.5 -76t-115.5 -103zM-38 70q34 7 70 13t71 11q-35 -36 -64.5 -75.5t-47.5 -81.5q9 20 23.5 41.5t30.5 42.5t32.5 40l31.5 35q5 1 9.5 1.5t8.5 0.5q-20 -21 -41.5 -47
t-39.5 -53t-32 -53.5t-19 -48.5q6 21 22 47.5t36 54.5t41.5 54.5l38.5 46.5l66.5 8.5t42.5 4.5q-26 0 -52.5 -3l-52.5 -6l14 16t11 12q2 2 4.5 5t4.5 5l-19 -17.5l-21 -20.5q-5 -2 -9 -2t-9 -1q26 28 58 59t74 64l-69.5 -58t-67.5 -66q-38 -5 -77 -11.5t-69 -17.5zM592 464
q5 -1 6 -3.5t1 -4.5q-1 -2 -3 -4t-9 -2q-14 0 -30.5 10t-24.5 30l-23 -16l-20.5 -12t-18.5 -8q-2 -1 -6 -1q-5 0 -7 3q-5 5 2 10q5 3 14.5 9.5t20 14.5l20 15.5t13.5 11.5l1 4q4 4 12 4q7 0 8 -3l2 -2t3 -6q3 -4 7.5 -12t10 -16t11 -14t10.5 -8z" />
    <glyph glyph-name="Adieresis" unicode="&#xc4;" horiz-adv-x="386" 
d="M-56 91q4 0 -2 -6q-3 -3 -6 -5q41 10 80.5 17.5t81.5 13.5q5 5 9.5 9t9.5 8q45 43 94.5 81t92 66.5t72 45t34.5 16.5h11q32 45 57 73t32 28q14 0 19 -11t-1 -15q-3 -1 -18.5 -19.5l-34.5 -42l-35 -44.5t-20 -27q-9 -14 -11 -23.5t-7 -14.5q-1 -1 -8 -11l-17.5 -26
t-23 -37t-24.5 -44q13 -2 19.5 -6t8.5 -8.5t1.5 -7.5t-2.5 -3q-3 0 -9.5 5t-24.5 5l-21 -41t-19.5 -45.5t-14 -46.5t-5.5 -45q0 -8 3.5 -8.5t3.5 -6.5q0 -7 -8 -7q-10 0 -23.5 12t-13.5 35q0 37 15.5 78.5t33.5 73.5q-29 -2 -61 -5t-65 -8q-2 -2 -4 -4.5t-5 -4.5
q-32 -32 -56.5 -66t-41 -63.5t-24 -53t-6.5 -34.5t6.5 -14t12.5 -3q3 0 6.5 0.5t6.5 0.5q8 0 8 -5q0 -3 -7.5 -7t-18.5 -4q-17 0 -33.5 13t-20.5 52q-2 32 26.5 80.5t76.5 102.5q-54 -10 -100 -20t-72 -19q-3 3 -8 3q-2 0 -5.5 -0.5t-8.5 -1.5q-2 0 -3 -0.5t-2 -0.5
q-9 0 -9 12q-1 6 10.5 12t26 11t27.5 8t15 3zM171 118q53 5 111 6q24 42 53 86.5l58 86.5q-48 -28 -106.5 -76t-115.5 -103zM-38 70q34 7 70 13t71 11q-35 -36 -64.5 -75.5t-47.5 -81.5q9 20 23.5 41.5t30.5 42.5t32.5 40l31.5 35q5 1 9.5 1.5t8.5 0.5q-20 -21 -41.5 -47
t-39.5 -53t-32 -53.5t-19 -48.5q6 21 22 47.5t36 54.5t41.5 54.5l38.5 46.5l66.5 8.5t42.5 4.5q-26 0 -52.5 -3l-52.5 -6l14 16t11 12q2 2 4.5 5t4.5 5l-19 -17.5l-21 -20.5q-5 -2 -9 -2t-9 -1q26 28 58 59t74 64l-69.5 -58t-67.5 -66q-38 -5 -77 -11.5t-69 -17.5zM477 512
q6 2 9 2q11 0 18.5 -9t1.5 -17q-5 -8 -16 -8q-10 0 -14 7q-3 5 -5 13t6 12zM573 508q4 -8 2 -15.5t-10 -12.5q-6 -2 -8 -2q-10 0 -17 9t-3 18q2 5 8 8t12 3q11 0 16 -8z" />
    <glyph glyph-name="Agrave" unicode="&#xc0;" horiz-adv-x="386" 
d="M-56 91q4 0 -2 -6q-3 -3 -6 -5q41 10 80.5 17.5t81.5 13.5q5 5 9.5 9t9.5 8q45 43 94.5 81t92 66.5t72 45t34.5 16.5h11q32 45 57 73t32 28q14 0 19 -11t-1 -15q-3 -1 -18.5 -19.5l-34.5 -42l-35 -44.5t-20 -27q-9 -14 -11 -23.5t-7 -14.5q-1 -1 -8 -11l-17.5 -26
t-23 -37t-24.5 -44q13 -2 19.5 -6t8.5 -8.5t1.5 -7.5t-2.5 -3q-3 0 -9.5 5t-24.5 5l-21 -41t-19.5 -45.5t-14 -46.5t-5.5 -45q0 -8 3.5 -8.5t3.5 -6.5q0 -7 -8 -7q-10 0 -23.5 12t-13.5 35q0 37 15.5 78.5t33.5 73.5q-29 -2 -61 -5t-65 -8q-2 -2 -4 -4.5t-5 -4.5
q-32 -32 -56.5 -66t-41 -63.5t-24 -53t-6.5 -34.5t6.5 -14t12.5 -3q3 0 6.5 0.5t6.5 0.5q8 0 8 -5q0 -3 -7.5 -7t-18.5 -4q-17 0 -33.5 13t-20.5 52q-2 32 26.5 80.5t76.5 102.5q-54 -10 -100 -20t-72 -19q-3 3 -8 3q-2 0 -5.5 -0.5t-8.5 -1.5q-2 0 -3 -0.5t-2 -0.5
q-9 0 -9 12q-1 6 10.5 12t26 11t27.5 8t15 3zM171 118q53 5 111 6q24 42 53 86.5l58 86.5q-48 -28 -106.5 -76t-115.5 -103zM-38 70q34 7 70 13t71 11q-35 -36 -64.5 -75.5t-47.5 -81.5q9 20 23.5 41.5t30.5 42.5t32.5 40l31.5 35q5 1 9.5 1.5t8.5 0.5q-20 -21 -41.5 -47
t-39.5 -53t-32 -53.5t-19 -48.5q6 21 22 47.5t36 54.5t41.5 54.5l38.5 46.5l66.5 8.5t42.5 4.5q-26 0 -52.5 -3l-52.5 -6l14 16t11 12q2 2 4.5 5t4.5 5l-19 -17.5l-21 -20.5q-5 -2 -9 -2t-9 -1q26 28 58 59t74 64l-69.5 -58t-67.5 -66q-38 -5 -77 -11.5t-69 -17.5zM480 532
q6 -7 14.5 -16t18 -17t18.5 -13.5t16 -5.5q5 0 4.5 -8t-15.5 -8q-12 0 -24.5 4.5t-23.5 11.5t-19 14t-10 13q-3 8 4 17.5t13 9.5q2 0 4 -2z" />
    <glyph glyph-name="B" unicode="B" horiz-adv-x="453" 
d="M21 -5q0 10 6 15t11 5q4 0 4 -3q0 -6 -4 -7.5t-4 -10.5q0 -6 7.5 -14.5t21 -16t33 -12.5t42.5 -5q45 0 91.5 21.5t85 51.5t63 63t24.5 55q0 17 -6 27t-16 15t-21.5 7t-22.5 2q-31 0 -56 -6t-43 -13.5t-28.5 -13.5t-12.5 -6q-3 0 -8 5q-26 -42 -42 -80t-16 -66q0 -3 1 -6
t1 -5q0 -6 -7 -6q-9 0 -20.5 10.5t-11.5 33.5q0 28 14 60t35 64t46.5 61.5t47.5 52t38.5 36t20.5 13.5q8 0 12.5 -4.5t0.5 -8.5q-23 -23 -47 -52.5t-47 -61.5q34 15 73 34t72.5 41.5t55.5 48.5t22 55q0 20 -22 20q-34 0 -72.5 -11t-75.5 -29t-70.5 -40.5t-59 -45.5
t-40.5 -44.5t-15 -37.5q0 -13 5.5 -15t5.5 -9t-17 -7q-12 0 -25.5 9.5t-13.5 35.5q0 20 15.5 43.5t42.5 47t62 45.5t74 38.5t80 26.5t78 10q35 0 52.5 -13.5t17.5 -36.5q0 -24 -16 -47t-41.5 -44t-57 -39.5t-61.5 -33.5q26 3 58 3q27 0 44.5 -6.5t27.5 -16.5t13.5 -21.5
t3.5 -20.5q0 -20 -13 -44.5t-35.5 -50.5t-52 -50.5t-63 -44t-68.5 -31t-69 -11.5q-29 0 -49.5 9.5t-33.5 24t-19 30.5t-6 28zM93 -59q25 -13 52 -13q42 0 85.5 22t75.5 49q2 1 4 3q-2 -2 -4 -3q-35 -28 -79.5 -45t-91.5 -17q-25 0 -42 4zM65 251q14 17 36.5 34t48 33
t51.5 30.5t47 24.5l-35 -15t-49.5 -25.5t-53 -36t-45.5 -45.5zM111 76l13.5 26.5l12.5 23.5l21.5 39.5t16.5 27.5q-20 -26 -32.5 -48l-20.5 -37q-8 -20 -11 -32zM227 251l10.5 12t10.5 13q-5 -5 -15 -16.5t-21 -22.5q-10 -12 -24 -27q10 8 20.5 19t18.5 22z" />
    <glyph glyph-name="C" unicode="C" horiz-adv-x="349" 
d="M186 274q-99 -87 -175 -193l63 73.5l65 71.5q14 16 26 28t21 20zM100 -98q32 0 56 21q-5 -2 -10 -4.5t-10 -4.5q-10 -5 -18 -6q-10 -5 -18 -6zM212 -46q11 5 20.5 11.5l19.5 13.5l17 14.5l15 12.5q5 5 9.5 9t9.5 9q-4 -3 -7 -6t-8 -6zM35 -95q26 0 50.5 8t48.5 19
q59 31 111.5 68.5t103.5 81.5l5 -18q-28 -32 -62.5 -66t-74.5 -62t-83.5 -45.5t-88.5 -17.5q-39 0 -62 23t-27 60q-3 38 19 83q21 43 56 88.5t77 87.5t88 79t88 62q35 21 51 21q7 0 12 -5t8.5 -12t5 -14.5t2.5 -13.5q1 -10 -12 -28q-32 -43 -79 -83.5t-95 -66.5
q-22 -11 -32 -11q-6 0 -1 5q3 4 10 7q8 3 25 15q14 12 38.5 35t49 50t43 54t20.5 46q-41 -21 -90 -60t-95.5 -87t-85 -99t-58.5 -96q-17 -40 -14 -70q2 -18 12 -28q11 -10 36 -10z" />
    <glyph glyph-name="Ccedilla" unicode="&#xc7;" horiz-adv-x="349" 
d="M335 377q12 0 19.5 -16.5t8.5 -28.5q1 -10 -12 -28t-33.5 -39t-46 -43t-50 -39.5t-45 -28.5t-31.5 -11q-5 0 -1.5 4.5t10.5 7.5q9 3 24.5 15t34.5 29.5t39 38.5t36.5 42.5t28 41t13.5 33.5q-27 -13 -64 -40t-76 -62.5t-77 -77t-67 -83t-45.5 -80.5t-13.5 -69
q2 -17 12.5 -27.5t35.5 -10.5q36 0 79.5 18.5t86 45.5t81.5 58l67 55l5 -18q-27 -32 -60 -64t-70.5 -59t-78.5 -45.5t-84 -22.5q-1 -2 -2 -3t-2 -3q-3 -5 -5 -9t-4 -7l-3 -6q2 1 3.5 1t3.5 1q10 2 14 2q9 0 16 -4t7 -16t-7 -25t-17.5 -23.5t-23.5 -17.5t-25 -7t-18.5 6
t-6.5 14q0 5 2.5 10t7.5 5q4 0 2 -2q-2 -4 -1 -6t4.5 -4t12.5 -2q8 0 18.5 4.5t20.5 12t16.5 17t6.5 18.5q0 11 -11 11q-4 0 -11.5 -2t-15 -5.5t-13.5 -8t-8 -8.5q-1 -1 -2 -1q-8 0 -8 13q0 9 10 21.5l19 23.5q-42 1 -62.5 26.5t-22.5 56.5q-3 37 19.5 83t59 93t82.5 91
t89 78t78 55t51 21zM211 -46q26 14 49.5 33t44.5 40q-10 -9 -24 -20l-28 -22q-10 -8 -20.5 -15.5z" />
    <glyph glyph-name="D" unicode="D" horiz-adv-x="450" 
d="M508 305q5 -37 -15 -81t-56 -89.5t-83 -88t-97 -75t-97 -52.5t-83 -20q-13 0 -25 11t-14 29q-2 0 -4 2t-3 4.5t-1 8.5q0 4 12.5 26l31 54l40 69.5l40 72.5t31 63t12.5 41q0 8 -4.5 9.5t-6.5 7.5q0 3 9 3q10 0 24 -6t17 -22q2 -13 -8.5 -41t-28 -63.5t-39.5 -74
l-42.5 -71.5t-37 -56t-23.5 -27q0 -4 2 -8q2 -3 5.5 -5.5t10.5 -2.5q21 0 61 18t87.5 48.5t96.5 70t88.5 82t62 85.5t17.5 80q-2 16 -8.5 27.5t-20 19t-35 11t-53.5 3.5q-40 0 -85 -9t-88.5 -24.5t-83 -36t-69 -43t-45.5 -46.5t-13 -46q1 -9 4.5 -13t6.5 -6t5.5 -3.5
t2.5 -5.5q0 -3 -4 -3q-6 0 -18 9t-16 30q-5 33 16 66t59 62q48 30 93.5 47.5t80.5 27.5q42 11 79 15q-22 0 -49.5 -5.5t-51.5 -12.5q-28 -8 -56 -18q48 20 100.5 32t103.5 12q75 0 117 -26t48 -66zM6 255q55 45 111 70t102 39q53 15 103 20q-33 0 -78 -10.5t-90.5 -28.5
t-85.5 -41.5t-62 -48.5zM188 -46q68 31 127 76q26 19 52 43t49.5 53t42.5 62.5t31 71.5q-29 -81 -106 -160.5t-196 -145.5z" />
    <glyph glyph-name="E" unicode="E" horiz-adv-x="274" 
d="M129 184q-7 5 -11.5 15.5t-4.5 28.5q0 30 18.5 57t44.5 47.5t54 32.5t46 12q17 0 23 -6.5t6 -17.5q11 -9 6.5 -27.5t-17.5 -37t-32 -33t-37 -14.5q-20 0 -27 8t3 8q7 0 21.5 9.5t28.5 23t25 28.5t11 26q0 10 -9 10q-16 0 -40.5 -13.5t-48 -34t-40 -45t-16.5 -47.5
q0 -17 8 -23q12 5 19 5q8 0 14 -5.5t9.5 -12t3.5 -12t-5 -5.5q-3 0 -3 2.5t-5 2.5q-11 0 -40 -20t-59.5 -50t-54 -65.5t-23.5 -66.5q0 -11 3.5 -21.5t28.5 -10.5q17 0 36.5 6.5t39.5 17t40.5 24t39.5 27.5q44 33 89 75l5 -18q-42 -44 -83 -78q-17 -15 -36 -29t-38 -25
t-37 -17.5t-33 -6.5q-37 0 -62 16.5t-25 57.5q0 35 17.5 66t43 57.5t54 46.5t49.5 32zM5 61l45 45l36.5 37t29.5 26q-32 -23 -53.5 -42.5t-34.5 -33.5q-15 -18 -23 -32zM82 -62q32 8 57.5 23.5t44.5 30.5q22 18 39 37l-41 -33q-19 -14 -44.5 -29.5t-55.5 -28.5z" />
    <glyph glyph-name="Eacute" unicode="&#xc9;" horiz-adv-x="274" 
d="M129 184q-7 5 -11.5 15.5t-4.5 28.5q0 30 18.5 57t44.5 47.5t54 32.5t46 12q17 0 23 -6.5t6 -17.5q11 -9 6.5 -27.5t-17.5 -37t-32 -33t-37 -14.5q-20 0 -27 8t3 8q7 0 21.5 9.5t28.5 23t25 28.5t11 26q0 10 -9 10q-16 0 -40.5 -13.5t-48 -34t-40 -45t-16.5 -47.5
q0 -17 8 -23q12 5 19 5q8 0 14 -5.5t9.5 -12t3.5 -12t-5 -5.5q-3 0 -3 2.5t-5 2.5q-11 0 -40 -20t-59.5 -50t-54 -65.5t-23.5 -66.5q0 -11 3.5 -21.5t28.5 -10.5q17 0 36.5 6.5t39.5 17t40.5 24t39.5 27.5q44 33 89 75l5 -18q-42 -44 -83 -78q-17 -15 -36 -29t-38 -25
t-37 -17.5t-33 -6.5q-37 0 -62 16.5t-25 57.5q0 35 17.5 66t43 57.5t54 46.5t49.5 32zM5 61l45 45l36.5 37t29.5 26q-32 -23 -53.5 -42.5t-34.5 -33.5q-15 -18 -23 -32zM82 -62q32 8 57.5 23.5t44.5 30.5q22 18 39 37l-41 -33q-19 -14 -44.5 -29.5t-55.5 -28.5zM307 497
q2 2 4 2q6 0 12 -9.5t4 -16.5q-2 -6 -10 -13t-18.5 -13.5t-22.5 -11t-23 -4.5q-15 0 -16 8t4 8q6 0 15 5.5t18.5 13t18 16.5z" />
    <glyph glyph-name="Ecircumflex" unicode="&#xca;" horiz-adv-x="274" 
d="M129 184q-7 5 -11.5 15.5t-4.5 28.5q0 30 18.5 57t44.5 47.5t54 32.5t46 12q17 0 23 -6.5t6 -17.5q11 -9 6.5 -27.5t-17.5 -37t-32 -33t-37 -14.5q-20 0 -27 8t3 8q7 0 21.5 9.5t28.5 23t25 28.5t11 26q0 10 -9 10q-16 0 -40.5 -13.5t-48 -34t-40 -45t-16.5 -47.5
q0 -17 8 -23q12 5 19 5q8 0 14 -5.5t9.5 -12t3.5 -12t-5 -5.5q-3 0 -3 2.5t-5 2.5q-11 0 -40 -20t-59.5 -50t-54 -65.5t-23.5 -66.5q0 -11 3.5 -21.5t28.5 -10.5q17 0 36.5 6.5t39.5 17t40.5 24t39.5 27.5q44 33 89 75l5 -18q-42 -44 -83 -78q-17 -15 -36 -29t-38 -25
t-37 -17.5t-33 -6.5q-37 0 -62 16.5t-25 57.5q0 35 17.5 66t43 57.5t54 46.5t49.5 32zM5 61l45 45l36.5 37t29.5 26q-32 -23 -53.5 -42.5t-34.5 -33.5q-15 -18 -23 -32zM82 -62q32 8 57.5 23.5t44.5 30.5q22 18 39 37l-41 -33q-19 -14 -44.5 -29.5t-55.5 -28.5zM353 442
q5 -1 6 -3.5t1 -4.5q-1 -2 -3 -4t-9 -2q-14 0 -30.5 10t-24.5 30l-23 -16l-20.5 -12t-18.5 -8q-2 -1 -6 -1q-5 0 -7 3q-5 5 2 10q5 3 14.5 9.5t20 14.5l20 15.5t13.5 11.5l1 4q4 4 12 4q7 0 8 -3l2 -2t3 -6q3 -4 7.5 -12t10 -16t11 -14t10.5 -8z" />
    <glyph glyph-name="Edieresis" unicode="&#xcb;" horiz-adv-x="274" 
d="M129 184q-7 5 -11.5 15.5t-4.5 28.5q0 30 18.5 57t44.5 47.5t54 32.5t46 12q17 0 23 -6.5t6 -17.5q11 -9 6.5 -27.5t-17.5 -37t-32 -33t-37 -14.5q-20 0 -27 8t3 8q7 0 21.5 9.5t28.5 23t25 28.5t11 26q0 10 -9 10q-16 0 -40.5 -13.5t-48 -34t-40 -45t-16.5 -47.5
q0 -17 8 -23q12 5 19 5q8 0 14 -5.5t9.5 -12t3.5 -12t-5 -5.5q-3 0 -3 2.5t-5 2.5q-11 0 -40 -20t-59.5 -50t-54 -65.5t-23.5 -66.5q0 -11 3.5 -21.5t28.5 -10.5q17 0 36.5 6.5t39.5 17t40.5 24t39.5 27.5q44 33 89 75l5 -18q-42 -44 -83 -78q-17 -15 -36 -29t-38 -25
t-37 -17.5t-33 -6.5q-37 0 -62 16.5t-25 57.5q0 35 17.5 66t43 57.5t54 46.5t49.5 32zM5 61l45 45l36.5 37t29.5 26q-32 -23 -53.5 -42.5t-34.5 -33.5q-15 -18 -23 -32zM82 -62q32 8 57.5 23.5t44.5 30.5q22 18 39 37l-41 -33q-19 -14 -44.5 -29.5t-55.5 -28.5zM226 467
q6 2 9 2q11 0 18.5 -9t1.5 -17q-5 -8 -16 -8q-10 0 -14 7q-3 5 -5 13t6 12zM322 463q4 -8 2 -15.5t-10 -12.5q-6 -2 -8 -2q-10 0 -17 9t-3 18q2 5 8 8t12 3q11 0 16 -8z" />
    <glyph glyph-name="Egrave" unicode="&#xc8;" horiz-adv-x="274" 
d="M129 184q-7 5 -11.5 15.5t-4.5 28.5q0 30 18.5 57t44.5 47.5t54 32.5t46 12q17 0 23 -6.5t6 -17.5q11 -9 6.5 -27.5t-17.5 -37t-32 -33t-37 -14.5q-20 0 -27 8t3 8q7 0 21.5 9.5t28.5 23t25 28.5t11 26q0 10 -9 10q-16 0 -40.5 -13.5t-48 -34t-40 -45t-16.5 -47.5
q0 -17 8 -23q12 5 19 5q8 0 14 -5.5t9.5 -12t3.5 -12t-5 -5.5q-3 0 -3 2.5t-5 2.5q-11 0 -40 -20t-59.5 -50t-54 -65.5t-23.5 -66.5q0 -11 3.5 -21.5t28.5 -10.5q17 0 36.5 6.5t39.5 17t40.5 24t39.5 27.5q44 33 89 75l5 -18q-42 -44 -83 -78q-17 -15 -36 -29t-38 -25
t-37 -17.5t-33 -6.5q-37 0 -62 16.5t-25 57.5q0 35 17.5 66t43 57.5t54 46.5t49.5 32zM5 61l45 45l36.5 37t29.5 26q-32 -23 -53.5 -42.5t-34.5 -33.5q-15 -18 -23 -32zM82 -62q32 8 57.5 23.5t44.5 30.5q22 18 39 37l-41 -33q-19 -14 -44.5 -29.5t-55.5 -28.5zM231 494
q6 -7 14.5 -16t18 -17t18.5 -13.5t16 -5.5q5 0 4.5 -8t-15.5 -8q-12 0 -24.5 4.5t-23.5 11.5t-19 14t-10 13q-3 8 4 17.5t13 9.5q2 0 4 -2z" />
    <glyph glyph-name="Euro" unicode="&#x20ac;" horiz-adv-x="235" 
d="M288 333q5 -5 9 -13t-7 -19q-5 -6 -18.5 -20.5t-27.5 -32.5t-24.5 -36t-10.5 -30q0 -7 3 -6t3 -4q0 -4 -9 -4q-6 0 -12.5 5.5t-6.5 20.5q0 16 10.5 38t24.5 42q15 23 34 48q-32 -22 -74.5 -63.5t-79.5 -89.5q10 1 19 1.5t20 0.5t15 -6.5t4 -9.5t-3 -6t-8 -3t-7 5
q-2 1 -2 4h-14q-7 -1 -16 -1.5t-21 -2.5l-12 -17.5l-12 -17.5q23 4 50 4t34 -11t7 -18q0 -3 -6 -3q-5 0 -7 3t-7 4t-11 1q-20 0 -40 -3.5t-37 -8.5q-20 -38 -20 -70q0 -28 29 -28q25 0 54 15.5t53.5 35.5t41 39.5t16.5 28.5q0 11 -9 11q-6 0 -8 -2q-3 -1 -2 5.5t9 6.5
t15.5 -4.5t7.5 -15.5q0 -22 -18.5 -48t-44.5 -48.5t-55.5 -37.5t-50.5 -15q-25 0 -44 19.5t-19 44.5q0 13 2.5 26t7.5 27q-12 -3 -15 -5q-1 -1 -3 -1q-6 0 -10.5 7.5t2.5 15.5q3 4 14 8.5t26 8.5l10 18l10 18l-36 -9q-5 -1 -9.5 6t0.5 9t20 6.5t38 7.5q25 36 56 69.5t60 59
t53.5 40.5t36.5 15q11 0 14.5 -5.5t7.5 -9.5zM49 130q2 2 3 5q3 3 9 11h-2l-5.5 -9zM76 166l22.5 30l26 32l26.5 30.5t24 25.5q-29 -26 -56.5 -59t-45.5 -59h3z" />
    <glyph glyph-name="F" unicode="F" horiz-adv-x="396" 
d="M517 387q37 0 57 -13t27.5 -28t5.5 -28t-9 -13q-3 0 -1.5 6.5t-1 15t-14 15t-41.5 6.5q-39 0 -86.5 -7.5t-98 -20.5t-102 -30.5t-98.5 -37.5t-86.5 -41.5t-66.5 -42.5q5 -4 17.5 -7.5t29 -7.5l34 -8t30.5 -10q4 -2 4 -4t-5 -1q-9 4 -25 6.5l-33 5t-31.5 5t-20.5 5.5
q-12 5 -15 11.5t-3 11.5q-1 6 19 22.5t54 37.5t79 43.5t95 41.5q39 15 79 27t77.5 21t71 14t58.5 5zM65 218q53 26 105.5 48t96.5 37q50 19 97 33q-60 -14 -113.5 -34t-95.5 -39q-48 -22 -90 -45zM115 257q41 19 89.5 36l89.5 30.5l66.5 21.5t20.5 8q-4 0 -8 -1
q-33 -6 -72 -18.5t-78.5 -28t-77.5 -33t-68 -34.5zM405 295q11 0 13.5 -6.5t-3.5 -11.5q-21 -19 -43 -45t-42 -55q12 0 19.5 -4t11.5 -9t3.5 -9t-5.5 -4q-4 0 -5 1.5t-2.5 3.5t-3.5 3.5t-7 1.5t-11 -0.5t-13 -1.5q-23 -34 -42 -67l-33 -59l-30 -58q2 -19 -0.5 -36t-8 -29.5
t-11 -19.5t-9.5 -7t-6 3t-3 6v10q-4 2 -6 5q-7 5 -7 17q0 19 8.5 45.5t22.5 57.5q-10 35 -25.5 56t-21.5 26q-2 2 -2 3.5t2 1.5l1 -1q1 0 2 -1q20 -17 32 -36.5t19 -35.5q12 25 28 51t34 52q-23 -8 -39 -15t-19 -8q-6 -2 -12.5 8.5t-2.5 15.5q5 6 33 14t59 14q21 27 42 49.5
t38.5 39t29.5 25.5t15 9zM210 37l23 35l19 30t15 28q-16 -22 -31.5 -49z" />
    <glyph glyph-name="G" unicode="G" horiz-adv-x="367" 
d="M343 155q13 0 19 -5.5t-2 -12.5q-14 -14 -33 -40t-39.5 -58.5t-41 -68.5t-36.5 -70.5t-26 -63.5t-10 -48q0 -5 2 -6.5t4 -2t4 -1.5t2 -5q0 -11 -11 -11q-9 0 -20.5 12t-11.5 36q0 35 15 76t38 82q-30 -20 -63 -36.5t-59 -16.5q-13 0 -27.5 4t-25.5 13t-18.5 24t-7.5 36
q0 33 18.5 75t48.5 87t68.5 88t78.5 77t78.5 55t67.5 21q14 0 23.5 -15t9.5 -29q0 -13 -19.5 -36.5t-43 -46.5t-44 -40t-22.5 -18q-1 0 -2 -0.5t-2 -0.5q-8 0 -3 7q2 2 17.5 20t34 42t33.5 48t15 38q-33 -11 -72 -41q-39 -24 -73.5 -57.5t-61.5 -66t-45 -60t-24 -39.5
q22 32 46 63q21 26 47.5 55.5t52.5 52.5q-37 -38 -72 -83.5t-62 -89t-43 -80.5t-16 -59q0 -8 7 -13t25 -5q21 0 50.5 16t60 39t58.5 48.5t47 44.5q24 30 42 48t24 18zM127 -47q22 6 44 18t40 23l9 14t8 13q-22 -20 -48.5 -38.5t-52.5 -29.5zM163 -186q7 25 19 56
q11 26 28 61t43 77q-5 -2 -6 -4q-15 -23 -29.5 -48t-26 -50t-19.5 -48.5t-9 -43.5z" />
    <glyph glyph-name="H" unicode="H" horiz-adv-x="419" 
d="M706 537q0 -3 -22 -28.5l-57 -67l-78 -95l-86 -112.5l-29.5 -41l-28.5 -41q38 -4 53 -19q4 -3 4.5 -8.5t-1.5 -7.5l-1.5 2t-8 5t-20 6.5t-38.5 4.5l-48 -78q-3 -5 -4.5 -10.5t-4.5 -10.5q-28 -45 -44 -78t-16 -50q0 -16 3 -18t3 -4t-4.5 -5t-10.5 -3q-8 0 -14.5 10
t-6.5 29q0 35 29.5 93t74.5 126q-76 -1 -129 -9l-42 -59t-35 -55t-23.5 -47.5t-8.5 -36.5q0 -17 3 -19.5t3 -5.5q0 -2 -5 -4t-9 -2q-12 0 -20 13t-8 30q0 38 25.5 84t61.5 94q-58 -13 -82 -25t-27 -12q-2 0 -5.5 6t-3.5 12q0 8 11.5 14t30 11.5t43.5 9.5t52 7l4 6t5 6l57 69
l53 62.5l39.5 48t15.5 25.5q0 8 -14 8q-10 0 -40.5 -16t-70.5 -41.5t-84 -58.5t-80.5 -67t-60.5 -66.5t-24 -57.5q0 -12 5.5 -17.5t11.5 -7.5t11.5 -2t5.5 -2q0 -6 -20 -6q-5 0 -12.5 2.5t-14.5 8.5t-12.5 17t-5.5 28q0 35 30 72.5t75.5 74t98.5 68.5t99 56.5t78 39t34 14.5
q13 0 25.5 -12.5t12.5 -20.5q0 -4 -15 -25t-39.5 -52.5l-54.5 -70l-60 -78.5q40 4 74.5 5.5t52.5 1.5q45 65 97 130.5l101 122.5q7 8 3 15.5t0 12.5q60 60 92 89t34 29q4 0 10.5 -6t6.5 -10zM30 190l72 54l61.5 42.5l60 38t68.5 39.5q-25 -11 -61 -31t-73.5 -44t-71.5 -50
t-56 -49zM326 70l24 34l22 32h-8l-17.5 -31.5zM384 154q33 50 69 98l72 96q-42 -48 -79 -94.5t-71 -99.5h9z" />
    <glyph glyph-name="I" unicode="I" horiz-adv-x="298" 
d="M257 339q-49 -23 -100 -55t-89 -70l33.5 25t33.5 23l29.5 20.5l32.5 21.5t31.5 19.5t28.5 15.5zM154 -12q35 71 73 139t80 135l-51.5 -81.5t-48.5 -82.5l-22 -40.5t-21 -42.5q-4 -8 -6.5 -15t-3.5 -12zM307 284q-38 -54 -72.5 -110.5t-65.5 -115.5zM272 346q0 1 2 1
q4 2 8 3.5t8 3.5q-7 -1 -15 -6zM350 381q15 0 26 -11q5 -6 6 -12t-4 -13q-2 -2 -7 -9.5l-13 -20.5l-33 -48l-41.5 -65.5l-43.5 -74.5t-39 -76.5t-28 -70t-11 -55.5q0 -24 4 -29q3 -6 8 -6t5 -8t-5 -8q-16 0 -27 6t-18 20q-7 13 -7 37q0 25 11.5 57.5t30 69t42.5 74.5
l48.5 74l47.5 67.5l40 54.5t17 26q-71 -23 -138.5 -63t-123.5 -91q-9 -8 -20 -19t-21 -23.5t-16.5 -25.5t-6.5 -26q0 -15 5 -22q4 -7 11 -9q6 -2 10 -2q5 0 5 -2q0 -7 -16 -7q-11 0 -18.5 5.5t-12 14.5t-6.5 19t-2 19q0 25 18 53t47.5 56.5t67 54.5t75.5 45.5t73 31.5t60 12
z" />
    <glyph glyph-name="Iacute" unicode="&#xcd;" horiz-adv-x="298" 
d="M257 339q-49 -23 -100 -55t-89 -70l33.5 25t33.5 23l29.5 20.5l32.5 21.5t31.5 19.5t28.5 15.5zM154 -12q35 71 73 139t80 135l-51.5 -81.5t-48.5 -82.5l-22 -40.5t-21 -42.5q-4 -8 -6.5 -15t-3.5 -12zM307 284q-38 -54 -72.5 -110.5t-65.5 -115.5zM272 346q0 1 2 1
q4 2 8 3.5t8 3.5q-7 -1 -15 -6zM350 381q15 0 26 -11q5 -6 6 -12t-4 -13q-2 -2 -7 -9.5l-13 -20.5l-33 -48l-41.5 -65.5l-43.5 -74.5t-39 -76.5t-28 -70t-11 -55.5q0 -24 4 -29q3 -6 8 -6t5 -8t-5 -8q-16 0 -27 6t-18 20q-7 13 -7 37q0 25 11.5 57.5t30 69t42.5 74.5
l48.5 74l47.5 67.5l40 54.5t17 26q-71 -23 -138.5 -63t-123.5 -91q-9 -8 -20 -19t-21 -23.5t-16.5 -25.5t-6.5 -26q0 -15 5 -22q4 -7 11 -9q6 -2 10 -2q5 0 5 -2q0 -7 -16 -7q-11 0 -18.5 5.5t-12 14.5t-6.5 19t-2 19q0 25 18 53t47.5 56.5t67 54.5t75.5 45.5t73 31.5t60 12
zM379 482q2 2 4 2q6 0 12 -9.5t4 -16.5q-2 -6 -10 -13t-18.5 -13.5t-22.5 -11t-23 -4.5q-15 0 -16 8t4 8q6 0 15 5.5t18.5 13t18 16.5z" />
    <glyph glyph-name="Idieresis" unicode="&#xcf;" horiz-adv-x="298" 
d="M257 339q-49 -23 -100 -55t-89 -70l33.5 25t33.5 23l29.5 20.5l32.5 21.5t31.5 19.5t28.5 15.5zM154 -12q35 71 73 139t80 135l-51.5 -81.5t-48.5 -82.5l-22 -40.5t-21 -42.5q-4 -8 -6.5 -15t-3.5 -12zM307 284q-38 -54 -72.5 -110.5t-65.5 -115.5zM272 346q0 1 2 1
q4 2 8 3.5t8 3.5q-7 -1 -15 -6zM350 381q15 0 26 -11q5 -6 6 -12t-4 -13q-2 -2 -7 -9.5l-13 -20.5l-33 -48l-41.5 -65.5l-43.5 -74.5t-39 -76.5t-28 -70t-11 -55.5q0 -24 4 -29q3 -6 8 -6t5 -8t-5 -8q-16 0 -27 6t-18 20q-7 13 -7 37q0 25 11.5 57.5t30 69t42.5 74.5
l48.5 74l47.5 67.5l40 54.5t17 26q-71 -23 -138.5 -63t-123.5 -91q-9 -8 -20 -19t-21 -23.5t-16.5 -25.5t-6.5 -26q0 -15 5 -22q4 -7 11 -9q6 -2 10 -2q5 0 5 -2q0 -7 -16 -7q-11 0 -18.5 5.5t-12 14.5t-6.5 19t-2 19q0 25 18 53t47.5 56.5t67 54.5t75.5 45.5t73 31.5t60 12
zM320 489q6 2 9 2q11 0 18.5 -9t1.5 -17q-5 -8 -16 -8q-10 0 -14 7q-3 5 -5 13t6 12zM416 485q4 -8 2 -15.5t-10 -12.5q-6 -2 -8 -2q-10 0 -17 9t-3 18q2 5 8 8t12 3q11 0 16 -8z" />
    <glyph glyph-name="Igrave" unicode="&#xcc;" horiz-adv-x="298" 
d="M257 339q-49 -23 -100 -55t-89 -70l33.5 25t33.5 23l29.5 20.5l32.5 21.5t31.5 19.5t28.5 15.5zM154 -12q35 71 73 139t80 135l-51.5 -81.5t-48.5 -82.5l-22 -40.5t-21 -42.5q-4 -8 -6.5 -15t-3.5 -12zM307 284q-38 -54 -72.5 -110.5t-65.5 -115.5zM272 346q0 1 2 1
q4 2 8 3.5t8 3.5q-7 -1 -15 -6zM350 381q15 0 26 -11q5 -6 6 -12t-4 -13q-2 -2 -7 -9.5l-13 -20.5l-33 -48l-41.5 -65.5l-43.5 -74.5t-39 -76.5t-28 -70t-11 -55.5q0 -24 4 -29q3 -6 8 -6t5 -8t-5 -8q-16 0 -27 6t-18 20q-7 13 -7 37q0 25 11.5 57.5t30 69t42.5 74.5
l48.5 74l47.5 67.5l40 54.5t17 26q-71 -23 -138.5 -63t-123.5 -91q-9 -8 -20 -19t-21 -23.5t-16.5 -25.5t-6.5 -26q0 -15 5 -22q4 -7 11 -9q6 -2 10 -2q5 0 5 -2q0 -7 -16 -7q-11 0 -18.5 5.5t-12 14.5t-6.5 19t-2 19q0 25 18 53t47.5 56.5t67 54.5t75.5 45.5t73 31.5t60 12
zM294 488q6 -7 14.5 -16t18 -17t18.5 -13.5t16 -5.5q5 0 4.5 -8t-15.5 -8q-12 0 -24.5 4.5t-23.5 11.5t-19 14t-10 13q-3 8 4 17.5t13 9.5q2 0 4 -2z" />
    <glyph glyph-name="J" unicode="J" horiz-adv-x="273" 
d="M339 415q17 0 26 -16t1 -29q-2 -3 -11 -26t-24.5 -57.5l-36.5 -77.5t-46 -87.5t-53.5 -87t-59 -75.5t-62 -53t-63.5 -20q-30 0 -50 7t-32 18t-17 24.5t-5 25.5q0 5 4 5q7 0 7 -8q0 -3 2 -9t9 -12.5t18.5 -11.5t31.5 -5q37 0 75 26.5t74 68.5t69.5 95t60.5 106.5t47.5 102
t31.5 81.5q-52 -16 -101 -46t-87.5 -63.5t-61.5 -65t-23 -50.5q0 -9 3 -11.5t7 -2.5h7q3 0 3 -2q0 -4 -6.5 -7t-15.5 -3q-11 0 -20 7.5t-9 27.5q0 24 17.5 50t46 51.5t63 49t69 41.5t64 28.5t47.5 10.5zM-46 -85q8 -2 14.5 -3t14.5 -1q29 0 54.5 12t46.5 28.5t35.5 34
t21.5 29.5q-23 -29 -49 -51q-23 -20 -52.5 -35.5t-63.5 -15.5q-6 0 -11.5 0.5t-10.5 1.5zM155 35q26 29 46.5 60t34.5 57q16 30 29 60q-11 -23 -29 -54t-36 -58z" />
    <glyph glyph-name="K" unicode="K" horiz-adv-x="517" 
d="M240 60q0 27 3 52q-18 -32 -34 -65t-29 -68q13 21 28.5 41.5t31.5 39.5zM204 -11l17 22.5t20 22.5q-1 1 -1 5l-9.5 -13t-9.5 -12l-9 -13zM77 198l95 79t100 72q-53 -29 -103.5 -67t-91.5 -84zM254 172l-10 -14.5l-10 -15.5q-6 -8 -12 -17t-11 -19l-12 -19.5t-11 -19.5
l-10 -19.5t-9 -19.5l15.5 27l15.5 26q7 11 13.5 23t14.5 25q17 30 36 57q2 2 3.5 5t3.5 5q5 5 7 8q-2 -1 -5.5 -5.5t-7 -9.5l-7 -10t-4.5 -7zM420 -4q-21 -17 -46.5 -28.5t-52.5 -11.5q-17 0 -32 6q17 -11 37 -11q19 0 34 6.5t31 15.5q8 5 15 10.5t14 12.5zM277 73
q42 42 91.5 85.5t98.5 78.5l-17.5 -10.5t-20.5 -13.5q-41 -30 -78 -62.5t-72 -67.5q-2 -8 -2 -10zM433 5q8 5 20 13.5t18 17.5zM528 270q11 0 20.5 -3.5t11.5 -15.5q1 -7 -2 -14q-3 -6 -6 -6t-5 3q-1 1 -1 5l-1 5q-2 2 -4 2q-13 0 -40 -16.5t-56.5 -39t-56 -45t-38.5 -33.5
q-22 -20 -41.5 -40.5t-37.5 -42.5q-1 -24 10 -45q10 -19 44 -19q21 0 47.5 13t53.5 31t51 38t40 35l5 -18q-15 -18 -36.5 -41t-47 -43.5t-52.5 -35t-52 -14.5q-70 0 -88 68q-17 -23 -28 -44q-13 -21 -21 -42q-6 -16 -18 -16q-5 0 -6 1q-4 1 -12 6l-2 2q-9 9 -14 19
q-7 12 -9 27q-3 22 10 56q15 43 46.5 96.5t71.5 106t83 99.5t80 78q-6 2 -11 2q-25 0 -67.5 -23.5t-88 -56.5t-86.5 -67.5t-63 -57.5q-34 -36 -58 -72q-23 -35 -18 -59q1 -7 5 -19.5t12 -14.5q2 -1 6 -1q5 0 5 -4q2 -11 -10 -11q-6 0 -13 4q-15 6 -25 24.5t-12 34.5
q-5 33 15 71t56.5 76t81.5 72t93 61.5t89 43.5t69 16q22 0 31 -11l8 6q1 1 4 1q6 0 9 -7q3 -6 -5 -14q-54 -48 -99.5 -106.5t-84.5 -118.5q15 -7 18 -25q2 -3 0 -8l-3 -12q19 19 48.5 46t63.5 52t68.5 43t62.5 18z" />
    <glyph glyph-name="L" unicode="L" horiz-adv-x="334" 
d="M-87 -95q3 1 13.5 5t22.5 9.5l23 10.5t16 8h2q5 0 6 -7v-6q35 6 68.5 10t65.5 6q-5 17 -5 32q0 35 11 74t30 79q-39 3 -54 21t-15 38q0 5 5 5q4 0 4 -5q0 -8 5.5 -13t13.5 -7.5t16.5 -3t14.5 -0.5q13 0 31 8q26 50 57 95t59 79.5t50 55t29 20.5q13 0 21 -9.5t8 -23.5
q0 -30 -20 -68.5t-50.5 -75t-66 -66t-65.5 -42.5q-28 -62 -44 -114.5t-16 -75.5v-2q12 2 23.5 2h22.5q64 0 134.5 -3.5t132.5 -21.5q23 -6 31 -16t7.5 -19t-6 -15t-8.5 -5q-3 2 -2 5t-4 5q-72 17 -141 24t-132 7q-62 0 -114.5 -5t-91 -11t-61.5 -11.5t-26 -6.5
q-5 -1 -7.5 3.5t-2.5 10.5t2 12t7 8zM243 204q22 17 43.5 38t40.5 45.5t34 51.5t24 54q-42 -34 -77.5 -84t-64.5 -105zM125 -84h-3h3q11 1 22.5 1h23.5q60 0 120 -3.5t120 -8.5q-48 9 -98.5 11.5t-99.5 2.5q-41 0 -88 -3zM219 164q21 11 49 35t60 69q-29 -32 -54 -55.5
t-48 -38.5zM187 -74q59 -1 118.5 -4t117.5 -14q-45 10 -90 16t-90 6q-14 0 -28 -1t-28 -3z" />
    <glyph glyph-name="M" unicode="M" horiz-adv-x="516" 
d="M456 176h3q8 0 13.5 -8t0.5 -15q-9 -13 -18 -38t-16 -51.5t-10.5 -50.5t-2.5 -36q2 -9 4.5 -9t3.5 -6q0 -2 -5 -2q-6 0 -16 7t-13 30q-3 20 1 44.5t10 44.5q7 25 17 49q-11 -6 -28 -21.5t-33.5 -33l-30 -32t-17.5 -18.5q-2 -2 -5 -2q-8 0 -14.5 14.5t-8.5 28.5
q-2 19 15 53.5t39 68.5l-58 -54.5l-68 -66l-68.5 -70l-60.5 -65.5q-3 -3 -9 -3q-8 0 -16 3t-10 4q-8 4 -15.5 10t-2.5 14q2 3 19.5 27.5l42.5 62l54 83t54.5 91t44 86.5t21.5 69q-15 -7 -39 -25t-51.5 -41t-55 -49.5t-49 -50.5t-35 -44.5t-11.5 -31.5q3 -15 10 -15
q3 0 7.5 1.5t9.5 3.5q3 2 3 -1t-1.5 -7.5t-6 -8t-10.5 -3.5q-14 0 -27.5 14t-16.5 33q-3 21 13.5 48.5t43 56.5t59.5 57t64.5 50.5t56.5 36t36 13.5q17 0 25.5 -8.5t10.5 -19.5q2 -15 -6.5 -42.5t-24 -62t-36 -73l-42.5 -77l-44 -74l-40 -62.5l86.5 84.5l83.5 78l68 60.5
t40 32q2 2 4.5 3.5t3.5 2.5q5 0 9.5 -4.5t8 -11t4.5 -13t-2 -9.5t-15.5 -21l-27.5 -41t-28.5 -48t-19.5 -42q13 14 32.5 31.5l38.5 33t34.5 26.5t19.5 12zM82 -19q15 17 33 46.5l35 58.5l37 70zM125 -7q19 15 37 32.5t32 33.5q16 18 31 37z" />
    <glyph glyph-name="N" unicode="N" horiz-adv-x="476" 
d="M318 434q12 0 24.5 -8.5t12.5 -31.5q0 -11 -10.5 -37t-28.5 -60l-40.5 -73.5l-47 -79l-48.5 -75.5t-44 -63l101.5 86l103 86l91.5 74t67 50q9 12 12 12q6 0 10 -4t6 -10t1.5 -12.5t-3.5 -10.5q-36 -49 -66 -97.5t-52 -93t-34 -83.5t-12 -69q0 -6 -5 -6q-6 0 -14.5 12
t-8.5 38q0 29 14 67t34.5 78t44.5 77.5t44 64.5q-68 -52 -133 -110l-117.5 -106.5l-86.5 -80.5t-40 -32q-10 0 -12.5 5.5t-0.5 12.5q-7 3 -14 12.5t0 16.5q3 3 22.5 30.5l47.5 68.5l60 89.5t59 93.5t45 81.5t18 51.5q-14 0 -40.5 -14.5t-58.5 -39t-65.5 -56t-60.5 -65
t-44.5 -67t-17.5 -61.5q0 -17 3.5 -23.5t10.5 -6.5q11 0 11 4t4 4q2 0 2 -3.5t-2.5 -7.5t-7.5 -7.5t-13 -3.5q-17 0 -28.5 16.5t-11.5 47.5q0 36 19.5 73.5t49.5 73t67 67t72.5 55t65.5 37t45 13.5zM98 5l31 41.5l42.5 61t43.5 68.5t33 63l-31.5 -50l-29.5 -47l-24.5 -39
l-24.5 -38.5l-22.5 -34zM43 212q15 19 33 39.5t37.5 40t40 37t39.5 30.5l-31.5 -22t-40.5 -33t-42 -42t-36 -50zM17 128q6 20 16.5 40.5t24 40t28.5 37.5t28 32q-15 -13 -31 -30.5t-30 -37.5t-24 -41t-12 -41zM348 -35q2 9 4.5 18t4.5 19q5 17 11.5 37t14.5 40q5 8 8.5 15
t5.5 12q2 2 3 5t3 5q-11 -17 -20 -37q-12 -26 -24.5 -59t-10.5 -55zM348 26q7 14 13 28t13 28l19 39.5l19 37.5q-18 -31 -36.5 -66.5t-27.5 -66.5z" />
    <glyph glyph-name="Ntilde" unicode="&#xd1;" horiz-adv-x="476" 
d="M318 434q12 0 24.5 -8.5t12.5 -31.5q0 -11 -10.5 -37t-28.5 -60l-40.5 -73.5l-47 -79l-48.5 -75.5t-44 -63l101.5 86l103 86l91.5 74t67 50q9 12 12 12q6 0 10 -4t6 -10t1.5 -12.5t-3.5 -10.5q-36 -49 -66 -97.5t-52 -93t-34 -83.5t-12 -69q0 -6 -5 -6q-6 0 -14.5 12
t-8.5 38q0 29 14 67t34.5 78t44.5 77.5t44 64.5q-68 -52 -133 -110l-117.5 -106.5l-86.5 -80.5t-40 -32q-10 0 -12.5 5.5t-0.5 12.5q-7 3 -14 12.5t0 16.5q3 3 22.5 30.5l47.5 68.5l60 89.5t59 93.5t45 81.5t18 51.5q-14 0 -40.5 -14.5t-58.5 -39t-65.5 -56t-60.5 -65
t-44.5 -67t-17.5 -61.5q0 -17 3.5 -23.5t10.5 -6.5q11 0 11 4t4 4q2 0 2 -3.5t-2.5 -7.5t-7.5 -7.5t-13 -3.5q-17 0 -28.5 16.5t-11.5 47.5q0 36 19.5 73.5t49.5 73t67 67t72.5 55t65.5 37t45 13.5zM98 5l31 41.5l42.5 61t43.5 68.5t33 63l-31.5 -50l-29.5 -47l-24.5 -39
l-24.5 -38.5l-22.5 -34zM43 212q15 19 33 39.5t37.5 40t40 37t39.5 30.5l-31.5 -22t-40.5 -33t-42 -42t-36 -50zM17 128q6 20 16.5 40.5t24 40t28.5 37.5t28 32q-15 -13 -31 -30.5t-30 -37.5t-24 -41t-12 -41zM348 -35q2 9 4.5 18t4.5 19q5 17 11.5 37t14.5 40q5 8 8.5 15
t5.5 12q2 2 3 5t3 5q-11 -17 -20 -37q-12 -26 -24.5 -59t-10.5 -55zM348 26q7 14 13 28t13 28l19 39.5l19 37.5q-18 -31 -36.5 -66.5t-27.5 -66.5zM380 375q-5 0 -7.5 4.5t-1 10t7.5 10t16 4.5q11 0 20 -2t18 -4.5t19 -4.5t22 -2q7 0 9.5 1.5t4 3t2 3t2.5 1.5q5 0 7 -5
t-0.5 -10.5t-9 -10.5t-19.5 -5q-25 0 -42 8t-36 8q-9 0 -8.5 -5t-3.5 -5z" />
    <glyph glyph-name="O" unicode="O" horiz-adv-x="404" 
d="M379 417q35 0 52.5 -19t21.5 -45q2 -18 -9.5 -47t-31.5 -63.5t-48 -71.5t-59 -71.5t-63.5 -64.5t-62.5 -49q45 26 92 70q41 38 89.5 100.5t93.5 155.5q-5 -39 -24 -83t-46.5 -86.5t-62 -81.5t-71 -68.5t-72.5 -47t-67 -17.5q-27 0 -39 14t-16 35q-9 2 -19.5 8t-19.5 15
t-15.5 22t-7.5 29q-4 38 13 80t47 82.5t70 77.5t84 65t88.5 44.5t82.5 16.5zM27 42q2 -19 10 -28.5t21 -14.5q2 21 10.5 42.5t18.5 39t18 28.5t10 11t5 -2.5t5.5 -6.5t3.5 -7.5t-1 -6.5q-2 -1 -8 -11t-13.5 -24.5t-14.5 -31.5t-10 -33q7 0 12.5 1t9.5 2q5 1 9 2l-5 -5h2
q2 1 4 1q3 0 3 -1q1 -2 -9.5 -9t-27.5 -11v-4q0 -11 11 -11q31 0 68.5 23t76 59t74.5 81t63 89t43 82t14 61q-1 19 -11 27t-24 8q-30 0 -69.5 -16.5t-81.5 -44t-82 -63.5t-71 -75t-49 -78t-15 -73zM36 170l57.5 64.5t71 68.5t89 59.5t110.5 38.5q4 1 0 3.5t-9 1.5
q-52 -10 -107 -38q-47 -24 -102.5 -70.5t-109.5 -127.5zM65 182q3 3 15.5 17l29.5 32l36.5 37.5l35.5 34.5q5 4 8.5 6.5t5.5 4.5q3 2 5 4q-16 -10 -36.5 -27.5t-40.5 -37l-38 -38.5t-29 -33q-2 -2 -2.5 -3.5t1.5 -1.5q4 0 9 5z" />
    <glyph glyph-name="Oacute" unicode="&#xd3;" horiz-adv-x="404" 
d="M379 417q35 0 52.5 -19t21.5 -45q2 -18 -9.5 -47t-31.5 -63.5t-48 -71.5t-59 -71.5t-63.5 -64.5t-62.5 -49q45 26 92 70q41 38 89.5 100.5t93.5 155.5q-5 -39 -24 -83t-46.5 -86.5t-62 -81.5t-71 -68.5t-72.5 -47t-67 -17.5q-27 0 -39 14t-16 35q-9 2 -19.5 8t-19.5 15
t-15.5 22t-7.5 29q-4 38 13 80t47 82.5t70 77.5t84 65t88.5 44.5t82.5 16.5zM27 42q2 -19 10 -28.5t21 -14.5q2 21 10.5 42.5t18.5 39t18 28.5t10 11t5 -2.5t5.5 -6.5t3.5 -7.5t-1 -6.5q-2 -1 -8 -11t-13.5 -24.5t-14.5 -31.5t-10 -33q7 0 12.5 1t9.5 2q5 1 9 2l-5 -5h2
q2 1 4 1q3 0 3 -1q1 -2 -9.5 -9t-27.5 -11v-4q0 -11 11 -11q31 0 68.5 23t76 59t74.5 81t63 89t43 82t14 61q-1 19 -11 27t-24 8q-30 0 -69.5 -16.5t-81.5 -44t-82 -63.5t-71 -75t-49 -78t-15 -73zM36 170l57.5 64.5t71 68.5t89 59.5t110.5 38.5q4 1 0 3.5t-9 1.5
q-52 -10 -107 -38q-47 -24 -102.5 -70.5t-109.5 -127.5zM65 182q3 3 15.5 17l29.5 32l36.5 37.5l35.5 34.5q5 4 8.5 6.5t5.5 4.5q3 2 5 4q-16 -10 -36.5 -27.5t-40.5 -37l-38 -38.5t-29 -33q-2 -2 -2.5 -3.5t1.5 -1.5q4 0 9 5zM410 530q2 2 4 2q6 0 12 -9.5t4 -16.5
q-2 -6 -10 -13t-18.5 -13.5t-22.5 -11t-23 -4.5q-15 0 -16 8t4 8q6 0 15 5.5t18.5 13t18 16.5z" />
    <glyph glyph-name="Ocircumflex" unicode="&#xd4;" horiz-adv-x="404" 
d="M379 417q35 0 52.5 -19t21.5 -45q2 -18 -9.5 -47t-31.5 -63.5t-48 -71.5t-59 -71.5t-63.5 -64.5t-62.5 -49q45 26 92 70q41 38 89.5 100.5t93.5 155.5q-5 -39 -24 -83t-46.5 -86.5t-62 -81.5t-71 -68.5t-72.5 -47t-67 -17.5q-27 0 -39 14t-16 35q-9 2 -19.5 8t-19.5 15
t-15.5 22t-7.5 29q-4 38 13 80t47 82.5t70 77.5t84 65t88.5 44.5t82.5 16.5zM27 42q2 -19 10 -28.5t21 -14.5q2 21 10.5 42.5t18.5 39t18 28.5t10 11t5 -2.5t5.5 -6.5t3.5 -7.5t-1 -6.5q-2 -1 -8 -11t-13.5 -24.5t-14.5 -31.5t-10 -33q7 0 12.5 1t9.5 2q5 1 9 2l-5 -5h2
q2 1 4 1q3 0 3 -1q1 -2 -9.5 -9t-27.5 -11v-4q0 -11 11 -11q31 0 68.5 23t76 59t74.5 81t63 89t43 82t14 61q-1 19 -11 27t-24 8q-30 0 -69.5 -16.5t-81.5 -44t-82 -63.5t-71 -75t-49 -78t-15 -73zM36 170l57.5 64.5t71 68.5t89 59.5t110.5 38.5q4 1 0 3.5t-9 1.5
q-52 -10 -107 -38q-47 -24 -102.5 -70.5t-109.5 -127.5zM65 182q3 3 15.5 17l29.5 32l36.5 37.5l35.5 34.5q5 4 8.5 6.5t5.5 4.5q3 2 5 4q-16 -10 -36.5 -27.5t-40.5 -37l-38 -38.5t-29 -33q-2 -2 -2.5 -3.5t1.5 -1.5q4 0 9 5zM456 474q5 -1 6 -3.5t1 -4.5q-1 -2 -3 -4
t-9 -2q-14 0 -30.5 10t-24.5 30l-23 -16l-20.5 -12t-18.5 -8q-2 -1 -6 -1q-5 0 -7 3q-5 5 2 10q5 3 14.5 9.5t20 14.5l20 15.5t13.5 11.5l1 4q4 4 12 4q7 0 8 -3l2 -2t3 -6q3 -4 7.5 -12t10 -16t11 -14t10.5 -8z" />
    <glyph glyph-name="Odieresis" unicode="&#xd6;" horiz-adv-x="404" 
d="M379 417q35 0 52.5 -19t21.5 -45q2 -18 -9.5 -47t-31.5 -63.5t-48 -71.5t-59 -71.5t-63.5 -64.5t-62.5 -49q45 26 92 70q41 38 89.5 100.5t93.5 155.5q-5 -39 -24 -83t-46.5 -86.5t-62 -81.5t-71 -68.5t-72.5 -47t-67 -17.5q-27 0 -39 14t-16 35q-9 2 -19.5 8t-19.5 15
t-15.5 22t-7.5 29q-4 38 13 80t47 82.5t70 77.5t84 65t88.5 44.5t82.5 16.5zM27 42q2 -19 10 -28.5t21 -14.5q2 21 10.5 42.5t18.5 39t18 28.5t10 11t5 -2.5t5.5 -6.5t3.5 -7.5t-1 -6.5q-2 -1 -8 -11t-13.5 -24.5t-14.5 -31.5t-10 -33q7 0 12.5 1t9.5 2q5 1 9 2l-5 -5h2
q2 1 4 1q3 0 3 -1q1 -2 -9.5 -9t-27.5 -11v-4q0 -11 11 -11q31 0 68.5 23t76 59t74.5 81t63 89t43 82t14 61q-1 19 -11 27t-24 8q-30 0 -69.5 -16.5t-81.5 -44t-82 -63.5t-71 -75t-49 -78t-15 -73zM36 170l57.5 64.5t71 68.5t89 59.5t110.5 38.5q4 1 0 3.5t-9 1.5
q-52 -10 -107 -38q-47 -24 -102.5 -70.5t-109.5 -127.5zM65 182q3 3 15.5 17l29.5 32l36.5 37.5l35.5 34.5q5 4 8.5 6.5t5.5 4.5q3 2 5 4q-16 -10 -36.5 -27.5t-40.5 -37l-38 -38.5t-29 -33q-2 -2 -2.5 -3.5t1.5 -1.5q4 0 9 5zM349 521q6 2 9 2q11 0 18.5 -9t1.5 -17
q-5 -8 -16 -8q-10 0 -14 7q-3 5 -5 13t6 12zM445 517q4 -8 2 -15.5t-10 -12.5q-6 -2 -8 -2q-10 0 -17 9t-3 18q2 5 8 8t12 3q11 0 16 -8z" />
    <glyph glyph-name="Ograve" unicode="&#xd2;" horiz-adv-x="404" 
d="M379 417q35 0 52.5 -19t21.5 -45q2 -18 -9.5 -47t-31.5 -63.5t-48 -71.5t-59 -71.5t-63.5 -64.5t-62.5 -49q45 26 92 70q41 38 89.5 100.5t93.5 155.5q-5 -39 -24 -83t-46.5 -86.5t-62 -81.5t-71 -68.5t-72.5 -47t-67 -17.5q-27 0 -39 14t-16 35q-9 2 -19.5 8t-19.5 15
t-15.5 22t-7.5 29q-4 38 13 80t47 82.5t70 77.5t84 65t88.5 44.5t82.5 16.5zM27 42q2 -19 10 -28.5t21 -14.5q2 21 10.5 42.5t18.5 39t18 28.5t10 11t5 -2.5t5.5 -6.5t3.5 -7.5t-1 -6.5q-2 -1 -8 -11t-13.5 -24.5t-14.5 -31.5t-10 -33q7 0 12.5 1t9.5 2q5 1 9 2l-5 -5h2
q2 1 4 1q3 0 3 -1q1 -2 -9.5 -9t-27.5 -11v-4q0 -11 11 -11q31 0 68.5 23t76 59t74.5 81t63 89t43 82t14 61q-1 19 -11 27t-24 8q-30 0 -69.5 -16.5t-81.5 -44t-82 -63.5t-71 -75t-49 -78t-15 -73zM36 170l57.5 64.5t71 68.5t89 59.5t110.5 38.5q4 1 0 3.5t-9 1.5
q-52 -10 -107 -38q-47 -24 -102.5 -70.5t-109.5 -127.5zM65 182q3 3 15.5 17l29.5 32l36.5 37.5l35.5 34.5q5 4 8.5 6.5t5.5 4.5q3 2 5 4q-16 -10 -36.5 -27.5t-40.5 -37l-38 -38.5t-29 -33q-2 -2 -2.5 -3.5t1.5 -1.5q4 0 9 5zM348 541q6 -7 14.5 -16t18 -17t18.5 -13.5
t16 -5.5q5 0 4.5 -8t-15.5 -8q-12 0 -24.5 4.5t-23.5 11.5t-19 14t-10 13q-3 8 4 17.5t13 9.5q2 0 4 -2z" />
    <glyph glyph-name="Oslash" unicode="&#xd8;" horiz-adv-x="404" 
d="M377 415h6l16 21.5l16 20.5l-2 2q0 3 3 5q7 9 12 9q3 0 4 -1q5 -2 7 -4.5t-2 -10.5l-16 -22.5l-16 -23.5q21 -7 32.5 -23t13.5 -36q2 -18 -9.5 -47t-31.5 -63t-47.5 -71t-58.5 -71.5t-63.5 -64.5t-62.5 -49q45 26 92 70q41 38 89 100t93 155q-5 -38 -23 -80.5t-44.5 -84
t-59.5 -80t-68 -68t-70.5 -48.5t-66.5 -21q-9 -22 -14 -36.5t-4 -19.5q0 -11 -7 -14q-8 0 -13 7.5t-7 14.5q-4 9 12 52q-14 5 -21 17t-10 27q-9 2 -19.5 8t-19.5 15t-15.5 22t-7.5 29q-4 38 12.5 79.5t46.5 82t70 77t84 64.5t88 44.5t82 16.5zM27 42q3 -35 30 -43
q2 20 11 41.5t18.5 39t18 28.5t9.5 11q5 0 11.5 -8.5t1.5 -13.5q-2 -2 -8 -12t-13.5 -24.5t-14.5 -31.5t-10 -33q16 2 23 4l8 2l-4 -6q2 1 3 1q2 1 5 1q35 72 97.5 173.5t146.5 214.5q-32 -8 -69.5 -28t-75.5 -48t-73 -61.5t-61.5 -69.5t-41.5 -71t-12 -66zM144 -23
q31 16 65 44.5t66 64t60.5 75t50 76.5t33.5 68t10 50t-11.5 27t-24.5 8h-2l-70 -108.5l-67.5 -110.5l-60.5 -104zM363 399q3 2 0 3.5t-8 1.5h-2q-52 -10 -106 -38q-47 -24 -102.5 -70.5t-108.5 -126.5l57 64.5t70.5 68.5t89 59t110.5 38zM64 181q3 3 15.5 17l29.5 32
l36.5 37.5t36.5 34.5q8 7 13 10q3 2 5 4q-5 -2 -9 -6t-9 -8l-27 -22.5l-33 -29t-34.5 -33.5t-31.5 -36q-2 -2 -2 -3.5t2 -1.5q3 0 8 5zM79 -23v-5q0 -10 11 -10q6 0 10 1l6.5 15t7.5 16q-3 -3 -12.5 -9t-22.5 -8z" />
    <glyph glyph-name="P" unicode="P" horiz-adv-x="345" 
d="M392 440q15 0 29 -6t25 -16.5t18 -23.5t7 -27q0 -30 -17.5 -64t-45.5 -67.5t-64 -64t-73.5 -54t-73 -37.5t-62.5 -14h-3q-22 -40 -34.5 -72t-12.5 -47q0 -11 3 -14t8 -3q2 0 4 1.5t4 1.5q7 0 1.5 -9t-15.5 -9q-3 0 -9 1.5t-11.5 7t-9.5 15t-4 25.5q0 28 17 66.5t42.5 80
t56 82t57.5 72.5t47.5 52t25.5 20q8 0 10.5 -7t-1.5 -10q-21 -21 -43.5 -48t-44 -57t-41.5 -62t-37 -62q19 1 48.5 15.5t63 38t66.5 53.5t60 62t44 63t17 56q0 23 -13 31.5t-31 8.5q-26 0 -65 -13t-81.5 -34t-85 -47t-76.5 -52.5t-55 -50.5t-21 -41q0 -12 4.5 -13.5
t4.5 -4.5q0 -5 -8 -5q-6 0 -11.5 6.5t-5.5 17.5q0 27 19.5 56.5t52 58.5t73.5 54.5t84.5 45.5t86 31.5t76.5 11.5zM61 275q38 31 85 60q40 25 94 51.5t118 44.5q-34 -7 -73 -21.5t-78 -34.5t-76.5 -45.5t-69.5 -54.5zM76 11l19 39l18 36.5t21 37.5q5 7 9 13.5l9 14.5
q-10 -13 -21.5 -31t-22 -38t-19 -39t-13.5 -33z" />
    <glyph glyph-name="Q" unicode="Q" horiz-adv-x="486" 
d="M588 -146q3 0 4.5 -11.5t-4.5 -25.5t-23 -25.5t-52 -11.5q-44 0 -97.5 15.5t-107.5 39t-105.5 50.5l-92.5 50l-67.5 38.5t-30.5 14.5q-8 -2 -6.5 -7.5t3.5 -9.5q1 -2 -1 -3.5t-5 -1.5q-4 0 -7.5 2.5t-4.5 9.5q-2 14 4.5 22.5t14.5 7.5q12 -2 46.5 -19.5l82.5 -41.5
q-5 13 -5 34q0 17 6 34q-11 0 -24 11.5t-13 44.5q0 27 13.5 62t37.5 72t56 72t68.5 62.5t75.5 44.5t77 17q29 0 49 -13.5t25 -35.5q3 -21 3 -39t-1 -32q-2 -17 -5 -30q3 8 5 17q2 8 3.5 18.5t1.5 22.5q0 8 3 8q2 0 2 -11q0 -41 -16.5 -84.5t-44 -85.5t-62 -80t-71 -67.5
t-71.5 -47.5t-63 -20l83.5 -40t86 -36t81.5 -26t71 -10h11.5t10.5 1q24 4 34 11t14 14t4 12.5t3 6.5zM291 -12q30 17 59 43q26 22 55 56.5t54 83.5q-22 -36 -46 -66t-46.5 -52.5t-42 -39t-33.5 -25.5zM387 386q-52 -19 -96 -53.5t-77 -71t-54 -68.5t-27 -46q29 48 67 93
q33 38 80 78.5t107 67.5zM214 77q-3 -3 -14 -22t-21 -40t-14.5 -38.5t5.5 -17.5q23 0 55.5 18.5t68 49t71 69.5t63 79.5t45 80t17.5 70.5q0 28 -9 39.5t-23 11.5q-30 0 -66 -16.5t-72.5 -44t-71 -62t-61.5 -70t-43 -70t-16 -60.5q0 -18 5.5 -22t10.5 -6q6 13 13.5 25.5
t14.5 22t13 15t9 5.5q8 0 17.5 -5t2.5 -12zM183 -99l58.5 -29.5t53.5 -25l39 -17t15 -5.5l-64 30l-54.5 26z" />
    <glyph glyph-name="R" unicode="R" horiz-adv-x="431" 
d="M237 335q17 0 26 -12q13 -5 20 -9q7 -5 11.5 -12t-0.5 -18q-3 -8 -14.5 -28l-28 -47l-36 -59l-38.5 -63q2 0 3 -0.5t2 -0.5l87.5 116.5t89.5 108t78.5 79t55.5 30.5q15 0 16 -13q7 -2 11 -6q4 -5 8 -15t6 -29q3 -34 -18.5 -81t-59.5 -93t-88.5 -83.5t-105.5 -52.5
q31 -19 63 -43.5t59 -50.5t44.5 -52.5t19.5 -48.5q3 -29 -7 -38.5t-25 -9.5q-3 0 -7 0.5t-9 1.5q-2 1 -4 3t2 3q11 3 21.5 9t8.5 17q-2 18 -27.5 46.5t-62.5 58.5t-79 56.5t-77 39.5q-18 -27 -32 -50.5t-20 -38.5q-3 -3 -7 -5.5t-8 -2.5q-8 0 -11 12q-1 -1 0 -4q2 -8 -4 -8
t-15.5 9.5t-10.5 18.5q-1 16 12.5 43t34 59.5l44.5 67.5l44.5 66t34 55.5t12.5 36.5q0 5 -4 5q-13 0 -39 -13t-56.5 -34.5t-62 -49t-56.5 -57t-40 -58.5t-12 -53q2 -13 8.5 -16t14.5 -3q2 0 3 0.5t3 0.5q7 0 7 -3t-9 -8.5t-21 -5.5t-23 9.5t-14 36.5q-3 29 12.5 61.5
t41.5 64t58.5 61t65 51.5t60.5 35t44 13zM219 70q32 7 67 25t68 43t62.5 54.5t51 61t33 63t8.5 58.5q-3 26 -7 26q-16 0 -50.5 -31t-77 -79t-87 -105t-80.5 -110q8 -2 12 -6zM209 96q23 34 46.5 65l47.5 60.5t50 58l54 58.5l31 31.5l29 30.5q-21 -14 -43.5 -36t-45.5 -48
l-45.5 -54l-42.5 -55q-27 -32 -48.5 -60.5t-32.5 -50.5zM413 178q-15 -17 -62.5 -50.5t-125.5 -59.5q9 2 29 8t46 18.5t55.5 32.5t57.5 51zM307 -13q38 -26 70 -60t58 -72q-6 26 -26.5 50t-43.5 42q-13 11 -27.5 21t-30.5 19zM241 59q70 20 131 67.5t99 110.5
q-26 -41 -60 -71.5t-67 -52.5t-61.5 -35l-42.5 -19h1zM148 282l-20.5 -13.5l-19.5 -13.5q-17 -11 -34 -25.5t-28 -28.5zM152 88q1 0 1.5 0.5t2.5 0.5q18 26 36 55t24 46zM157 49q-1 0 -2 1l-6 -10t-5 -10q4 5 7 9.5t6 9.5zM124 44q4 7 17 23v3l-23 -34zM418 183l5 5
q-2 -1 -3 -2.5t-2 -2.5z" />
    <glyph glyph-name="S" unicode="S" horiz-adv-x="316" 
d="M-8 11q2 19 8 19q2 0 2 -7q-1 -5 2.5 -16.5t13.5 -23t27 -20.5t44 -9t54 9.5t49 24t36 30.5t15 29q1 8 -13 12.5t-35 8.5l-45.5 9t-45 14.5t-33.5 25t-11 39.5q2 25 22 54t50 58.5t65 57t68 49t59.5 34.5t38.5 13q8 0 16.5 -4.5t15.5 -11.5t11 -15.5t3 -16.5
q-2 -19 -22.5 -51t-51.5 -65.5t-68 -63.5t-72 -47q-2 -1 -5 -1q-8 0 1 9q17 15 38 37.5t42 47.5l40.5 50t33 44.5t18 32t-3.5 12.5q-9 0 -32.5 -13t-53 -34t-62 -47.5t-60 -53.5t-45.5 -51t-20 -41q-1 -9 11.5 -14.5t31.5 -10t41 -9t40.5 -10t30.5 -14t11 -21.5q5 -2 9 -7
t6.5 -12t0.5 -20q-1 -12 -14.5 -30.5t-36 -36t-52 -30t-63.5 -12.5q-33 0 -55 12.5t-34.5 29.5t-17 33.5t-3.5 23.5zM200 313l-30.5 -24t-33.5 -28.5t-28 -28t-16 -24.5q19 20 39 39l35.5 34.5zM223 170l19 19l29.5 31t29.5 35t20 32l-41 -51l-33 -39t-24 -27z" />
    <glyph glyph-name="T" unicode="T" horiz-adv-x="277" 
d="M455 418q14 0 35.5 -1t42 -6.5t35.5 -17t17 -31.5q1 -10 -5 -10q-4 0 -4 6q-2 8 -16.5 13t-46.5 5q-10 0 -21 -0.5t-25 -1.5q-28 -2 -48.5 -5l-46.5 -7q2 -2 0 -5q-31 -34 -58.5 -73.5t-51 -80t-42.5 -79t-33 -71.5q0 -29 -10.5 -65.5t-26.5 -61.5q-1 -6 -5 -11
q-5 -12 -14 -12q-10 -1 -16.5 10.5t-9.5 26.5q-5 32 10.5 76.5t41.5 95.5q-9 25 -25 39t-35 22.5t-39.5 13.5t-37.5 11t-29 16t-15 28q-3 20 20.5 40t63.5 38.5t92.5 35.5t106.5 30t105.5 21.5t90.5 10.5zM-10 238q3 -20 25 -28.5t49.5 -17.5t55.5 -24t43 -47q21 38 45.5 75
l47.5 69t43 56t33 37q-78 -13 -141.5 -31t-108.5 -35.5t-69 -32t-23 -21.5zM284 369q17 2 33 5t30 5q24 4 45 7t25 3h4q6 0 8 -2l86 7q-9 1 -18 1.5t-19 0.5q-50 0 -98 -7.5t-96 -19.5zM65 299l184 53q-48 -6 -93.5 -21t-90.5 -32zM114 -22q21 56 47.5 111.5t58.5 105.5
q-35 -48 -63 -104t-43 -113zM142 -28l7 16.5t7 20.5l-9 -21.5t-6 -17.5q-4 -7 -6 -14q2 4 3.5 7.5z" />
    <glyph glyph-name="U" unicode="U" horiz-adv-x="550" 
d="M0 -17q0 37 19.5 78.5t49.5 81.5t67 77t72 65t64.5 44.5t43.5 16.5q17 0 23.5 -7t4.5 -17q3 -2 6 -5q2 -2 3.5 -6.5t1.5 -11.5q0 -10 -12.5 -37.5t-32 -63l-41.5 -74.5l-87 -145l145 131l67 61.5l71.5 66l72.5 67.5l70 67v-2q21 28 38 45.5t26 22.5q1 1 5 1
q5 0 11.5 -4.5t10.5 -11t4.5 -14t-6.5 -12.5q-85 -91 -138 -179.5t-82.5 -160.5t-40 -120.5t-10.5 -57.5t1.5 -13t3 -5.5t2.5 -3.5t1 -7t-5 -5q-8 0 -21.5 15t-13.5 43q0 45 17 100.5t44 113t59.5 112.5t63.5 100l-58.5 -57l-76 -73l-82.5 -79l-78.5 -73.5l-64 -57.5
t-39.5 -31q-1 -1 -3 -1q-4 0 -9 4.5t-9.5 10.5t-7 12.5t-1.5 9.5q2 2 15 23.5l31.5 53.5l40 69.5t39.5 72.5t30 62.5t12 38.5q-25 -11 -56.5 -35t-63 -55t-61.5 -66t-53.5 -69t-37.5 -64.5t-14 -52.5q0 -24 15 -24q11 0 24 9q2 1 6 1q5 0 7.5 -4.5t-5.5 -9.5
q-21 -13 -37 -13q-17 0 -25 8t-12 18q-4 11 -4 26zM413 -50q15 48 38 103q20 47 49 108t69 127q-37 -58 -69 -116q-27 -51 -52.5 -110t-34.5 -112zM174 14l31 44q12 20 23.5 41.5t16.5 38.5zM192 244q-11 -9 -26.5 -23t-32 -30.5t-32.5 -35t-30 -37.5l46 49l39.5 41.5
t35.5 35.5z" />
    <glyph glyph-name="Udieresis" unicode="&#xdc;" horiz-adv-x="550" 
d="M0 -17q0 37 19.5 78.5t49.5 81.5t67 77t72 65t64.5 44.5t43.5 16.5q17 0 23.5 -7t4.5 -17q3 -2 6 -5q2 -2 3.5 -6.5t1.5 -11.5q0 -10 -12.5 -37.5t-32 -63l-41.5 -74.5l-87 -145l145 131l67 61.5l71.5 66l72.5 67.5l70 67v-2q21 28 38 45.5t26 22.5q1 1 5 1
q5 0 11.5 -4.5t10.5 -11t4.5 -14t-6.5 -12.5q-85 -91 -138 -179.5t-82.5 -160.5t-40 -120.5t-10.5 -57.5t1.5 -13t3 -5.5t2.5 -3.5t1 -7t-5 -5q-8 0 -21.5 15t-13.5 43q0 45 17 100.5t44 113t59.5 112.5t63.5 100l-58.5 -57l-76 -73l-82.5 -79l-78.5 -73.5l-64 -57.5
t-39.5 -31q-1 -1 -3 -1q-4 0 -9 4.5t-9.5 10.5t-7 12.5t-1.5 9.5q2 2 15 23.5l31.5 53.5l40 69.5t39.5 72.5t30 62.5t12 38.5q-25 -11 -56.5 -35t-63 -55t-61.5 -66t-53.5 -69t-37.5 -64.5t-14 -52.5q0 -24 15 -24q11 0 24 9q2 1 6 1q5 0 7.5 -4.5t-5.5 -9.5
q-21 -13 -37 -13q-17 0 -25 8t-12 18q-4 11 -4 26zM413 -50q15 48 38 103q20 47 49 108t69 127q-37 -58 -69 -116q-27 -51 -52.5 -110t-34.5 -112zM174 14l31 44q12 20 23.5 41.5t16.5 38.5zM192 244q-11 -9 -26.5 -23t-32 -30.5t-32.5 -35t-30 -37.5l46 49l39.5 41.5
t35.5 35.5zM415 429q6 2 9 2q11 0 18.5 -9t1.5 -17q-5 -8 -16 -8q-10 0 -14 7q-3 5 -5 13t6 12zM511 425q4 -8 2 -15.5t-10 -12.5q-6 -2 -8 -2q-10 0 -17 9t-3 18q2 5 8 8t12 3q11 0 16 -8z" />
    <glyph glyph-name="V" unicode="V" horiz-adv-x="504" 
d="M337 352q17 0 26.5 -10.5t1.5 -17.5q-11 -9 -30.5 -33t-42 -56.5l-46.5 -70.5t-43 -75.5t-31 -71.5t-12 -58q22 0 62 24t86.5 63.5t94.5 89t87 101t64 99.5t25 84q0 10 -3 14.5t-7 7l-7 4.5t-3 6t6 4q20 0 31 -15.5t11 -32.5q0 -22 -12.5 -51.5t-29.5 -59.5t-35.5 -56.5
l-30.5 -42.5q5 7 11 13t11 13l20 24.5t19 26.5q-2 -6 -4 -9q-3 -11 -13 -25l-2 -4l37 58.5t30 61.5q-11 -45 -39.5 -95t-66.5 -98t-82.5 -92.5t-87.5 -77.5t-81.5 -53t-63.5 -20q-32 0 -45.5 17.5t-13.5 41.5q0 33 17.5 77t43 88.5t53.5 85.5t50 69l-47 -29.5l-62.5 -41
t-67.5 -49t-61.5 -52t-45 -50t-17.5 -44.5q0 -11 6.5 -14t14.5 -3q5 0 10.5 0.5t10.5 0.5q6 0 6 -3q0 -4 -10.5 -8.5t-24.5 -4.5q-16 0 -29.5 10t-13.5 38t24 61.5t61 67t81.5 65t86.5 55.5t75.5 38.5t47.5 14.5zM400 108l-18 -18q17 10 39.5 32.5t46.5 52t47.5 63.5t42 66
t30 59.5t11.5 44.5q0 12 -3 16q-1 1 -1.5 2t-1.5 2q0 -19 -15 -58.5t-44.5 -88t-73 -101.5t-100.5 -99zM-9 97q45 45 92 87t101 76q-24 -14 -52 -32.5t-55 -39.5t-49.5 -44.5t-36.5 -46.5z" />
    <glyph glyph-name="W" unicode="W" horiz-adv-x="583" 
d="M288 346q14 0 28 -11t16 -28q2 -18 -9 -55t-29 -82.5t-40.5 -95l-43.5 -92.5l45 59.5l49 63.5l42 51.5t24 25.5q3 3 5 3q0 1 1 1q14 0 23 -8t11 -18q0 -4 -4 -21.5t-8.5 -43.5t-7 -57t0.5 -63q1 -8 2.5 -12t3.5 -6q10 27 34.5 76.5t58 108.5t73.5 120t80.5 111t78.5 81.5
t67 31.5q12 0 18.5 -6.5t9 -15t1 -15t-6.5 -6.5q-4 0 -5.5 4.5t-2 10t-2 10t-4.5 4.5q-6 0 -26 -18t-48.5 -49.5t-62 -74.5t-66.5 -93q-27 -42 -52 -87.5t-46 -89.5t-38 -84.5t-29 -73.5q-1 -4 -7 -4q-9 0 -20 8.5t-13 22.5q0 2 0.5 5.5t1.5 8.5q-11 4 -25.5 20t-17.5 43
q-1 15 -1 33.5t1.5 38t4 38.5t6.5 34l-24 -32.5l-35.5 -48l-41 -56l-42 -57l-38 -50t-28.5 -35.5q-6 -10 -9 -10q-4 0 -13 4.5t-17 10.5t-12.5 13t-0.5 12q7 6 24 32.5t38 64.5t43.5 83t40.5 87t29 77.5t9 54.5q-42 -20 -89 -56.5t-86.5 -78t-64.5 -81.5t-22 -67
q1 -13 6 -17t11 -4q4 0 7.5 1t6.5 1t3 -2q0 -5 -6.5 -9t-16.5 -4q-11 0 -22.5 9t-14.5 34q-4 33 12 69t43.5 71.5t62 68t68.5 57.5t63 39.5t45 14.5zM499 116l54 89t64.5 96t71.5 92t74 75q-30 -21 -65.5 -60t-71.5 -87t-69 -101.5t-58 -103.5zM748 447q-60 -64 -103 -121
t-79 -117l96.5 129.5t85.5 108.5zM213 64q3 5 4.5 8.5t3.5 6.5q2 4 3 5q-3 -2 -11 -20l-20 -38l-25 -47t-26 -45.5t-23 -33.5q13 12 26.5 33.5t26 45.5l23.5 47zM231 64q15 35 28 71.5l25 72.5q-17 -35 -29.5 -71t-23.5 -73zM26 113q9 17 25 37.5t35 41.5t39 40t35 32
q-38 -29 -75 -68.5t-59 -82.5zM55 141l82 92l-33 -33q-14 -14 -27.5 -29.5t-21.5 -29.5z" />
    <glyph glyph-name="X" unicode="X" horiz-adv-x="309" 
d="M-12 -47q4 13 19.5 35t39 50t54 60t65.5 65q-2 33 -1.5 64.5t2.5 59.5q1 5 -2 5.5t-2 5.5q0 2 3 18.5t6 36.5t6.5 38.5t5.5 24.5q1 3 5 5t9 2t9 -2.5t2 -8.5q-1 -6 -3.5 -25t-4 -44.5t-3 -54.5t-1.5 -55v-20.5t1 -20.5q42 39 86 76t87 69.5t82 57t71 37.5q1 0 1.5 0.5
t1.5 0.5q6 0 12.5 -8t2.5 -13q-4 -6 -4 -13q0 -6 1.5 -10t-0.5 -4q-3 0 -9.5 3.5t-4.5 24.5q-50 -35 -104 -77l-104.5 -83.5t-116.5 -102.5q6 -94 25 -165.5t42 -119.5t47 -72t42 -24q22 0 33.5 12.5t16.5 23.5q2 3 4 3q7 0 5 -6q-7 -22 -23 -35t-44 -13q-41 0 -72.5 32.5
t-53 84.5t-35 117.5t-18.5 131.5q-42 -42 -80.5 -84.5t-67.5 -84.5q-2 -6 -6 -14t-10 -8t-13 8t-4 16zM198 182q0 -3 0.5 -6t0.5 -6l102 86l101 80l109 82q-105 -66 -182 -126.5t-131 -109.5zM192 105q10 -71 24 -132q6 -26 13.5 -53t17 -51t20.5 -43.5t23 -30.5
q-18 26 -35 69q-15 36 -32 95t-31 146zM69 50l31 21q11 14 28 32t39 38v11q-48 -45 -72 -72.5t-26 -29.5z" />
    <glyph glyph-name="Y" unicode="Y" horiz-adv-x="478" 
d="M-32 1q0 43 21.5 87t54.5 86t72.5 79t75 64.5t62.5 43.5t34 16q16 0 18.5 -11t-5.5 -20l-12 -18t-23 -37.5l-28 -50.5t-27.5 -56.5t-20.5 -55.5t-8 -48q0 -24 9 -24q17 0 44.5 18.5t59.5 47.5t66.5 64l64.5 68l53 59.5l33 38.5q13 27 21 48t13 33q2 3 5 3q7 0 15 -6.5
t4 -15.5q-2 -6 -18.5 -45t-42.5 -95.5l-59 -123.5t-69 -131q22 -6 37 -15.5t24 -20.5t13 -21.5t4 -17.5q0 -10 -5 -10q-4 0 -4 6q0 14 -20.5 26.5t-69.5 14.5q-24 -40 -47 -74.5t-44.5 -60t-41 -40.5t-35.5 -15q-9 0 -20 3t-21 11t-17 22t-7 36q0 30 19.5 59t50 51.5
t67.5 36t72 13.5h4q40 67 78 138.5t68 134.5l-42 -46l-53.5 -56.5l-58.5 -58.5t-57 -52t-49.5 -37t-35.5 -14q-20 0 -29.5 19t-9.5 46q0 42 16 89.5t41 81.5q-43 -35 -81.5 -73t-67 -76.5t-45.5 -75.5t-17 -70q0 -16 3 -23t7 -9.5t7 -3t3 -3.5q0 -4 -9 -4q-5 0 -12 3t-13 11
t-10.5 21.5t-4.5 35.5zM145 -143q0 -11 5 -20t24 -9q12 0 27.5 11.5t33.5 31.5t37.5 48l40.5 60q-28 -5 -58 -16.5t-54.5 -27.5t-40 -36t-15.5 -42zM477 251l-30 -60l-39.5 -74.5l-46 -81t-51 -80.5t-54 -73.5t-53.5 -59.5q34 21 69.5 66t70.5 104t69 126.5zM493 284
q2 4 3 7t2 5q1 1 1 1.5t1 1.5q-4 -6 -7 -15z" />
    <glyph glyph-name="Z" unicode="Z" horiz-adv-x="322" 
d="M292 -27q36 -6 59 -18t36 -27t17 -33t2 -37q-1 -9 -5 -9q-6 0 -4 9q0 3 -2.5 9.5t-10 14.5t-21.5 16t-37 16q-15 12 -41.5 16.5t-56.5 4.5q-23 0 -44.5 -2t-38.5 -4q-21 -2 -39 -5q-46 -8 -89.5 -19.5t-78.5 -26.5q-1 -1 -3 -1q-5 0 -8.5 10.5t-1.5 19.5q1 4 6 10
q-3 15 11 25q4 2 31.5 18.5t69 44.5t92.5 66.5t103.5 84.5t101.5 98.5t86 109.5q-8 2 -15 2h-15q-48 0 -105 -20t-126 -55q-1 -1 -2 -1q-5 0 -8.5 10.5t2.5 15.5q8 8 32 22.5t57 28.5t71 24t72 10q15 0 30 -3q17 -2 23 -12.5t4 -25.5q-3 -24 -24 -56t-53.5 -67.5t-73.5 -73
t-84.5 -73.5l-86 -68l-78.5 -57q32 8 69 12t77 4q25 0 50 -1.5t50 -6.5zM256 363q30 10 59.5 15.5t52.5 7.5q27 4 52 5q-5 1 -10.5 1.5t-11.5 0.5q-23 0 -47.5 -4.5t-45.5 -10.5q-25 -7 -49 -15zM286 169l-95 -77l-39.5 -31l-39.5 -30.5l-36.5 -27l-30.5 -21.5q41 25 83 55
q35 25 77.5 59t80.5 73zM104 -58q29 4 54 5.5t48 1.5q55 0 91 -8t58 -18q25 -11 39 -25q-7 21 -25 37t-52 21q-28 5 -56 7t-54 2q-38 0 -71 -3t-59 -7q-29 -4 -54 -10q9 1 16.5 1h15.5q12 0 21 -0.5t16 -1.5t12 -2z" />
    <glyph glyph-name="a" unicode="a" horiz-adv-x="268" 
d="M273 64q-21 -26 -41 -46q-17 -17 -35 -31.5t-30 -14.5q-19 0 -30 15.5t-11 34.5q0 17 9.5 42t21.5 48l-35 -34l-44.5 -41l-40.5 -35t-23 -15q-8 0 -20 11t-12 29q0 22 16.5 52.5t41 58.5t54 47.5t55.5 19.5q14 0 21.5 -5t11 -12.5t4 -16t-1.5 -16.5q6 7 9 7
q7 0 14.5 -7.5t7.5 -17.5q0 -1 -4.5 -8.5l-10.5 -18l-13 -22l-13 -21.5q-4 -9 -8 -20.5t-6.5 -21t-2 -16.5t4.5 -7q7 0 24 12.5t35 27.5l47 40zM12 82l39 45q16 18 33.5 35.5t29.5 25.5q4 2 5 3q-1 -1 -5 -3q-16 -10 -32 -23.5t-29.5 -28.5t-24 -29t-16.5 -25zM28 24
q1 0 19.5 14.5l42.5 33.5l47 37.5l34 27.5q-5 2 -8.5 5t-3.5 8q0 2 1 6t2 8.5t0 8t-4 3.5q-8 0 -21.5 -9.5t-28.5 -24t-30 -32.5t-27 -36q-13 -20 -19 -35t-4 -15z" />
    <glyph glyph-name="a.ss01" horiz-adv-x="233" 
d="M174 15q0 -8 5.5 -9.5t5.5 -5.5q0 -6 -7 -6q-10 0 -23 10.5t-13 29.5q0 16 2.5 30t5.5 25l8 25l-35 -34l-44.5 -41l-40.5 -35t-23 -15q-8 0 -20 11t-12 29q0 22 16.5 52.5t41 58.5t54 47.5t55.5 19.5q14 0 21.5 -5t11 -12.5t4 -16t-1.5 -16.5q6 7 9 7q7 0 14.5 -7.5
t7.5 -17.5q0 -1 -6.5 -14.5t-14.5 -32t-14.5 -39.5t-6.5 -38zM13 84l39 45q16 18 33.5 35.5t29.5 25.5q4 2 5 3q-1 -1 -5 -3q-16 -10 -32 -23.5t-29.5 -28.5t-24 -29t-16.5 -25zM29 26q1 0 19.5 14.5l42.5 33.5l47 37.5l34 27.5q-5 2 -8.5 5t-3.5 8q0 2 1 6t2 8.5t0 8
t-4 3.5q-8 0 -21.5 -9.5t-28.5 -24t-30 -32.5t-27 -36q-13 -20 -19 -35t-4 -15z" />
    <glyph glyph-name="aacute" unicode="&#xe1;" horiz-adv-x="268" 
d="M273 64q-21 -26 -41 -46q-17 -17 -35 -31.5t-30 -14.5q-19 0 -30 15.5t-11 34.5q0 17 9.5 42t21.5 48l-35 -34l-44.5 -41l-40.5 -35t-23 -15q-8 0 -20 11t-12 29q0 22 16.5 52.5t41 58.5t54 47.5t55.5 19.5q14 0 21.5 -5t11 -12.5t4 -16t-1.5 -16.5q6 7 9 7
q7 0 14.5 -7.5t7.5 -17.5q0 -1 -4.5 -8.5l-10.5 -18l-13 -22l-13 -21.5q-4 -9 -8 -20.5t-6.5 -21t-2 -16.5t4.5 -7q7 0 24 12.5t35 27.5l47 40zM12 82l39 45q16 18 33.5 35.5t29.5 25.5q4 2 5 3q-1 -1 -5 -3q-16 -10 -32 -23.5t-29.5 -28.5t-24 -29t-16.5 -25zM28 24
q1 0 19.5 14.5l42.5 33.5l47 37.5l34 27.5q-5 2 -8.5 5t-3.5 8q0 2 1 6t2 8.5t0 8t-4 3.5q-8 0 -21.5 -9.5t-28.5 -24t-30 -32.5t-27 -36q-13 -20 -19 -35t-4 -15zM159 321q2 2 4 2q6 0 12 -9.5t4 -16.5q-2 -6 -10 -13t-18.5 -13.5t-22.5 -11t-23 -4.5q-15 0 -16 8t4 8
q6 0 15 5.5t18.5 13t18 16.5z" />
    <glyph glyph-name="acircumflex" unicode="&#xe2;" horiz-adv-x="268" 
d="M273 64q-21 -26 -41 -46q-17 -17 -35 -31.5t-30 -14.5q-19 0 -30 15.5t-11 34.5q0 17 9.5 42t21.5 48l-35 -34l-44.5 -41l-40.5 -35t-23 -15q-8 0 -20 11t-12 29q0 22 16.5 52.5t41 58.5t54 47.5t55.5 19.5q14 0 21.5 -5t11 -12.5t4 -16t-1.5 -16.5q6 7 9 7
q7 0 14.5 -7.5t7.5 -17.5q0 -1 -4.5 -8.5l-10.5 -18l-13 -22l-13 -21.5q-4 -9 -8 -20.5t-6.5 -21t-2 -16.5t4.5 -7q7 0 24 12.5t35 27.5l47 40zM12 82l39 45q16 18 33.5 35.5t29.5 25.5q4 2 5 3q-1 -1 -5 -3q-16 -10 -32 -23.5t-29.5 -28.5t-24 -29t-16.5 -25zM28 24
q1 0 19.5 14.5l42.5 33.5l47 37.5l34 27.5q-5 2 -8.5 5t-3.5 8q0 2 1 6t2 8.5t0 8t-4 3.5q-8 0 -21.5 -9.5t-28.5 -24t-30 -32.5t-27 -36q-13 -20 -19 -35t-4 -15zM219 273q5 -1 6 -3.5t1 -4.5q-1 -2 -3 -4t-9 -2q-14 0 -30.5 10t-24.5 30l-23 -16l-20.5 -12t-18.5 -8
q-2 -1 -6 -1q-5 0 -7 3q-5 5 2 10q5 3 14.5 9.5t20 14.5l20 15.5t13.5 11.5l1 4q4 4 12 4q7 0 8 -3l2 -2t3 -6q3 -4 7.5 -12t10 -16t11 -14t10.5 -8z" />
    <glyph glyph-name="acute" unicode="&#xb4;" horiz-adv-x="98" 
d="M73 321q2 2 4 2q6 0 12 -9.5t4 -16.5q-2 -6 -10 -13t-18.5 -13.5t-22.5 -11t-23 -4.5q-15 0 -16 8t4 8q6 0 15 5.5t18.5 13t18 16.5z" />
    <glyph glyph-name="adieresis" unicode="&#xe4;" horiz-adv-x="268" 
d="M273 64q-21 -26 -41 -46q-17 -17 -35 -31.5t-30 -14.5q-19 0 -30 15.5t-11 34.5q0 17 9.5 42t21.5 48l-35 -34l-44.5 -41l-40.5 -35t-23 -15q-8 0 -20 11t-12 29q0 22 16.5 52.5t41 58.5t54 47.5t55.5 19.5q14 0 21.5 -5t11 -12.5t4 -16t-1.5 -16.5q6 7 9 7
q7 0 14.5 -7.5t7.5 -17.5q0 -1 -4.5 -8.5l-10.5 -18l-13 -22l-13 -21.5q-4 -9 -8 -20.5t-6.5 -21t-2 -16.5t4.5 -7q7 0 24 12.5t35 27.5l47 40zM12 82l39 45q16 18 33.5 35.5t29.5 25.5q4 2 5 3q-1 -1 -5 -3q-16 -10 -32 -23.5t-29.5 -28.5t-24 -29t-16.5 -25zM28 24
q1 0 19.5 14.5l42.5 33.5l47 37.5l34 27.5q-5 2 -8.5 5t-3.5 8q0 2 1 6t2 8.5t0 8t-4 3.5q-8 0 -21.5 -9.5t-28.5 -24t-30 -32.5t-27 -36q-13 -20 -19 -35t-4 -15zM88 303q6 2 9 2q11 0 18.5 -9t1.5 -17q-5 -8 -16 -8q-10 0 -14 7q-3 5 -5 13t6 12zM184 299q4 -8 2 -15.5
t-10 -12.5q-6 -2 -8 -2q-10 0 -17 9t-3 18q2 5 8 8t12 3q11 0 16 -8z" />
    <glyph glyph-name="ae" unicode="&#xe6;" horiz-adv-x="336" 
d="M233 171q-10 -7 -27 -24.5t-32.5 -37t-27 -37t-11.5 -25.5q0 -2 -2 -2q-3 0 -7.5 5.5t-4.5 16.5q0 14 11 33.5t26 39.5q-17 -12 -39.5 -30l-44 -35l-38 -29t-22.5 -12q-8 0 -14.5 6t-6.5 18q0 21 19 47t44.5 48t51.5 37t41 15q18 0 26 -10.5t9 -22.5q13 13 23.5 21.5
t15.5 8.5q7 0 10.5 -4t4 -9.5t-1 -10.5t-3.5 -7zM167 157q5 14 4 23t-9 9q-18 0 -44 -20t-49 -44t-37.5 -44t-8.5 -20q1 0 16 10.5l36.5 25.5l46 31.5t45.5 28.5zM341 64q-22 -26 -45 -46q-20 -17 -44 -31.5t-48 -14.5q-29 0 -40.5 18t-11.5 34q0 31 19 63.5t44 59.5
t49.5 44t35.5 17t14.5 -2.5t4.5 -6.5t-1 -9q3 0 5 -2q4 -4 4 -13q0 -5 -5 -20t-14 -31.5t-22.5 -29t-30.5 -12.5q-19 0 -28.5 8t-12.5 16q-17 -21 -29 -44t-12 -44q0 -5 0.5 -11.5t14.5 -6.5q17 0 42.5 13t48.5 28q28 18 57 41zM303 181q-4 0 -13 -5.5t-21 -15t-25.5 -22
t-25.5 -27.5q3 -2 8 -4t14 -2q12 0 25 12t23 26t15 26t0 12zM265 21q4 3 7.5 6t8.5 6l-17 -10l-9 -5.5t-9 -4.5q-9 -5 -17 -8q-10 -5 -19 -8q10 3 19 6t18 8q5 2 9 5t9 5z" />
    <glyph glyph-name="agrave" unicode="&#xe0;" horiz-adv-x="268" 
d="M273 64q-21 -26 -41 -46q-17 -17 -35 -31.5t-30 -14.5q-19 0 -30 15.5t-11 34.5q0 17 9.5 42t21.5 48l-35 -34l-44.5 -41l-40.5 -35t-23 -15q-8 0 -20 11t-12 29q0 22 16.5 52.5t41 58.5t54 47.5t55.5 19.5q14 0 21.5 -5t11 -12.5t4 -16t-1.5 -16.5q6 7 9 7
q7 0 14.5 -7.5t7.5 -17.5q0 -1 -4.5 -8.5l-10.5 -18l-13 -22l-13 -21.5q-4 -9 -8 -20.5t-6.5 -21t-2 -16.5t4.5 -7q7 0 24 12.5t35 27.5l47 40zM12 82l39 45q16 18 33.5 35.5t29.5 25.5q4 2 5 3q-1 -1 -5 -3q-16 -10 -32 -23.5t-29.5 -28.5t-24 -29t-16.5 -25zM28 24
q1 0 19.5 14.5l42.5 33.5l47 37.5l34 27.5q-5 2 -8.5 5t-3.5 8q0 2 1 6t2 8.5t0 8t-4 3.5q-8 0 -21.5 -9.5t-28.5 -24t-30 -32.5t-27 -36q-13 -20 -19 -35t-4 -15zM109 322q6 -7 14.5 -16t18 -17t18.5 -13.5t16 -5.5q5 0 4.5 -8t-15.5 -8q-12 0 -24.5 4.5t-23.5 11.5t-19 14
t-10 13q-3 8 4 17.5t13 9.5q2 0 4 -2z" />
    <glyph glyph-name="ampersand" unicode="&#x26;" horiz-adv-x="496" 
d="M23 -41q0 23 10 45.5t26 43.5t36.5 39.5t42.5 33.5q-10 8 -16 21t-6 34q0 19 11.5 41.5t31 45.5t44 45t50.5 39t51.5 27.5t45.5 10.5q9 0 15.5 -5t10.5 -12t5.5 -14.5t1.5 -12.5q0 -21 -21.5 -48.5t-50 -52.5t-55.5 -42t-38 -17q-16 0 -19 9t-2 14q0 3 3 3q3 -3 6 -3
q4 0 17 8t30.5 21t36 29t34.5 32t26 30t10 23q0 5 -1 7.5t-9 2.5q-18 0 -41 -10.5t-47 -27.5t-47 -38.5t-41 -43.5t-29 -41.5t-11 -33.5q0 -22 20 -30q8 5 19.5 11.5t23.5 12t24.5 9.5t22.5 4q5 0 15.5 -2.5t10.5 -15.5q0 -8 -7.5 -17t-18 -17t-22 -13t-20.5 -5q-8 0 -13 1
t-8 3q-4 1 -5 3q-36 -22 -64 -48q-25 -23 -45 -52.5t-20 -62.5q0 -16 13.5 -27.5t52.5 -11.5q44 0 82.5 18t68 44.5t48 57t22.5 56.5q-48 -8 -90 -22.5t-64 -36.5q-6 -5 -6 -7.5t-3 -2.5q-4 0 -10 6t-6 16q0 9 18 23.5t52.5 28.5t86 24t118.5 10q30 0 49.5 -10t19.5 -24
q0 -9 -6.5 -11.5t-12.5 -2.5q-4 0 -6 1h-2q-3 1 -2 3.5t3 4.5t3.5 4t-1.5 2q-4 1 -10 1q-5 1 -12 1h-16q-19 0 -40 -1t-42 -4v-7q0 -36 -20 -72t-52.5 -65.5t-73.5 -48t-84 -18.5q-14 0 -32 3t-33.5 12.5t-26 26.5t-10.5 45zM344 69q-8 -28 -24 -54q-14 -23 -37.5 -48
t-60.5 -42q29 11 54 30q21 17 41 44.5t27 69.5zM202 295l65 48q-13 -7 -25 -15q-11 -7 -21.5 -15.5t-18.5 -17.5zM345 97q53 6 105 6q-8 2 -16.5 2h-17.5q-19 0 -39 -2t-38 -4q2 -1 3 -1t3 -1zM335 96l2 2q-9 -2 -17 -3t-14 -3q-7 -2 -12 -3l21 4t20 3z" />
    <glyph glyph-name="asciicircum" unicode="^" 
d="M184 273q5 -1 6 -3.5t1 -4.5q-1 -2 -3 -4t-9 -2q-14 0 -30.5 10t-24.5 30l-23 -16l-20.5 -12t-18.5 -8q-2 -1 -6 -1q-5 0 -7 3q-5 5 2 10q5 3 14.5 9.5t20 14.5l20 15.5t13.5 11.5l1 4q4 4 12 4q7 0 8 -3l2 -2t3 -6q3 -4 7.5 -12t10 -16t11 -14t10.5 -8z" />
    <glyph glyph-name="asciitilde" unicode="~" horiz-adv-x="207" 
d="M35 286q-5 0 -7.5 4.5t-1 10t7.5 10t16 4.5q11 0 20 -2t18 -4.5t19 -4.5t22 -2q7 0 9.5 1.5t4 3t2 3t2.5 1.5q5 0 7 -5t-0.5 -10.5t-9 -10.5t-19.5 -5q-25 0 -42 8t-36 8q-9 0 -8.5 -5t-3.5 -5z" />
    <glyph glyph-name="asterisk" unicode="*" horiz-adv-x="160" 
d="M210 320q4 0 7 -2t-2 -3q-17 -8 -36 -18l-37 -20q-2 -2 -2 -5q5 -10 10.5 -17.5t13.5 -9.5q9 -4 9 -9q0 -3 -7 -3q-4 0 -7 1q-9 1 -15.5 5.5t-11.5 11.5q-2 -5 -3 -9.5t-1 -6.5q0 -6 1 -7.5t1 -3.5q0 -5 -7 -5q-5 0 -10 3.5t-5 12.5q0 5 1 11.5t4 14.5l-28 -18t-13 -8
q-1 -1 -5 -1q-5 0 -9 2t-3 5q2 4 20 13.5t41 20.5q-5 16 -6.5 30.5t-1.5 17.5q-2 2 3.5 3t8.5 1q1 0 1 -2v-4q3 -7 5 -13.5l4 -13.5q14 23 29.5 41.5t20.5 21.5q1 0 1.5 0.5t1.5 0.5q4 0 4.5 -3.5t-1.5 -5.5q-8 -10 -18 -25.5t-19 -32.5l39.5 19t21.5 10z" />
    <glyph glyph-name="at" unicode="@" horiz-adv-x="341" 
d="M270 267q10 0 20 -2t18.5 -8t14 -17t5.5 -29q0 -30 -12.5 -69t-32 -74.5t-42 -59.5t-42.5 -24q-7 0 -12.5 4.5t-9.5 10.5t-5.5 12t-1.5 9q0 7 3.5 18t7.5 22l11 28l-48 -47l-34.5 -34t-19.5 -18q-2 -2 -4 -2q-8 0 -17.5 9t-9.5 19q0 19 14 44t33.5 47.5t39.5 38t33 15.5
q14 0 20.5 -5t10.5 -12q3 -7 4 -17q1 3 3 6q5 5 8 5t6 -3t5.5 -7.5t3.5 -9.5t-1 -8l-18.5 -35t-16.5 -32.5t-10.5 -24t-1.5 -9.5q9 0 29.5 22.5t41.5 55.5t37 71t16 70q0 15 -8 25t-27 10q-29 0 -60.5 -12t-61.5 -33t-57.5 -49t-48 -60t-32.5 -66.5t-12 -68.5q0 -37 11 -51
t30 -14q15 0 12 -5.5t-10 -5.5q-37 0 -53 26t-16 68q0 63 30.5 114t74.5 87t93.5 55.5t88.5 19.5zM-6 -1q9 36 25 71q14 30 37 64t58 61q-32 -24 -57 -54q-22 -26 -41.5 -62t-21.5 -80zM159 231q-16 -8 -29.5 -17l-24.5 -17q-12 -9 -22 -19zM192 108q2 10 3 17q0 7 -1.5 12
t-6.5 5q-11 0 -28 -17t-33 -38t-26.5 -39.5t-7.5 -21.5q2 -2 18 10.5t34 28.5q22 18 48 43zM317 188q-2 -9 -5 -19l-7 -19.5t-9 -23.5q5 8 9 17q4 8 7.5 19.5t4.5 25.5zM247 26q12 14 22 30t17 30q8 16 15 32z" />
    <glyph glyph-name="b" unicode="b" horiz-adv-x="265" 
d="M293 438q5 0 9 -7.5t-2 -10.5q-13 -8 -29 -24.5t-30 -34.5l-25 -33t-14 -21q-4 -5 -6.5 -6.5t-4.5 -2t-3.5 -1.5t-4.5 -4t-19.5 -28.5l-39.5 -62.5l-49 -81l-48 -84q20 29 54 64t68 65.5t60.5 51.5t31.5 21q11 0 21.5 -10.5t11.5 -20.5q1 -9 -5 -30t-17 -47.5t-27 -54.5
t-35.5 -51t-42 -38t-47.5 -15q-21 0 -33.5 14.5t-17.5 27.5q-4 -5 -10.5 -16.5t-8.5 -16.5q-1 -2 -3 -2q-1 0 -2 1t-3 1q-3 0 -7 -4t-9 -4q-10 0 -17.5 12.5t-8.5 29.5q-4 17 13 54.5t47 84t67.5 96t73.5 91t66.5 69t45.5 28.5zM80 13q21 0 43 14.5t41.5 36.5t36 48t28 48
t15.5 36.5t-1 14.5q-4 0 -25.5 -17t-50.5 -44t-60 -61t-53 -67q4 -3 9.5 -6t16.5 -3zM98 105q8 8 16 15t16 15t16.5 15t16.5 15l66 59q-35 -25 -69 -56t-62 -63zM99 219l30.5 42.5l30.5 42.5q-25 -30 -48.5 -62t-43.5 -65q-8 -11 -14.5 -22l-13.5 -22q8 11 14.5 22t14.5 21
q8 11 15 22t15 21z" />
    <glyph glyph-name="backslash" unicode="\" horiz-adv-x="205" 
d="M133 -73q-4 4 -3 13q5 9 -2.5 47t-25 95t-43.5 127.5t-58 145.5q-2 7 0 9t7 3q8 0 12 -10q2 -2 2 -4q-1 -1 -2 -1q48 -96 77.5 -169t44 -123.5t17 -80t-3.5 -38.5q-8 -14 -22 -14z" />
    <glyph glyph-name="bar" unicode="|" horiz-adv-x="122" 
d="M68 471q10 0 13.5 -9.5t1.5 -14.5q-1 -3 -3.5 -15t-4 -43t-3 -84.5t-1.5 -137.5q0 -85 0.5 -143.5t1.5 -95.5l1.5 -54.5t0.5 -20.5q0 -5 -4.5 -8t-9.5 -3t-9 4q-6 6 -5.5 92t0.5 236q0 149 7.5 223t13.5 74zM54 -25q4 105 7 193q2 38 3 75.5t1.5 70.5t0 57.5t-1.5 36.5
q-3 -47 -5 -111q-2 -56 -3.5 -136t-1.5 -186z" />
    <glyph glyph-name="braceleft" unicode="{" horiz-adv-x="257" 
d="M336 495q9 0 7.5 -6.5t-9.5 -11.5q-24 -15 -43 -43t-34.5 -61t-29 -68t-27 -64.5t-28 -50t-32.5 -24.5q3 -2 6 -8q2 -5 3.5 -13.5t-0.5 -22.5q-3 -27 -17.5 -63t-31.5 -73l-31.5 -71t-16.5 -58q0 -6 1.5 -8.5t3 -3.5t3 -3t1.5 -6q0 -7 -13 -7q-12 0 -27 10.5t-13 35.5
q2 17 17 50l33 72.5t34 80.5t19 74q0 5 -7.5 4.5t-6.5 6.5q0 2 2 4.5t4 2.5q17 0 32 24t30 60l31.5 78.5t36.5 78.5t45 60t58 24zM21 -125l49 107l18 42.5t16 41t11 35.5t4 25q-4 -24 -20 -63l-33 -77.5l-30.5 -69.5t-14.5 -41z" />
    <glyph glyph-name="braceright" unicode="}" horiz-adv-x="257" 
d="M-67 -179q-9 0 -7.5 6.5t9.5 11.5q24 15 43 43t34.5 61t29 68t27 64.5t28 50t32.5 24.5q-3 2 -6 8q-2 5 -3 13.5t0 22.5q3 27 17.5 63t31.5 73l31.5 71t16.5 58q0 6 -1.5 8.5t-3 3.5t-3 3t-1.5 6q0 7 13 7q12 0 27 -10.5t13 -35.5q-1 -17 -16.5 -50l-33.5 -72.5
t-34 -80.5t-19 -74q0 -5 7.5 -4.5t6.5 -6.5q0 -2 -2 -4.5t-4 -2.5q-17 0 -32 -24t-30 -60l-31.5 -78.5t-36.5 -78.5t-45 -60t-58 -24zM248 441l-49 -107l-18 -42.5t-15.5 -41t-11 -35.5t-4.5 -25q3 16 11.5 39l19 49l22 52l21.5 48.5l17 39.5t7 23z" />
    <glyph glyph-name="bracketleft" unicode="[" horiz-adv-x="249" 
d="M-5 -92q0 39 13 84t35 93t50 96t58 93t60.5 85l55.5 71q0 7 10.5 14.5t26.5 14t33.5 10.5t30.5 4t18 -10.5t5 -13.5q0 -5 -1 -9t-6 -4q-23 0 -47.5 -7.5t-45.5 -17.5q-15 -14 -31 -34t-29 -39l-22 -33t-10 -16q-1 -4 -4 -4q-1 0 -1.5 0.5t-1.5 0.5l-1 1
q-30 -39 -60.5 -95t-55 -112.5t-40 -106t-15.5 -75.5q39 0 61 3t33 6t14 6t4 3q2 0 5 -4t3 -12q0 -3 -10 -12t-24 -18.5t-30 -16.5t-28 -7q-23 0 -38 13t-15 49zM12 -42l27 75q11 32 26 68t30 65l9 16l7 12q2 4 6 10q-12 -16 -22 -38q-10 -18 -22 -42t-23.5 -51t-21.5 -56.5
t-16 -58.5z" />
    <glyph glyph-name="bracketright" unicode="]" horiz-adv-x="263" 
d="M272 442q0 -15 -10 -47.5t-26.5 -75l-37.5 -92l-43 -98.5q-51 -115 -117 -251q1 -1 1 -3q1 -1 1 -5q0 -2 -7.5 -9t-21 -14.5t-31.5 -14t-39 -6.5q-9 0 -19.5 8.5t-10.5 21.5q0 7 6 11.5t11 4.5q6 0 9 -2.5t14 -2.5q14 0 22.5 1.5t13.5 3.5q7 2 10 5l99 207l40.5 91
l39.5 94l35.5 91.5t27.5 81.5q-19 0 -36.5 -5t-32 -12t-25.5 -14.5t-16 -12.5q-2 -2 -5 -2q-6 0 -12.5 5.5t-6.5 16.5q0 9 13.5 18.5t33.5 18t43.5 14t42.5 5.5q16 0 25 -9t9 -23zM23 -116q1 1 12 26l27.5 62.5l35.5 82l36 84t28.5 69t13.5 36.5l-162 -364h3q5 3 6 4z" />
    <glyph glyph-name="breve" unicode="&#x2d8;" horiz-adv-x="178" 
d="M155 335q0 3 5 3t11.5 -3.5t6.5 -9.5q0 -7 -6.5 -18.5t-17 -21.5t-24.5 -17.5t-29 -7.5q-10 0 -15 7q-6 1 -10 5q-4 3 -7 8.5t-3 14.5q0 3 2.5 9.5t6.5 13.5t8.5 12t8.5 5q7 0 13.5 -5.5t1.5 -10.5q-18 -15 -18 -29q0 -4 5 -4q17 0 28 7.5t19 17.5t14 24z" />
    <glyph glyph-name="bullet" unicode="&#x2022;" horiz-adv-x="129" 
d="M38 147q8 2 12 2q18 0 24 -21q2 -7 -0.5 -13.5t-8 -10.5t-13 -6.5t-13.5 -2.5q-12 0 -15 8q-5 14 0.5 28t13.5 16z" />
    <glyph glyph-name="c" unicode="c" horiz-adv-x="186" 
d="M41 -24q-26 0 -39.5 19.5t-13.5 38.5q0 34 21 66t48 56.5t51.5 39.5t31.5 15q9 0 16 -8t7 -16q0 -4 -8.5 -14.5l-19 -23.5l-19.5 -25t-9 -19q0 -3 -1 -7.5t-3 -4.5q-6 0 -10.5 5t-4.5 17q0 14 3.5 25t8.5 19q5 9 12 16q-29 -25 -51 -51q-20 -23 -36 -50t-16 -54
q0 -7 5 -11t19 -4q21 0 47.5 12t50.5 27q27 16 55 38l4 -18q-23 -25 -47 -44q-22 -17 -48.5 -30.5t-53.5 -13.5z" />
    <glyph glyph-name="caron" unicode="&#x2c7;" 
d="M70 314q-6 1 -6 6q2 4 9 4q10 0 22.5 -7t18.5 -22l18 12q8 5 16 9t13 6q1 0 2 0.5t2 0.5q5 0 6 -3q3 -3 -2 -7q-3 -2 -10 -7.5t-15.5 -11.5t-15.5 -11.5t-10 -8.5l-1 -3q-3 -3 -9 -3q-5 0 -5 2q-2 2 -4 7l-5.5 8.5l-7.5 11.5t-8.5 11t-7.5 6z" />
    <glyph glyph-name="ccedilla" unicode="&#xe7;" horiz-adv-x="186" 
d="M41 -24q-26 0 -39.5 19.5t-13.5 38.5q0 34 21 66t48 56.5t51.5 39.5t31.5 15q9 0 16 -8t7 -16q0 -4 -8.5 -14.5l-19 -23.5l-19.5 -25t-9 -19q0 -3 -1 -7.5t-3 -4.5q-6 0 -10.5 5t-4.5 17q0 14 3.5 25t8.5 19q5 9 12 16q-29 -25 -51 -51q-20 -23 -36 -50t-16 -54
q0 -7 5 -11t19 -4q21 0 47.5 12t50.5 27q27 16 55 38l4 -18q-23 -25 -47 -44q-22 -17 -48.5 -30.5t-53.5 -13.5zM88 -13q-6 -7 -10.5 -14l-8.5 -13q-4 -7 -7 -14q3 1 7 2q8 2 14 2q9 0 16 -4t7 -16q0 -14 -7 -26.5t-17.5 -23t-23.5 -16.5t-24 -6q-12 0 -18.5 6t-6.5 14
t3.5 11t5.5 3q4 0 2 -2q-2 -3 -1 -6q0 -6 17 -6q9 0 20 5.5t20.5 13.5t16 17t6.5 17q0 11 -11 11q-18 0 -31.5 -10t-16.5 -14q-1 -1 -2 -1q-3 0 -5.5 4t-2.5 9q0 7 7 17t15 20q10 11 22 22z" />
    <glyph glyph-name="cedilla" unicode="&#xb8;" horiz-adv-x="156" 
d="M59 -13q-6 -7 -10.5 -14l-8.5 -13q-4 -7 -7 -14q3 1 7 2q8 2 14 2q9 0 16 -4t7 -16q0 -14 -7 -26.5t-17.5 -23t-23.5 -16.5t-24 -6q-12 0 -18.5 6t-6.5 14t3.5 11t5.5 3q4 0 2 -2q-2 -3 -1 -6q0 -6 17 -6q9 0 20 5.5t20.5 13.5t16 17t6.5 17q0 11 -11 11q-18 0 -31.5 -10
t-16.5 -14q-1 -1 -2 -1q-3 0 -5.5 4t-2.5 9q0 7 7 17t15 20q10 11 22 22z" />
    <glyph glyph-name="cent" unicode="&#xa2;" horiz-adv-x="228" 
d="M179 129q0 3 4 3q6 0 17.5 -9t11.5 -26q0 -12 -15 -35t-39 -46t-54 -40t-60 -17q-15 0 -26 6q-8 -16 -14 -29.5l-11 -25.5h2q3 0 3 -3q0 -4 -5 -4q-3 0 -6.5 3t-3.5 11q0 13 25 55q-15 13 -15 37q0 23 19 52.5t45 57t53.5 49.5t44.5 29q18 25 31.5 40t18.5 15
q10 0 6 -7.5t-9 -10.5q-2 -2 -4 -3t-4 -3q-3 -1 -5 -2q-3 -3 -21 -26q9 -1 11.5 -7t2.5 -11q0 -7 -8 -17.5l-17.5 -22t-17.5 -24t-8 -24.5q2 1 4 1q3 3 3 0q0 -2 -1.5 -7t-7.5 -5q-4 0 -7 3q-2 2 -4.5 6.5t-2.5 13.5q0 12 5 25l-48 -74t-45 -75q2 -1 8 -1q24 0 50.5 16
t49.5 37.5t38 44t15 34.5q0 9 -4.5 10t-4.5 6zM54 105q-10 -10 -18 -21q-8 -9 -14.5 -20.5t-8.5 -23.5q9 15 16 28l14 22t11 15zM17 -12q21 36 50 81l57 85q-11 -10 -29.5 -29t-36 -41.5t-30.5 -46t-13 -43.5q0 -5 2 -6zM206 95q-2 -4 -8 -14.5t-14 -21.5l-18 -28
q14 16 21.5 28l12.5 20q4 9 6 16z" />
    <glyph glyph-name="circumflex" unicode="&#x2c6;" 
d="M184 273q5 -1 6 -3.5t1 -4.5q-1 -2 -3 -4t-9 -2q-14 0 -30.5 10t-24.5 30l-23 -16l-20.5 -12t-18.5 -8q-2 -1 -6 -1q-5 0 -7 3q-5 5 2 10q5 3 14.5 9.5t20 14.5l20 15.5t13.5 11.5l1 4q4 4 12 4q7 0 8 -3l2 -2t3 -6q3 -4 7.5 -12t10 -16t11 -14t10.5 -8z" />
    <glyph glyph-name="colon" unicode=":" horiz-adv-x="156" 
d="M45 21q0 9 7.5 13.5t15.5 4.5q6 0 11 -2.5t5 -7.5q0 -11 -5 -17.5t-13 -6.5q-6 0 -13.5 2.5t-7.5 13.5zM103 135q9 0 15 -5t6 -14q0 -8 -8.5 -12t-17.5 -4q-14 0 -14 7q0 10 4 19t15 9z" />
    <glyph glyph-name="comma" unicode="," horiz-adv-x="73" 
d="M26 0q1 5 9 5q7 0 14 -4t5 -11q-2 -8 -16.5 -24.5t-32.5 -24.5q-1 0 -1 -0.5t-1 -0.5q-4 0 -7.5 5t1.5 9q9 9 17.5 22.5t11.5 23.5z" />
    <glyph glyph-name="copyright" unicode="&#xa9;" horiz-adv-x="375" 
d="M202 138q1 1 5.5 6t9 11.5t8.5 13.5t4 13q0 2 -1 4q-2 4 -6 4q-7 0 -27 -17t-40 -41t-36 -51t-16 -48q0 -3 2 -3q10 0 30.5 12t40.5 27.5t35.5 31.5t15.5 25q0 3 2 3t5.5 -4t3.5 -8q0 -7 -5 -15t-4 -7t2 1q3 0 0 -4q-3 -3 -15.5 -18t-29.5 -31.5t-36.5 -30t-36.5 -13.5
q-13 0 -24.5 10t-11.5 27q0 21 18 50t41.5 55.5t47 45t33.5 18.5q14 0 21.5 -9t7.5 -21q0 -5 -5 -13t-12 -15t-13.5 -12t-8.5 -5q-9 0 -5 8zM307 292q28 0 48 -21.5t20 -46.5q0 -18 -12.5 -49.5t-34.5 -67.5t-52 -73t-65 -67t-74.5 -49t-79.5 -19q-32 0 -53.5 23t-21.5 70
q0 55 29 108.5t75.5 96t104.5 69t116 26.5zM6 58q19 38 49 74q26 32 65 67.5t94 63.5q-43 -19 -82 -48q-33 -25 -68 -63.5t-58 -93.5zM96 -71q35 11 60 25t42 26q20 15 33 29q-14 -14 -37 -28t-45 -25q-26 -14 -53 -27zM47 -68q28 0 61.5 15t68 39t67 55.5t57.5 64
t40.5 64.5t15.5 58q0 20 -10.5 33t-36.5 13q-37 0 -81 -21t-84.5 -54t-72.5 -73.5t-46 -80.5q2 -3 4 -7q4 -8 4 -23q0 -9 -3 -14.5t-7 -11.5t-7 -14.5t-3 -23.5q0 -13 8.5 -16t24.5 -3z" />
    <glyph glyph-name="d" unicode="d" horiz-adv-x="295" 
d="M441 404q2 -8 -7.5 -23.5t-24.5 -34t-33 -38l-33.5 -35.5t-26.5 -26t-11 -9q-1 1 7.5 11l21.5 25l28.5 34t28.5 36.5t21 32.5t7 22q-2 8 -8 8q-12 0 -43.5 -29t-68.5 -73q-25 -31 -47.5 -69t-38.5 -80l28 27.5l25 24t18 16.5t8 5t-5.5 -9.5t-19 -22.5l-29 -32l-36.5 -38
l-9 -29t-9 -32.5t-6.5 -32t-2.5 -27.5q0 -1 2 -3q0 -1 1 -1q11 0 30.5 12.5t39.5 27.5l47 40l5 -18q-21 -26 -42 -46q-18 -17 -38.5 -31.5t-37.5 -14.5q-19 0 -26 16t-9 36q-2 22 3 51l-37 -34.5t-33.5 -29t-27.5 -20t-18 -7.5q-15 0 -31.5 15t-16.5 42q0 20 16.5 46.5
t39 50.5t45.5 41t37 17q24 0 33 -10.5t13 -24.5q20 54 52.5 102.5t67.5 85t66.5 58.5t47.5 22q15 0 25.5 -10t11.5 -15zM114 185q-16 -7 -32 -21t-30 -28q-15 -17 -29 -36l37 38q14 14 29.5 28t24.5 19zM157 118v12t-1 14.5t-4 12.5t-9 5q-10 0 -24 -9t-28 -23t-27 -31.5
t-22 -33t-12 -28t3 -17.5q2 -2 12 3t25 15l33.5 23.5t36.5 28.5l14 12q1 5 2 9t1 7zM164 26q2 19 4.5 36t5.5 33q-6 -4 -10 -10q-5 -32 0 -59zM178 123q14 50 39 97t67 108q-45 -51 -75.5 -107.5t-42.5 -108.5q2 2 5.5 5t6.5 6z" />
    <glyph glyph-name="dagger" unicode="&#x2020;" horiz-adv-x="175" 
d="M208 239q22 0 33.5 -5.5t12.5 -12.5q1 -11 -3 -15q-2 -2 -5 -2t-4 1.5t-3 3t-6.5 3t-14.5 1.5q-17 0 -33 -1.5t-32 -3.5q-28 -52 -50.5 -98.5t-37.5 -83t-22.5 -61.5t-4.5 -34q1 -9 -4 -13q-4 -2 -10 4.5t-11 15.5q-7 18 15.5 83.5t91.5 181.5q-47 -9 -67 -17q-6 2 -9 6
q-8 8 -3 21q5 5 30 11.5t69 11.5l31.5 49.5l35.5 53.5q-1 1 -1 2q-1 1 2 4q4 8 10 8q1 0 1.5 -0.5t1.5 -0.5q10 -3 5 -13l-29 -51l-28 -50q9 1 18.5 1h20.5z" />
    <glyph glyph-name="degree" unicode="&#xb0;" horiz-adv-x="49" 
d="M116 345q4 -1 8 -4q2 -2 4.5 -6t2.5 -11q0 -9 -7 -19t-16 -18.5t-18 -14.5t-14 -6q-10 0 -13.5 7.5t-3.5 12.5q-1 -1 -3 -1q-3 0 -7 4.5t-4 10.5t4.5 15t13 17t19 13.5t22.5 5.5q9 0 12 -6zM77 287q2 0 8 4.5t12.5 11t11.5 13.5t5 11q0 3 -4 3q-8 0 -16.5 -4.5
t-15.5 -10.5q-7 -7 -14 -15q2 1 5 1q4 0 6.5 -2t2.5 -4t-2.5 -5t1.5 -3z" />
    <glyph glyph-name="dieresis" unicode="&#xa8;" horiz-adv-x="158" 
d="M34 303q6 2 9 2q11 0 18.5 -9t1.5 -17q-5 -8 -16 -8q-10 0 -14 7q-3 5 -5 13t6 12zM130 299q4 -8 2 -15.5t-10 -12.5q-6 -2 -8 -2q-10 0 -17 9t-3 18q2 5 8 8t12 3q11 0 16 -8z" />
    <glyph glyph-name="divide" unicode="&#xf7;" horiz-adv-x="227" 
d="M189 149q20 0 30 -5.5t10 -12.5q0 -11 -4 -15q-2 -2 -5 -2t-3.5 1.5t-2 3t-5.5 3t-13 1.5q-24 0 -47.5 -3t-43.5 -7t-35.5 -9l-24.5 -8q-5 2 -8 6q-6 8 -1 21q7 6 46.5 16t106.5 10zM166 194q0 -8 -7.5 -12t-15.5 -4q-13 0 -13 7q0 10 4 19t13 9q19 0 19 -19zM100 60
q0 9 6.5 13.5t14.5 4.5q6 0 10.5 -2.5t4.5 -7.5q0 -11 -5 -17.5t-12 -6.5q-5 0 -12 2.5t-7 13.5z" />
    <glyph glyph-name="dollar" unicode="$" horiz-adv-x="281" 
d="M343 434q-2 -4 1 -6.5t-1 -5.5q-7 -7 -18 -22.5l-25 -35.5q2 -2 2 -3q13 -4 21 -15.5t8 -25.5q0 -20 -17.5 -47t-39 -51.5t-40.5 -41.5t-21 -19q-1 -1 -4 -1q-7 0 -4 7l46 67q17 27 31 55t14 44q0 4 -0.5 6.5t-0.5 4.5q-2 -2 -3 -2l-6.5 -4.5l-6.5 -4.5l-30.5 -47
l-28.5 -43.5l-21 -32t-10 -13.5q-2 -2 -4 -3.5t-4 -2.5q-1 -2 -2 -3l77 129q-34 -26 -58.5 -53t-40.5 -51.5t-23.5 -44.5t-7.5 -34q0 -11 8 -21l15.5 25t9.5 15v-12q-5 -7 -9.5 -15.5l-9.5 -18.5q9 -8 21.5 -15.5t23.5 -15.5t19 -18t8 -23q0 -15 -14.5 -28.5t-36 -24
t-47 -17t-47.5 -9.5l-21 -48.5t-17.5 -43.5t-11.5 -34.5t-4 -21.5q0 -2 -1 -2q-3 0 -8.5 7.5t-5.5 12.5q0 18 14.5 53t34.5 76q-21 0 -31.5 7t-15.5 15.5t-5.5 16.5t-0.5 11q0 7 5 7q3 0 3 -4q0 -8 7 -12.5t27 -4.5h15.5t14.5 1l32 58l29 51q-8 10 -13.5 21t-5.5 25
q0 26 11.5 53t29 52.5t38.5 47.5t40.5 38.5t34.5 26t21 9.5q2 0 3.5 -0.5t3.5 -0.5l10 16q-2 2 -3 4q-4 4 -1 7q4 3 13 15t17 24q2 3 6 3h4q3 0 6.5 -2t0.5 -6zM41 -20h19q0 1 0.5 1.5t0.5 1.5zM78 -19l25 4t25 7l-48 -7q0 -2 -2 -4zM195 46q0 3 -6 7l-15 10l-20 14t-21 18
l-49 -101q29 4 49.5 11t34.5 15t20.5 15.5t6.5 10.5z" />
    <glyph glyph-name="dotaccent" unicode="&#x2d9;" horiz-adv-x="79" 
d="M44 345q26 0 26 -26q0 -13 -15 -20t-29 -7q-17 0 -17 9q0 7 4 14.5t10 14t12 11t9 4.5z" />
    <glyph glyph-name="dotlessi" unicode="&#x131;" horiz-adv-x="135" 
d="M10 -5q11 0 32 13.5t42 30.5q24 19 51 43l5 -18q-25 -27 -47 -47q-19 -18 -38.5 -33t-31.5 -15q-8 0 -16.5 6t-13.5 14q-2 2 -2 5.5t-1 5.5q-5 8 -6.5 16t-1.5 13q0 17 10 37t23 37t25.5 28.5t16.5 11.5q9 0 15.5 -9.5t6.5 -15.5q0 -4 -15 -16.5t-38 -48.5
q-6 -9 -10.5 -19.5t-7 -19t-2 -14t3.5 -5.5z" />
    <glyph glyph-name="e" unicode="e" horiz-adv-x="188" 
d="M-10 38q0 31 18.5 63t44.5 58t53.5 42.5t44.5 16.5q10 0 19 -10t9 -19q0 -6 -12 -25t-28.5 -39t-34.5 -35.5t-29 -15.5q-8 0 -13.5 5t-7.5 10q-14 -21 -23.5 -41t-9.5 -36q0 -12 19 -12q14 0 34.5 9.5t41.5 22.5t40.5 27l31.5 23l5 -18l-28 -29.5t-34 -30t-37 -23
t-38 -9.5q-14 0 -26 6.5t-21 16t-14 21.5t-5 22zM69 95q11 0 26 14t28.5 30.5t22.5 30t7 13.5q-7 0 -18 -7t-23.5 -19t-26.5 -28t-26 -33q1 -1 10 -1zM23 107l3 4.5t2 2.5l4 6q2 2 2 3l3 3q1 1 2 2.5t3 3.5l10 12q2 3 5 6t5 6q5 6 11 11.5t11 11.5l-12 -10.5l-11 -10.5
l-6 -6t-5 -6l-11 -12q-1 -2 -2 -3t-2 -3q-2 -2 -3 -3.5t-2 -2.5l-5 -7q0 -1 -2 -3l-2 -3q-8 -14 -14 -28l7.5 13.5t8.5 12.5zM62 -3q10 3 19 6t18 8q5 2 9 5t9 5q4 3 7 5.5t8 5.5l1 1l-1 -1l-16 -9l-9 -5.5t-9 -4.5t-9 -4l-8 -4q-5 -2 -9.5 -4t-9.5 -4z" />
    <glyph glyph-name="eacute" unicode="&#xe9;" horiz-adv-x="188" 
d="M-10 38q0 31 18.5 63t44.5 58t53.5 42.5t44.5 16.5q10 0 19 -10t9 -19q0 -6 -12 -25t-28.5 -39t-34.5 -35.5t-29 -15.5q-8 0 -13.5 5t-7.5 10q-14 -21 -23.5 -41t-9.5 -36q0 -12 19 -12q14 0 34.5 9.5t41.5 22.5t40.5 27l31.5 23l5 -18l-28 -29.5t-34 -30t-37 -23
t-38 -9.5q-14 0 -26 6.5t-21 16t-14 21.5t-5 22zM69 95q11 0 26 14t28.5 30.5t22.5 30t7 13.5q-7 0 -18 -7t-23.5 -19t-26.5 -28t-26 -33q1 -1 10 -1zM23 107l3 4.5t2 2.5l4 6q2 2 2 3l3 3q1 1 2 2.5t3 3.5l10 12q2 3 5 6t5 6q5 6 11 11.5t11 11.5l-12 -10.5l-11 -10.5
l-6 -6t-5 -6l-11 -12q-1 -2 -2 -3t-2 -3q-2 -2 -3 -3.5t-2 -2.5l-5 -7q0 -1 -2 -3l-2 -3q-8 -14 -14 -28l7.5 13.5t8.5 12.5zM62 -3q10 3 19 6t18 8q5 2 9 5t9 5q4 3 7 5.5t8 5.5l1 1l-1 -1l-16 -9l-9 -5.5t-9 -4.5t-9 -4l-8 -4q-5 -2 -9.5 -4t-9.5 -4zM168 319q2 2 4 2
q6 0 12 -9.5t4 -16.5q-2 -6 -10 -13t-18.5 -13.5t-22.5 -11t-23 -4.5q-15 0 -16 8t4 8q6 0 15 5.5t18.5 13t18 16.5z" />
    <glyph glyph-name="ecircumflex" unicode="&#xea;" horiz-adv-x="188" 
d="M-10 38q0 31 18.5 63t44.5 58t53.5 42.5t44.5 16.5q10 0 19 -10t9 -19q0 -6 -12 -25t-28.5 -39t-34.5 -35.5t-29 -15.5q-8 0 -13.5 5t-7.5 10q-14 -21 -23.5 -41t-9.5 -36q0 -12 19 -12q14 0 34.5 9.5t41.5 22.5t40.5 27l31.5 23l5 -18l-28 -29.5t-34 -30t-37 -23
t-38 -9.5q-14 0 -26 6.5t-21 16t-14 21.5t-5 22zM69 95q11 0 26 14t28.5 30.5t22.5 30t7 13.5q-7 0 -18 -7t-23.5 -19t-26.5 -28t-26 -33q1 -1 10 -1zM23 107l3 4.5t2 2.5l4 6q2 2 2 3l3 3q1 1 2 2.5t3 3.5l10 12q2 3 5 6t5 6q5 6 11 11.5t11 11.5l-12 -10.5l-11 -10.5
l-6 -6t-5 -6l-11 -12q-1 -2 -2 -3t-2 -3q-2 -2 -3 -3.5t-2 -2.5l-5 -7q0 -1 -2 -3l-2 -3q-8 -14 -14 -28l7.5 13.5t8.5 12.5zM62 -3q10 3 19 6t18 8q5 2 9 5t9 5q4 3 7 5.5t8 5.5l1 1l-1 -1l-16 -9l-9 -5.5t-9 -4.5t-9 -4l-8 -4q-5 -2 -9.5 -4t-9.5 -4zM214 271q5 -1 6 -3.5
t1 -4.5q-1 -2 -3 -4t-9 -2q-14 0 -30.5 10t-24.5 30l-23 -16l-20.5 -12t-18.5 -8q-2 -1 -6 -1q-5 0 -7 3q-5 5 2 10q5 3 14.5 9.5t20 14.5l20 15.5t13.5 11.5l1 4q4 4 12 4q7 0 8 -3l2 -2t3 -6q3 -4 7.5 -12t10 -16t11 -14t10.5 -8z" />
    <glyph glyph-name="edieresis" unicode="&#xeb;" horiz-adv-x="188" 
d="M-10 38q0 31 18.5 63t44.5 58t53.5 42.5t44.5 16.5q10 0 19 -10t9 -19q0 -6 -12 -25t-28.5 -39t-34.5 -35.5t-29 -15.5q-8 0 -13.5 5t-7.5 10q-14 -21 -23.5 -41t-9.5 -36q0 -12 19 -12q14 0 34.5 9.5t41.5 22.5t40.5 27l31.5 23l5 -18l-28 -29.5t-34 -30t-37 -23
t-38 -9.5q-14 0 -26 6.5t-21 16t-14 21.5t-5 22zM69 95q11 0 26 14t28.5 30.5t22.5 30t7 13.5q-7 0 -18 -7t-23.5 -19t-26.5 -28t-26 -33q1 -1 10 -1zM23 107l3 4.5t2 2.5l4 6q2 2 2 3l3 3q1 1 2 2.5t3 3.5l10 12q2 3 5 6t5 6q5 6 11 11.5t11 11.5l-12 -10.5l-11 -10.5
l-6 -6t-5 -6l-11 -12q-1 -2 -2 -3t-2 -3q-2 -2 -3 -3.5t-2 -2.5l-5 -7q0 -1 -2 -3l-2 -3q-8 -14 -14 -28l7.5 13.5t8.5 12.5zM62 -3q10 3 19 6t18 8q5 2 9 5t9 5q4 3 7 5.5t8 5.5l1 1l-1 -1l-16 -9l-9 -5.5t-9 -4.5t-9 -4l-8 -4q-5 -2 -9.5 -4t-9.5 -4zM95 303q6 2 9 2
q11 0 18.5 -9t1.5 -17q-5 -8 -16 -8q-10 0 -14 7q-3 5 -5 13t6 12zM191 299q4 -8 2 -15.5t-10 -12.5q-6 -2 -8 -2q-10 0 -17 9t-3 18q2 5 8 8t12 3q11 0 16 -8z" />
    <glyph glyph-name="egrave" unicode="&#xe8;" horiz-adv-x="188" 
d="M-10 38q0 31 18.5 63t44.5 58t53.5 42.5t44.5 16.5q10 0 19 -10t9 -19q0 -6 -12 -25t-28.5 -39t-34.5 -35.5t-29 -15.5q-8 0 -13.5 5t-7.5 10q-14 -21 -23.5 -41t-9.5 -36q0 -12 19 -12q14 0 34.5 9.5t41.5 22.5t40.5 27l31.5 23l5 -18l-28 -29.5t-34 -30t-37 -23
t-38 -9.5q-14 0 -26 6.5t-21 16t-14 21.5t-5 22zM69 95q11 0 26 14t28.5 30.5t22.5 30t7 13.5q-7 0 -18 -7t-23.5 -19t-26.5 -28t-26 -33q1 -1 10 -1zM23 107l3 4.5t2 2.5l4 6q2 2 2 3l3 3q1 1 2 2.5t3 3.5l10 12q2 3 5 6t5 6q5 6 11 11.5t11 11.5l-12 -10.5l-11 -10.5
l-6 -6t-5 -6l-11 -12q-1 -2 -2 -3t-2 -3q-2 -2 -3 -3.5t-2 -2.5l-5 -7q0 -1 -2 -3l-2 -3q-8 -14 -14 -28l7.5 13.5t8.5 12.5zM62 -3q10 3 19 6t18 8q5 2 9 5t9 5q4 3 7 5.5t8 5.5l1 1l-1 -1l-16 -9l-9 -5.5t-9 -4.5t-9 -4l-8 -4q-5 -2 -9.5 -4t-9.5 -4zM102 322
q6 -7 14.5 -16t18 -17t18.5 -13.5t16 -5.5q5 0 4.5 -8t-15.5 -8q-12 0 -24.5 4.5t-23.5 11.5t-19 14t-10 13q-3 8 4 17.5t13 9.5q2 0 4 -2z" />
    <glyph glyph-name="eight" unicode="8" horiz-adv-x="229" 
d="M283 323q0 -6 -15 -11q-3 -2 -16 -15l-30 -31.5l-36 -40.5l-36.5 -41.5l-30 -34.5t-16.5 -19q9 -10 20 -20t20.5 -21t16.5 -23t7 -27q0 -31 -32 -56.5t-85 -25.5q-25 0 -38.5 7t-19.5 15q-2 -5 -3 -8t-5 -3q-5 0 -8.5 6.5t-3.5 17.5q0 8 8.5 23t23 34.5t33 42t39.5 45.5
q-8 14 -8 32q0 26 24.5 56.5t56.5 56.5t63.5 43t45.5 17q15 0 20 -7t5 -12zM81 129q-17 -17 -32 -35t-22 -29l56 61q-1 1 -1 1.5t-1 1.5zM146 50q0 9 -5 17.5t-13 16l-17.5 16t-18.5 17.5l-48 -61t-41 -58q5 -2 14 -3.5t26 -1.5q12 0 29.5 3.5t34 10t28 17.5t11.5 26z
M139 187q-6 -6 -14 -13l-32 -32q2 -2 2 -3zM89 151l50 54.5l45.5 48l34.5 35l17 16.5q-31 -10 -58 -29.5t-47.5 -41t-32 -42t-11.5 -32.5q0 -3 2 -9z" />
    <glyph glyph-name="ellipsis" unicode="&#x2026;" horiz-adv-x="231" 
d="M36 21q19 0 19 -19q0 -9 -11 -14t-21 -5q-12 0 -12 6q0 10 10 21t15 11zM112 21q19 0 19 -19q0 -9 -6.5 -13.5t-14.5 -4.5q-10 0 -13 7q-4 9 1.5 19.5t13.5 10.5zM204 12q8 -10 -1 -18.5t-18 -8.5q-4 0 -7 3q-8 9 -7 18t5 12q5 4 11 4q9 0 17 -10z" />
    <glyph glyph-name="emdash" unicode="&#x2014;" horiz-adv-x="281" 
d="M19 115q3 2 21 5.5t44.5 6.5t58 5.5t60.5 2.5q28 0 41 -4.5t13 -9.5q0 -8 -4 -12q-2 -2 -4 -2q-3 0 -4.5 1.5t-5 3t-10 2.5t-20.5 1q-21 0 -49.5 -2.5t-55.5 -6t-48.5 -7t-29.5 -6.5q-4 2 -7 5q-5 7 0 17z" />
    <glyph glyph-name="endash" unicode="&#x2013;" horiz-adv-x="230" 
d="M19 115q3 2 17.5 5.5t36.5 6.5t49.5 5.5t56.5 2.5q17 0 26.5 -4.5t9.5 -9.5q0 -8 -4 -12q-2 -2 -4 -2q-3 0 -3.5 1.5t-2 3t-4.5 2.5t-11 1q-21 0 -45.5 -2.5t-47.5 -6t-41 -7t-26 -6.5q-4 2 -7 5q-5 7 0 17z" />
    <glyph glyph-name="equal" unicode="=" horiz-adv-x="216" 
d="M177 175q11 0 15 -6t4 -9t-3 -6t-8 -3t-7 5q-2 1 -2 4q-16 0 -37 -2q-17 -2 -40 -6t-51 -12q-5 -1 -9.5 6t0.5 9q9 4 44 12t94 8zM151 125q26 0 33.5 -11t7.5 -17q0 -4 -7 -4q-4 0 -7 4q-1 2 -6 3t-11 1q-19 0 -39.5 -3.5t-38 -8t-30.5 -9t-18 -6.5q-1 0 -1.5 -0.5
t-1.5 -0.5q-5 0 -9.5 8t1.5 16q3 4 15 8.5t29.5 9t39 7.5t43.5 3z" />
    <glyph glyph-name="exclam" unicode="!" horiz-adv-x="199" 
d="M45 24q11 0 13 -8t-1 -13q-1 -3 -4.5 -11t-7 -17.5t-7 -18t-5.5 -11.5q-1 -2 -3 -2q-4 0 -9.5 8.5t-5.5 15.5q0 4 3.5 13.5t8 19.5t10 17t8.5 7zM314 402q2 -2 2 -5q0 -2 -2 -6t-9 -9q-19 -16 -32.5 -29.5t-28.5 -32.5t-34 -48l-51 -76q-31 -47 -47 -74.5t-22 -42t-6 -20
v-8.5t-2 -3q-5 0 -14 8t-9 16q0 13 7 31t19 39t27 43l30 43q37 50 83 105q0 2 9.5 13.5t22.5 24.5t25.5 24t18.5 11q4 0 10 -2q1 -1 3 -2zM168 237q-12 -15 -24 -33q-11 -14 -22 -33.5t-21 -39.5z" />
    <glyph glyph-name="exclamdown" unicode="&#xa1;" horiz-adv-x="199" 
d="M235 320q-11 0 -13 8t1 13q1 3 4.5 11t7 17.5t7.5 18t5 11.5q1 2 3 2q4 0 9.5 -8.5t5.5 -15.5q0 -4 -3.5 -13.5t-8 -19.5t-10 -17t-8.5 -7zM-34 -58q-2 2 -2 5q0 2 2 6t9 9q19 16 32.5 29.5t28.5 32.5t34.5 48l50.5 76q32 47 47.5 74.5t21.5 42t6 20v8.5t2 3q5 0 14 -8
t9 -16q0 -13 -7 -31t-18.5 -39t-26.5 -43t-31 -43q-37 -50 -83 -105q0 -1 -9.5 -13t-22.5 -25t-25.5 -24t-18.5 -11q-4 0 -10 2q-1 1 -3 2zM112 107q12 15 24 33q11 15 22.5 34t20.5 39z" />
    <glyph glyph-name="f" unicode="f" horiz-adv-x="187" 
d="M149 184h-6l-21 -42q6 1 10.5 1.5t9.5 1.5h5q14 0 19.5 -5.5t6 -12.5t-2.5 -13t-6 -6t-3 3t0.5 7t-0.5 7t-7 3h-2q-8 0 -18.5 -4.5t-24.5 -11.5l-33.5 -74.5l-31.5 -76.5q5 -15 5 -31q1 -18 -5 -36.5t-14.5 -34t-17.5 -25.5t-15 -10q-5 0 -9.5 4.5t-5.5 14.5
q-2 23 8 58.5t28 80.5q-10 14 -22 18t-22 4q-3 0 -5.5 -0.5t-4.5 -0.5q-11 -1 -14 7t-4 16q0 8 12.5 21.5t33 28t45.5 29t49 24.5l18 33.5l18 33.5q-4 7 -4 16q0 4 2 4q1 0 3 -2q1 -4 5 -6l41 69.5t36.5 56.5t28 38.5t16.5 14.5q10 1 18 -6.5t9 -21.5q1 -18 -12.5 -47.5
t-34 -57.5t-43 -48.5t-38.5 -21.5zM-5 -106q4 11 8.5 22t8.5 22q3 8 6.5 15.5t6.5 15.5q0 1 -1.5 3t-1.5 3q-8 -20 -15 -40.5t-12 -40.5zM13 -123q8 10 13.5 22.5t5.5 28.5l-9.5 -25.5zM63 73l-17.5 -40l-16.5 -40q0 -1 1.5 -3t2.5 -3q3 10 7 22t8 21zM25 -2q9 22 19 44
l21 45l-31.5 -20.5l-28 -19t-19.5 -14.5t-7 -8q0 -4 15 -7t31 -20zM29 91l38 22q-7 -3 -17.5 -8t-21 -11.5l-20.5 -13t-16 -11.5q9 5 18.5 11t18.5 11zM109 158q5 8 8.5 16t8.5 16q0 1 -0.5 1t-0.5 1q-5 -8 -9 -16.5t-7 -17.5zM256 363q-20 -20 -44.5 -58.5t-51.5 -89.5
q13 11 30 30.5t32 41.5t25 42.5t9 33.5zM132 206h2q5 8 9.5 16.5l9.5 17.5q-6 -8 -11 -16.5z" />
    <glyph glyph-name="five" unicode="5" horiz-adv-x="276" 
d="M328 297q5 -3 5 -8t-4 -11t-18 -15l-4 -2q-3 0 -2.5 5t3.5 7q3 3 5.5 11t-2.5 8q-64 0 -101.5 -8t-55.5 -21q-18 -18 -31 -39t-23 -44q17 13 43 23t56 10q17 0 27.5 -7t15.5 -16.5t6.5 -19t1.5 -14.5q0 -23 -18.5 -54.5t-47 -60.5t-63 -49.5t-67.5 -20.5t-44.5 11
t-11.5 25q0 8 3.5 13.5t8.5 10.5q5 4 11 8q2 2 3.5 -0.5t-0.5 -4.5q-1 -1 -5 -6t-4.5 -10t3.5 -9t17 -4q27 0 61.5 15t64.5 38t51 51t21 54q0 17 -8 24.5t-20 7.5q-31 0 -65 -15.5t-54 -35.5q0 -1 -0.5 -1.5t-0.5 -1.5q-1 -4 -5 -4q-5 0 -10.5 9.5t-5.5 26.5q0 16 9 32.5
t21.5 32t26 28t23.5 19.5q5 11 38 25.5t91 14.5q24 0 35 -4.5t16 -9.5q5 -6 4 -14zM53 -9q17 2 36 10q16 6 36.5 18t42.5 33q-14 -11 -31 -22q-15 -10 -36.5 -20.5t-47.5 -18.5z" />
    <glyph glyph-name="four" unicode="4" horiz-adv-x="248" 
d="M327 375q3 -3 1.5 -5.5t-5.5 -7.5q-37 -55 -71 -117.5t-59.5 -120.5t-40.5 -105.5t-15 -72.5q4 0 6.5 4t4.5 8q2 3 5 3q7 0 5 -6q0 -2 -1 -7t-2.5 -10t-4 -8.5t-6.5 -3.5t-9.5 3t-11 9.5t-9.5 16.5t-4 24q0 22 13 58t32 77q-12 -2 -31 -8t-39.5 -14t-39 -17t-30.5 -16
q-2 0 -3 1q-4 2 -4 8q0 5 3 8q-5 4 -6 5q-2 3 -4 13t4 13q43 30 76 62.5t57.5 61.5t40 53.5t22.5 39.5l5 9q3 0 7.5 -3.5t8.5 -8.5t5.5 -11.5t-1.5 -12.5q-15 -29 -38 -58.5t-48.5 -56.5t-49.5 -49.5t-41 -36.5q22 10 54.5 21t59.5 13q17 35 34.5 67.5l32.5 58.5l33 57l-4 2
q-3 3 -2 4t8 9l15 17.5l16 19.5t11 15q2 2 5 2q4 0 8.5 -2.5t6.5 -4.5zM123 195l-29 -30l-28.5 -26.5t-30.5 -25.5q15 10 31 23q14 11 29 26t28 33zM120 -11q5 18 13 38l14 40.5t19 47.5h-3q-14 -29 -25.5 -61.5t-17.5 -64.5zM126 -31q8 28 17 54l15 45.5t15 40.5
q-5 -11 -12.5 -30l-15 -39t-13.5 -39.5t-6 -31.5zM199 184l12.5 21l9.5 16l9 13q-17 -24 -31.5 -51l-28.5 -53l2 -1l13.5 27.5z" />
    <glyph glyph-name="fraction" unicode="&#x2044;" horiz-adv-x="205" 
d="M-2 -59q-3 11 6.5 41.5t37 80.5t74.5 119.5t118 159.5q-1 1 -1 2q-1 1 2 4q4 5 6.5 6t7.5 1q10 -3 4 -13q-50 -71 -93 -139.5t-74.5 -124.5t-48.5 -94.5t-15 -49.5q0 -10 -6 -13q-4 -2 -9.5 4.5t-8.5 15.5z" />
    <glyph glyph-name="g" unicode="g" horiz-adv-x="252" 
d="M145 80q15 0 28 -6.5t22.5 -17.5t15 -24t5.5 -27q0 -38 -24.5 -75t-60.5 -66t-76.5 -46.5t-72.5 -17.5t-49 15t-17 31q0 13 3.5 19.5t7.5 6.5q1 0 2 -1q6 -6 1.5 -10.5t-4.5 -11.5q0 -15 37 -15q27 0 65.5 16t74.5 42.5t61.5 61t25.5 71.5q0 16 -7.5 25.5t-24.5 9.5
q-26 0 -49.5 -11t-42.5 -24t-33 -24t-21 -11q-4 0 -10 4t-11.5 10t-9.5 12t-4 10q0 20 18.5 48t45 53t55.5 42.5t51 17.5t35.5 -13.5t13.5 -23.5t-4 -21t-9.5 -20t-10.5 -14.5t-7 -4.5q-1 2 2 10t6 18.5t3.5 21t-5.5 16.5q-2 2 -7 2q-12 0 -36.5 -12.5t-44.5 -31.5
q-11 -9 -21 -21t-17 -22.5t-10 -19.5t0 -12q2 -1 13.5 5l28 14t35 15t33.5 7zM86 157q-17 -12 -31 -25t-13 -14t16 12.5t35 24.5t37.5 16.5t17.5 6.5t-1.5 3t-4.5 2q-5 0 -21 -7t-35 -19zM-8 -170q46 9 79.5 26.5t56.5 39t37 43.5t22 39q-12 -19 -27.5 -39.5t-38.5 -40
t-54.5 -37.5t-74.5 -31zM205 -28q2 0 4.5 11t2.5 19t-1.5 16.5t-3.5 8.5q-1 0 0.5 -7t1.5 -17q0 -11 -2.5 -21t-1.5 -10z" />
    <glyph glyph-name="germandbls" unicode="&#xdf;" horiz-adv-x="335" 
d="M311 140q3 -29 -16 -63.5t-53 -64t-81 -49t-101 -19.5q-31 0 -45.5 13.5t-18 29.5t1.5 29.5t14 13.5q3 0 1 -7t-3 -15.5t4 -15.5t23 -7q43 0 88.5 16t82.5 41t60 55.5t20 60.5q-2 15 -12 21t-26 6q-19 0 -45 -8q-21 -23 -38 -38.5t-26 -15.5q-6 0 -11 5t-8 12t-3 15t6 14
q6 8 19 17t33 17l35 46l36.5 50t31 46.5t18.5 35.5q-88 -68 -154.5 -147t-111 -152t-65.5 -132t-19 -88q1 -8 3.5 -10t2.5 -6q0 -5 -10 -5q-8 0 -17 7.5t-11 30.5q-2 25 10.5 61t35 78t52.5 87t63 88.5t67.5 82.5t65.5 68.5t55.5 46.5t39.5 17q11 0 19 -9.5t9 -20.5
q1 -7 -7.5 -24.5t-22.5 -40.5t-32 -49t-37 -50q32 0 53 -21t24 -53zM233 351q9 9 16 15t12 11t10 9q-17 -12 -38 -35q-22 -20 -52.5 -51.5t-64 -71t-68.5 -87t-65 -99.5l89 118l39.5 50l41.5 51.5l41.5 48.5t38.5 41zM35 -30q5 -1 10 -1.5t10 -0.5q27 0 56.5 10.5t53.5 23.5
q29 15 56 34q-18 -10 -41.5 -21.5t-48.5 -21.5t-50 -16.5t-46 -6.5z" />
    <glyph glyph-name="grave" unicode="`" horiz-adv-x="98" 
d="M23 322q6 -7 14.5 -16t18 -17t18.5 -13.5t16 -5.5q5 0 4.5 -8t-15.5 -8q-12 0 -24.5 4.5t-23.5 11.5t-19 14t-10 13q-3 8 4 17.5t13 9.5q2 0 4 -2z" />
    <glyph glyph-name="greater" unicode="&#x3e;" horiz-adv-x="308" 
d="M300 128q2 -1 3 -5t0.5 -8t-2 -7.5t-4.5 -3.5q-2 0 -8 3q0 -6 -6 -8q-6 -3 -31 -11t-58.5 -21.5t-72.5 -32.5t-74 -44q-3 -3 -7 -3q-7 0 -7 12q0 9 26 26t62.5 36t76.5 36t67 26q-20 14 -46.5 34.5t-50.5 43.5t-40.5 46t-16.5 41q0 24 9 24q1 0 3 -1q2 -2 2 -7t-1 -7
q0 -2 -1 -3q15 -26 37.5 -52.5t47.5 -49t49.5 -39.5t42.5 -25zM259 104q-28 -9 -52 -18.5t-41 -17.5q-21 -10 -38 -19zM157 233l19 -22l20.5 -21t25.5 -25l-30 36l-22.5 23.5t-12.5 8.5z" />
    <glyph glyph-name="guillemotleft" unicode="&#xab;" horiz-adv-x="483" 
d="M467 320q5 6 9 6q6 0 5 -10q0 -6 -13.5 -19t-35.5 -29.5l-49.5 -36l-55.5 -38l-54.5 -34.5t-46.5 -27q21 -7 47.5 -19.5t50 -28t39.5 -33t14 -35.5q-1 -11 -3.5 -17.5t-7.5 -7.5h-2q-3 0 -3 6q1 2 1 4t1 3q0 2 1 3q-14 21 -36 40t-46.5 34t-49.5 25t-44 12q-5 1 -3 11.5
t8 12.5h3.5t5.5 -1q0 6 7 9q7 5 33.5 19.5t63.5 37t79.5 51.5t81.5 62zM333 56q-9 8 -19 16q-8 7 -19.5 15.5t-25.5 16.5q16 -15 29 -26l22.5 -16.5t12.5 -5.5zM234 152l56 32.5l46 28.5l41 28zM60 114q25 -6 57 -17t60.5 -26.5t48 -35.5t19.5 -43q0 -8 -4 -8q-3 0 -3 3
q-15 24 -50.5 42.5t-72.5 31.5q-43 15 -93 27q-5 1 -9 5t-4 11q0 17 10 17h7t9 -1q20 11 51 30.5l65 42l65.5 44.5t50.5 37q5 4 5 7.5t2 6.5q1 2 5.5 5.5l10 8l10.5 8.5t7 5q1 1 3 1q10 0 7 -16q-1 -5 -8 -11.5l-15 -13.5q-9 -8 -21 -16l-49.5 -35.5l-58 -41l-57.5 -39
t-48 -29.5zM104 87q28 -9 51 -22t40 -24q20 -13 36 -27q-12 15 -29 27t-35.5 21t-35 15.5t-27.5 9.5z" />
    <glyph glyph-name="guillemotright" unicode="&#xbb;" horiz-adv-x="463" 
d="M268 121q-2 1 -4.5 2t-6.5 3q-16 -6 -42 -17t-54 -24.5l-54.5 -27t-43.5 -23.5q-4 -2 -4.5 -5.5t-2.5 -5.5q-1 -1 -5 -4t-9 -6l-9 -5.5t-6 -2.5q-3 -2 -5 2.5t1 14.5q2 5 7.5 9.5t13.5 8.5q8 5 18 10q18 9 41.5 22l48.5 26t48.5 23.5t39.5 16.5q-17 12 -38 30.5t-38 41
t-27.5 46.5t-6.5 46q2 6 4 6t2 -3q7 -26 29 -53t45 -49q28 -26 62 -49q3 -2 5.5 -7t1.5 -12q-3 -16 -11 -14zM136 277q6 -17 16 -33t21.5 -29.5t22.5 -23.5l18 -16q-18 16 -32 34l-25 33q-12 18 -21 35zM451 127q2 -1 3 -5t0.5 -8t-2 -7.5t-4.5 -3.5q-2 0 -8 3q0 -6 -6 -8
q-6 -3 -31 -11t-58.5 -21.5t-72.5 -32.5t-74 -44q-3 -3 -7 -3q-7 0 -7 12q0 9 26 26t62.5 36t76.5 36t67 26q-20 14 -46.5 34.5t-50.5 43.5t-40.5 46t-16.5 41q0 24 9 24q1 0 3 -1q2 -2 2 -7t-1 -7q0 -2 -1 -3q15 -26 37.5 -52.5t47.5 -49t49.5 -39.5t42.5 -25zM308 232
l19 -22l20.5 -21t25.5 -25l-30 36l-22.5 23.5t-12.5 8.5zM410 103q-28 -9 -52 -18.5t-41 -17.5q-21 -10 -38 -19z" />
    <glyph glyph-name="guilsinglleft" unicode="&#x2039;" horiz-adv-x="310" 
d="M302 317q1 1 3 1q10 0 7 -16q-1 -5 -8 -11.5l-15 -13.5q-9 -8 -21 -16l-49.5 -35.5l-58 -41l-57.5 -39t-48 -29.5q25 -6 57 -17t60.5 -26.5t48 -35.5t19.5 -43q0 -8 -4 -8q-3 0 -3 3q-15 24 -50.5 42.5t-72.5 31.5q-43 15 -93 27q-5 1 -9 5t-4 11q0 17 10 17h7t9 -1
q20 11 51 30.5l65 42l65.5 44.5t50.5 37q5 4 5 7.5t2 6.5q1 2 5.5 5.5l10 8l10.5 8.5t7 5zM226 16q-15 19 -38.5 33.5t-46 24t-39 14.5l-16.5 5q30 -8 55.5 -21.5t44.5 -25.5q22 -15 40 -30z" />
    <glyph glyph-name="guilsinglright" unicode="&#x203a;" horiz-adv-x="308" 
d="M300 128q2 -1 3 -5t0.5 -8t-2 -7.5t-4.5 -3.5q-2 0 -8 3q0 -6 -6 -8q-6 -3 -31 -11t-58.5 -21.5t-72.5 -32.5t-74 -44q-3 -3 -7 -3q-7 0 -7 12q0 9 26 26t62.5 36t76.5 36t67 26q-20 14 -46.5 34.5t-50.5 43.5t-40.5 46t-16.5 41q0 24 9 24q1 0 3 -1q2 -2 2 -7t-1 -7
q0 -2 -1 -3q15 -26 37.5 -52.5t47.5 -49t49.5 -39.5t42.5 -25zM259 104q-28 -9 -52 -18.5t-41 -17.5q-21 -10 -38 -19zM157 233l19 -22l20.5 -21t25.5 -25l-30 36l-22.5 23.5t-12.5 8.5z" />
    <glyph glyph-name="h" unicode="h" horiz-adv-x="300" 
d="M246 381q2 0 6.5 -3t8 -7t6 -7.5t0.5 -4.5l-65 -78.5t-69.5 -92t-65.5 -101.5t-53 -107l38 44.5l35 40.5l30 31t28.5 27t24.5 19t18 7q5 0 12.5 -11t9.5 -22q0 -6 -7 -23l-15 -38t-14 -41.5t-5 -33.5q10 0 28.5 12.5t38.5 29.5t37.5 34l26.5 26l5 -18l-48 -57
q-20 -22 -40 -40t-32 -18q-9 0 -17.5 5t-15.5 12.5t-11.5 16t-5.5 15.5q-2 20 4 41.5t14 40.5q7 19 20 42q-24 -19 -51.5 -50.5l-52 -61.5l-43 -51.5t-25.5 -21.5q-4 0 -10.5 5t-12.5 12t-10.5 14t-4.5 12q-3 20 14.5 58t46 83t63.5 91.5t67.5 84.5t57.5 61.5t34 22.5zM8 51
q16 33 37 57l58.5 82t61.5 79q7 7 13 15l12 16q-28 -29 -52 -61l-18 -21l-20.5 -25t-20 -26t-15.5 -23q-12 -17 -22.5 -34l-21.5 -34l-2 -4t-3 -5zM53 13l16.5 18.5l16.5 18.5l16 18.5l16 18.5l9 9q1 2 8 9l9 9q5 3 8 8l-3 -3t-6 -5q-2 -2 -4 -4.5t-4 -4.5q-3 -2 -5.5 -4
t-4.5 -4q-1 -2 -8 -9q-17 -17 -34 -37q-8 -9 -15.5 -18.5t-15.5 -18.5q-5 -5 -8.5 -9.5t-8.5 -9.5q-3 -6 -7 -10z" />
    <glyph glyph-name="hungarumlaut" unicode="&#x2dd;" horiz-adv-x="196" 
d="M105 383l-18.5 -19t-24.5 -37q-1 -3 -4 -3q-9 0 -11 17q0 5 5.5 15.5t13 21.5t15.5 19.5t12 8.5q9 1 13 -8.5t-1 -14.5zM169 413q12 0 17 -3t0 -7q-2 -1 -15 -12.5t-28 -27t-27 -32t-12 -29.5q0 -7 -4 -7t-8 5.5t-4 11.5q0 13 9 29.5t23 31.5q19 23 31.5 31.5t17.5 8.5z
" />
    <glyph glyph-name="hyphen" unicode="-" 
d="M19 115q5 5 40 12.5t93 7.5q17 0 26.5 -4.5t9.5 -9.5q0 -8 -4 -12q-2 -2 -4 -2q-3 0 -3.5 1.5t-2 3t-4.5 2.5t-11 1q-42 0 -79.5 -8.5t-53.5 -13.5q-4 2 -7 5q-5 7 0 17z" />
    <glyph glyph-name="i" unicode="i" horiz-adv-x="135" 
d="M10 -5q11 0 32 13.5t42 30.5q24 19 51 43l5 -18q-25 -27 -47 -47q-19 -18 -38.5 -33t-31.5 -15q-8 0 -16.5 6t-13.5 14q-2 2 -2 5.5t-1 5.5q-5 8 -6.5 16t-1.5 13q0 17 10 37t23 37t25.5 28.5t16.5 11.5q9 0 15.5 -9.5t6.5 -15.5q0 -4 -15 -16.5t-38 -48.5
q-6 -9 -10.5 -19.5t-7 -19t-2 -14t3.5 -5.5zM130 234q7 0 17 -9t10 -16q0 -3 -5 -8t-11.5 -10.5l-13.5 -11.5t-11 -12q-5 -7 -7 -11.5t-4 -4.5q-8 0 -13 12.5t-5 17.5q0 3 5.5 11.5t13 18t14.5 16.5t10 7z" />
    <glyph glyph-name="iacute" unicode="&#xed;" horiz-adv-x="135" 
d="M10 -5q11 0 32 13.5t42 30.5q24 19 51 43l5 -18q-25 -27 -47 -47q-19 -18 -38.5 -33t-31.5 -15q-8 0 -16.5 6t-13.5 14q-2 2 -2 5.5t-1 5.5q-5 8 -6.5 16t-1.5 13q0 17 10 37t23 37t25.5 28.5t16.5 11.5q9 0 15.5 -9.5t6.5 -15.5q0 -4 -15 -16.5t-38 -48.5
q-6 -9 -10.5 -19.5t-7 -19t-2 -14t3.5 -5.5zM90 260q2 2 4 2q6 0 12 -9.5t4 -16.5q-2 -6 -10 -13t-18.5 -13.5t-22.5 -11t-23 -4.5q-15 0 -16 8t4 8q6 0 15 5.5t18.5 13t18 16.5z" />
    <glyph glyph-name="icircumflex" unicode="&#xee;" horiz-adv-x="135" 
d="M10 -5q11 0 32 13.5t42 30.5q24 19 51 43l5 -18q-25 -27 -47 -47q-19 -18 -38.5 -33t-31.5 -15q-8 0 -16.5 6t-13.5 14q-2 2 -2 5.5t-1 5.5q-5 8 -6.5 16t-1.5 13q0 17 10 37t23 37t25.5 28.5t16.5 11.5q9 0 15.5 -9.5t6.5 -15.5q0 -4 -15 -16.5t-38 -48.5
q-6 -9 -10.5 -19.5t-7 -19t-2 -14t3.5 -5.5zM131 186q5 -1 6 -3.5t1 -4.5q-1 -2 -3 -4t-9 -2q-14 0 -30.5 10t-24.5 30l-23 -16l-20.5 -12t-18.5 -8q-2 -1 -6 -1q-5 0 -7 3q-5 5 2 10q5 3 14.5 9.5t20 14.5l20 15.5t13.5 11.5l1 4q4 4 12 4q7 0 8 -3l2 -2t3 -6q3 -4 7.5 -12
t10 -16t11 -14t10.5 -8z" />
    <glyph glyph-name="idieresis" unicode="&#xef;" horiz-adv-x="135" 
d="M10 -5q11 0 32 13.5t42 30.5q24 19 51 43l5 -18q-25 -27 -47 -47q-19 -18 -38.5 -33t-31.5 -15q-8 0 -16.5 6t-13.5 14q-2 2 -2 5.5t-1 5.5q-5 8 -6.5 16t-1.5 13q0 17 10 37t23 37t25.5 28.5t16.5 11.5q9 0 15.5 -9.5t6.5 -15.5q0 -4 -15 -16.5t-38 -48.5
q-6 -9 -10.5 -19.5t-7 -19t-2 -14t3.5 -5.5zM22 236q6 2 9 2q11 0 18.5 -9t1.5 -17q-5 -8 -16 -8q-10 0 -14 7q-3 5 -5 13t6 12zM118 232q4 -8 2 -15.5t-10 -12.5q-6 -2 -8 -2q-10 0 -17 9t-3 18q2 5 8 8t12 3q11 0 16 -8z" />
    <glyph glyph-name="igrave" unicode="&#xec;" horiz-adv-x="135" 
d="M10 -5q11 0 32 13.5t42 30.5q24 19 51 43l5 -18q-25 -27 -47 -47q-19 -18 -38.5 -33t-31.5 -15q-8 0 -16.5 6t-13.5 14q-2 2 -2 5.5t-1 5.5q-5 8 -6.5 16t-1.5 13q0 17 10 37t23 37t25.5 28.5t16.5 11.5q9 0 15.5 -9.5t6.5 -15.5q0 -4 -15 -16.5t-38 -48.5
q-6 -9 -10.5 -19.5t-7 -19t-2 -14t3.5 -5.5zM45 276q6 -7 14.5 -16t18 -17t18.5 -13.5t16 -5.5q5 0 4.5 -8t-15.5 -8q-12 0 -24.5 4.5t-23.5 11.5t-19 14t-10 13q-3 8 4 17.5t13 9.5q2 0 4 -2z" />
    <glyph glyph-name="j" unicode="j" horiz-adv-x="166" 
d="M-163 -167q2 0 2 -3q1 -11 7.5 -21t21.5 -10q12 0 26 12.5t30 34t32.5 49.5t32.5 59q-26 -9 -50.5 -21.5t-45 -27t-34.5 -30.5t-18 -32q0 -3 -3 -3t-3 5q4 21 20.5 42t40 40t52.5 34.5t58 24.5q26 51 46 96.5l31 70.5l-78 -89l-5 18l92 91v1q2 3 6 3q8 0 19 -8t11 -19
q0 -3 -5.5 -16.5t-15.5 -34l-23 -47l-28 -55.5q3 1 6.5 1h6.5q11 0 23 -6t12 -18q0 -4 -4 -11t-9 -7t-2 7l4 10.5t-1 5.5q-17 0 -51 -8q-20 -35 -42 -69t-44 -61t-42.5 -43.5t-37.5 -16.5q-22 0 -31.5 15t-9.5 34q0 3 3 3zM148 328q7 0 18.5 -5.5t12.5 -13.5q1 -3 -2.5 -9
t-9 -13l-11 -14t-8.5 -13q-3 -8 -4 -13t-3 -5q-8 -1 -15.5 9.5t-8.5 15.5q-1 3 2.5 13t9 20.5t11 19t8.5 8.5zM-97 -191q1 2 2.5 2t2.5 1q4 4 7.5 8l7.5 9q3 5 6.5 9t6.5 8q3 5 6 9.5t6 9.5l12 18l5.5 9.5l5.5 9.5l4 10.5t5 10.5q1 1 1 2t1 2v1q-1 0 -3 -5l-5.5 -9.5
l-5.5 -9.5l-22.5 -37.5t-25.5 -35.5q-6 -9 -14 -17q-1 -3 -4 -4q-2 -2 1 -1zM-122 -93q20 18 42.5 32.5t46.5 26.5q-2 -1 -5.5 -2.5l-8.5 -3.5q-4 -2 -8 -4.5t-8 -4.5q-8 -5 -16 -9.5t-15 -9.5q-2 -2 -4 -3t-4 -3l-7 -6q-2 -2 -2.5 -2t-1.5 -1l-10 -9q-16 -16 -24 -28
l12 13.5z" />
    <glyph glyph-name="k" unicode="k" horiz-adv-x="232" 
d="M-43 -15q0 22 17.5 55t46 71.5t64.5 80t72.5 79.5t70.5 69.5t59 51.5q1 1 4 1q5 0 8.5 -9t-1.5 -12q-23 -18 -54 -50.5t-64 -72t-65.5 -82.5t-58.5 -81q0 -6 3 -9q25 27 52.5 53l50.5 46.5t39 33.5t19 14q1 1 3 1q6 0 12.5 -7.5t6.5 -14.5q0 -13 -16 -40.5t-40.5 -55.5
t-54 -49t-56.5 -21q-3 0 -5.5 0.5t-4.5 0.5q0 -22 5.5 -36.5t18.5 -14.5q12 0 32.5 11t41.5 26.5t40 31.5t29 26l4 -18q-11 -14 -28 -32.5t-36.5 -35t-40.5 -28t-39 -11.5q-13 0 -22.5 6.5t-15.5 16.5t-9.5 22t-4.5 22q-19 -23 -31.5 -42t-16.5 -28q-3 -4 -7 -4q-8 0 -18 12
t-10 23zM195 184q-29 -21 -59.5 -51t-56.5 -61q34 6 65 38t51 74zM67 76l17.5 15.5t16.5 15.5l34 32q2 1 9 8l8 8q2 2 4.5 3.5t4.5 3.5l8 8l13 10.5l16 12.5l2 5l-19 -13.5t-14 -11.5l-9 -7q-2 -2 -4.5 -4t-4.5 -4q-5 -4 -8.5 -7.5t-8.5 -7.5q-7 -7 -9 -8q-3 -5 -8 -8
q-4 -5 -8 -8.5t-8 -8.5l-16 -16.5zM18 28q5 7 10.5 13t10.5 13q-1 1 -1 2t-1 2l-9.5 -15.5t-9.5 -14.5zM139 93l9 8q2 1 2.5 2t2.5 2q1 1 1.5 2t2.5 3l4 4q1 1 1.5 2t2.5 3t3.5 4.5t3.5 4.5q-2 -2 -4 -4.5t-4 -4.5l-12 -13q-2 -1 -2.5 -2t-1.5 -2q-7 -7 -18 -15q6 3 9 6z
M176 133l3 5q-3 -3 -5 -8q0 -1 2 3zM14 53q-2 -2 -2 -4l1 1q0 1 0.5 1.5t0.5 1.5z" />
    <glyph glyph-name="l" unicode="l" horiz-adv-x="165" 
d="M201 360q10 0 20 -6t10 -18q0 -3 -16 -26.5t-41.5 -55.5t-58 -68.5t-66.5 -66.5q-29 -53 -29 -103q0 -18 16 -18q13 0 31 9.5t36.5 23t35 27.5t26.5 24l6 -18q-9 -11 -24 -27.5t-32 -32t-34 -26.5t-31 -11q-22 0 -39 17t-17 59q0 28 11.5 60t29.5 64.5t41 64t46 57.5
t44 45t35 26zM73 163q44 38 78 82.5t63 94.5q-39 -42 -75 -85t-66 -92zM114 193l16 16q2 2 3.5 4.5t3.5 4.5l15 17q2 2 4 4.5t4 4.5q6 8 7 9q7 9 13.5 18.5t13.5 18.5l12 19.5t11 20.5q-3 -5 -6 -9.5t-6 -9.5q-4 -6 -7 -10l-6 -9q-4 -5 -7 -9.5t-7 -9.5l-14 -18
q-2 -3 -3.5 -5t-3.5 -4q-2 -3 -3.5 -5t-3.5 -4l-14 -18q-8 -8 -15.5 -17t-15.5 -17q2 1 9 8z" />
    <glyph glyph-name="less" unicode="&#x3c;" horiz-adv-x="310" 
d="M302 317q1 1 3 1q10 0 7 -16q-1 -5 -8 -11.5l-15 -13.5q-9 -8 -21 -16l-49.5 -35.5l-58 -41l-57.5 -39t-48 -29.5q25 -6 57 -17t60.5 -26.5t48 -35.5t19.5 -43q0 -8 -4 -8q-3 0 -3 3q-15 24 -50.5 42.5t-72.5 31.5q-43 15 -93 27q-5 1 -9 5t-4 11q0 17 10 17h7t9 -1
q20 11 51 30.5l65 42l65.5 44.5t50.5 37q5 4 5 7.5t2 6.5q1 2 5.5 5.5l10 8l10.5 8.5t7 5zM226 16q-15 19 -38.5 33.5t-46 24t-39 14.5l-16.5 5q30 -8 55.5 -21.5t44.5 -25.5q22 -15 40 -30z" />
    <glyph glyph-name="m" unicode="m" horiz-adv-x="314" 
d="M319 64q-23 -28 -44 -50q-18 -19 -37 -34.5t-31 -15.5q-14 0 -25 11.5t-11 34.5q0 12 2.5 23.5l4.5 21.5q3 11 7 21q-17 -17 -32 -30l-23 -22.5t-14 -12.5q-2 -2 -5 -2q-6 0 -13 6.5t-7 16.5q0 11 5.5 25.5t12.5 27.5q8 15 18 31q-22 -18 -47.5 -43t-47.5 -50t-38 -45
t-20 -26q-5 -8 -10 -8q-6 0 -11.5 9t-5.5 21q0 14 11 37.5t28.5 51t38.5 55.5t41.5 51t37.5 37.5t25 14.5q9 0 12.5 -7t-0.5 -9q-32 -29 -65.5 -75.5t-65.5 -106.5l72 66l27 23.5l24 21t18 15t8 5.5q6 0 14.5 -8.5t8.5 -13.5q0 -6 -17 -28t-33 -53q17 17 32 30
q12 11 23.5 20t16.5 9t12 -5t7 -12q0 -3 -3.5 -12.5t-8 -23t-8.5 -30t-4 -33.5q8 0 26.5 13.5t38.5 30.5q23 19 50 44zM21 91q3 5 6.5 8.5t6.5 8.5t6.5 9t6.5 9t6.5 8.5t6.5 8.5l27 35q-8 -8 -14.5 -16.5t-14.5 -16.5l-13.5 -17.5t-12.5 -17.5q-13 -17 -25 -35.5t-23 -37.5z
M75 75q5 4 8.5 8t8.5 9q-5 -4 -9 -8t-9 -8t-8.5 -8t-8.5 -8t-8.5 -8t-8.5 -8l-17 -17l9 7.5t9 8.5l9 7.5t8 8.5l9 7.5t8 8.5z" />
    <glyph glyph-name="macron" unicode="&#xaf;" horiz-adv-x="199" 
d="M18 267q0 7 6 11.5t11 4.5q3 0 3 -2q18 6 38 10q17 4 39 7t44 3q29 0 29 -18q0 -5 -5 -10.5t-9 -5.5q-6 0 -8 7q-2 3 -2 7q-24 0 -48 -4t-43 -9.5t-31.5 -9.5t-14.5 -4q-3 0 -6 4t-3 9z" />
    <glyph glyph-name="minus" unicode="&#x2212;" 
d="M19 115q5 5 40 12.5t93 7.5q17 0 26.5 -4.5t9.5 -9.5q0 -8 -4 -12q-2 -2 -4 -2q-3 0 -3.5 1.5t-2 3t-4.5 2.5t-11 1q-42 0 -79.5 -8.5t-53.5 -13.5q-4 2 -7 5q-5 7 0 17z" />
    <glyph glyph-name="multiply" unicode="&#xd7;" horiz-adv-x="199" 
d="M195 203q2 -5 2 -8t-1 -5t-3 -4q-1 -1 -3 -1t-2.5 0.5t-2.5 0.5t-5.5 -1t-10.5 -5l-22 -14.5t-21 -15.5l12.5 -17.5t11.5 -18.5q14 -23 1 -32q-1 -1 -5 -1q-10 0 -13 5q-1 5 2 10l4 4q-6 11 -13 20.5t-15 18.5q-21 -17 -36.5 -31.5l-23.5 -22.5h-1q-1 -1 -4 -1q-4 0 -8 3
t-3 12q2 5 17.5 20t43.5 36q-15 16 -26.5 26.5t-12.5 12.5q-2 2 -0.5 6.5t5.5 7.5q1 1 4 1q6 0 11.5 -4.5t3.5 -6.5q4 -4 9 -8l10.5 -10.5t11.5 -13.5q6 5 15.5 11.5t20 13t21 11t17.5 4.5q8 0 9 -3z" />
    <glyph glyph-name="n" unicode="n" horiz-adv-x="221" 
d="M87 181q5 0 9 -5.5t1 -10.5q-4 -4 -12.5 -15t-19.5 -27.5t-23 -36.5t-24 -43l25 21l40 33l38.5 30.5t20.5 13.5t8 -3.5t9.5 -8t8 -9t3.5 -7.5q1 -2 -4 -16.5l-11 -31.5q-4 -10 -7.5 -20.5t-8.5 -22.5l-4 -9q12 8 26.5 20l28.5 23l15 13l15 13l5 -18q-7 -9 -20.5 -24.5
t-29.5 -30.5t-31 -26.5t-25 -11.5q-8 0 -17.5 9.5t-9.5 18.5q1 6 7 21.5t14 34l15.5 35.5l10.5 24l-7 -3.5t-5 -3.5q-4 -1 -8 -5q1 1 1.5 1t1.5 1q-2 -2 -3 -2q-27 -18 -50 -40t-40.5 -42.5t-28 -35.5t-12.5 -19q-2 -3 -6 -3q-7 0 -17 9t-12 19q-1 6 6.5 23t20.5 38l28.5 44
t30.5 42t28 31.5t19 12.5zM-17 -9q8 19 18 35l20 34l2 4t3 5q2 2 2.5 4t2.5 4l31 50q-13 -16 -24 -31q-3 -5 -5.5 -8.5t-5.5 -8.5q-3 -4 -5.5 -8t-5.5 -8l-5 -9l-2 -4l-2 -4l-5 -9q-2 -2 -2.5 -4.5t-2.5 -4.5l-8 -18t-6 -19zM33 32l24 21q3 2 6 5t6 5t6 5t6 5q6 6 13 10
q3 2 6 5t6 5l6.5 4.5l6.5 4.5q-4 -2 -7 -4t-7 -4l-13 -9.5t-12 -9.5l-24 -21q-6 -5 -12 -11z" />
    <glyph glyph-name="n.ss01" horiz-adv-x="215" 
d="M55 167q-2 1 -3 2q-2 3 -1 4q10 13 20 23q8 8 16.5 15t13.5 7q6 0 11 -6.5t0 -14.5q-1 -3 -14.5 -25.5l-30.5 -52.5t-33 -61.5t-23 -52.5l27 31l45 49.5l43 46t20 20.5q10 0 21.5 -10.5t13.5 -21.5q1 -4 -4.5 -20l-12 -35.5t-12 -38t-3.5 -27.5q1 -4 2.5 -4.5t2.5 -3.5
q0 -3 -4 -3q-6 0 -16.5 8.5t-14.5 28.5q-3 17 1 37t11 37q8 21 19 41q-18 -18 -42 -46l-46 -55.5l-38.5 -49t-20.5 -25.5q-1 -1 -4 -1q-6 0 -15 9t-12 26q-4 18 8.5 46.5t29.5 55.5q19 32 45 67zM9 23q1 1 3 4q2 6 3 8l9 15q3 8 8 17l5 7l3 9l9 15q3 8 8 16q9 15 16 32
l-10 -15.5t-9 -15.5q-3 -4 -5 -8t-5 -7q-2 -4 -3.5 -8t-3.5 -8l-5 -8.5t-4 -7.5q-2 -2 -4 -8q-1 -2 -3 -8l-2 -4l-2 -4l-3 -8q-1 -2 -1.5 -4t-1.5 -4t-1 -2.5t-1 -2.5zM44 28l12 12l22 27q4 4 6.5 7t5.5 6l11 14.5l11 14.5l-13 -13.5l-12 -12.5q-2 -4 -4.5 -7.5t-6.5 -6.5
l-22 -27q-4 -3 -6.5 -6.5t-5.5 -6.5l-11 -14.5l-10 -13.5q6 7 12 13t11 14zM76 152q2 2 3.5 5t3.5 5q4 8 7 11q2 2 2.5 5t2.5 5q2 3 3 5.5t3 6.5q-3 -7 -7 -11q-2 -2 -3.5 -5t-3.5 -5q-4 -5 -5 -11q-2 -3 -3 -5.5t-3 -5.5z" />
    <glyph glyph-name="nine" unicode="9" horiz-adv-x="271" 
d="M264 304q0 -11 -6.5 -24t-11.5 -20q5 -6 8.5 -16t3.5 -19q0 -15 -8 -40.5t-21.5 -55t-32.5 -59.5t-40.5 -54t-44.5 -39.5t-46 -15.5t-37 11t-22 25.5t-10.5 28t-2.5 17.5q0 10 7 10q4 0 4 -6q0 -3 2 -10t7.5 -14t15 -12.5t25.5 -5.5q14 0 33 12.5t39 32.5t39.5 45.5
t34.5 52t24.5 51.5t9.5 44l-76 -63l-30 -23t-28.5 -20t-24 -14.5t-16.5 -5.5q-11 0 -20 8t-9 32q0 25 20.5 58.5t50 64t62 51.5t56.5 21q22 0 33.5 -16t11.5 -32zM86 -6q5 0 18 4t31.5 20.5t41 49.5t46.5 91q-21 -40 -44 -73q-20 -29 -44 -56t-49 -36zM228 268q2 2 6 12.5
t6.5 22.5t0.5 21.5t-12 9.5q-17 0 -36 -12t-37 -30.5t-35 -41t-29.5 -44t-20 -39t-7.5 -25.5q15 6 39.5 22t49.5 35l46.5 36.5t30.5 25.5q-4 4 -2 7z" />
    <glyph glyph-name="ntilde" unicode="&#xf1;" horiz-adv-x="221" 
d="M87 181q5 0 9 -5.5t1 -10.5q-4 -4 -12.5 -15t-19.5 -27.5t-23 -36.5t-24 -43l25 21l40 33l38.5 30.5t20.5 13.5t8 -3.5t9.5 -8t8 -9t3.5 -7.5q1 -2 -4 -16.5l-11 -31.5q-4 -10 -7.5 -20.5t-8.5 -22.5l-4 -9q12 8 26.5 20l28.5 23l15 13l15 13l5 -18q-7 -9 -20.5 -24.5
t-29.5 -30.5t-31 -26.5t-25 -11.5q-8 0 -17.5 9.5t-9.5 18.5q1 6 7 21.5t14 34l15.5 35.5l10.5 24l-7 -3.5t-5 -3.5q-4 -1 -8 -5q1 1 1.5 1t1.5 1q-2 -2 -3 -2q-27 -18 -50 -40t-40.5 -42.5t-28 -35.5t-12.5 -19q-2 -3 -6 -3q-7 0 -17 9t-12 19q-1 6 6.5 23t20.5 38l28.5 44
t30.5 42t28 31.5t19 12.5zM-17 -9q8 19 18 35l20 34l2 4t3 5q2 2 2.5 4t2.5 4l31 50q-13 -16 -24 -31q-3 -5 -5.5 -8.5t-5.5 -8.5q-3 -4 -5.5 -8t-5.5 -8l-5 -9l-2 -4l-2 -4l-5 -9q-2 -2 -2.5 -4.5t-2.5 -4.5l-8 -18t-6 -19zM33 32l24 21q3 2 6 5t6 5t6 5t6 5q6 6 13 10
q3 2 6 5t6 5l6.5 4.5l6.5 4.5q-4 -2 -7 -4t-7 -4l-13 -9.5t-12 -9.5l-24 -21q-6 -5 -12 -11zM73 263q-5 0 -7.5 4.5t-1 10t7.5 10t16 4.5q11 0 20 -2t18 -4.5t19 -4.5t22 -2q7 0 9.5 1.5t4 3t2 3t2.5 1.5q5 0 7 -5t-0.5 -10.5t-9 -10.5t-19.5 -5q-25 0 -42 8t-36 8
q-9 0 -8.5 -5t-3.5 -5z" />
    <glyph glyph-name="numbersign" unicode="#" horiz-adv-x="325" 
d="M299 247q1 1 5 1q6 0 12 -3.5t1 -6.5q-4 -3 -17 -17.5l-41 -46.5q36 -1 47 -9.5t11 -16.5q0 -6 -5.5 -8.5t-11.5 -2.5q-4 0 -6 7v6q-1 2 -6 3q-7 3 -36 3q-2 0 -4 -0.5t-4 -0.5l-27 -33q-2 -3 -4.5 -6t-5.5 -7q16 2 32 2h32q19 0 30.5 -7.5t11.5 -20.5q0 -6 -5 -8t-9 -2
q-2 0 -4 8v7q-24 0 -50.5 -0.5t-55.5 -2.5q-35 -49 -53.5 -81.5t-20.5 -37.5q-1 -3 -5 -3q-5 0 -11 5.5t-4 14.5q5 20 20.5 45.5t36.5 53.5q-12 -2 -24.5 -3.5t-26.5 -3.5q-27 -37 -39 -56.5t-14 -23.5q-1 -3 -6 -3t-11.5 5t-3.5 11l18 31t19 29q-30 -6 -63 -15q-3 -1 -6 2
t-4.5 8t-0.5 9.5t4 6.5q6 2 30 7.5t61 10.5q10 14 19.5 25.5l17.5 21.5q-17 -3 -34.5 -6.5t-34.5 -8.5q-5 -1 -9.5 7.5t-0.5 12.5q3 2 30.5 7.5t69.5 10.5l7 8.5t5 5.5q3 2 5 4q-1 1 -1 2q-2 4 1 5q1 1 10.5 11.5l21.5 23.5l22.5 24.5t13.5 14.5q7 -2 12 -4t7.5 -4.5
t-1.5 -6.5l-37 -42.5l-32 -37.5q24 2 51 3l46 49.5t25 23.5zM122 102q11 2 23.5 3l25.5 2l19.5 24t19.5 23q-11 -1 -24 -2t-27 -3l-20 -24.5zM173 84q-3 0 -5 -1l-11.5 -16l-10.5 -16zM230 155h-5l-18.5 -23l-19.5 -24q4 0 6 1zM272 207q-4 -4 -8 -9t-9.5 -10.5t-12.5 -13.5
h3z" />
    <glyph glyph-name="o" unicode="o" horiz-adv-x="200" 
d="M205 64q-14 -14 -32 -25q-17 -9 -40 -17t-55 -8q-20 -19 -39 -30t-33 -11t-24 10t-11 25q-2 12 5 30t15 32q-3 6 -3 14q-2 23 10 47t32 44.5t44.5 33.5t47.5 13q19 0 31.5 -12.5t14.5 -25.5q2 -18 -4 -38.5t-17 -41.5t-25.5 -41t-30.5 -37q20 0 39.5 8.5t34.5 19.5
q19 12 35 28zM140 206q-22 -3 -44 -16q-18 -11 -39.5 -32.5t-40.5 -60.5q18 26 32.5 43.5t28 29.5t29 20t34.5 16zM-5 -5q10 0 20.5 5t24.5 18q-8 2 -17.5 10t-13.5 13l-8 -16t-6.5 -15t-3 -11t3.5 -4zM54 30q18 17 35.5 39t31.5 44t22 41.5t7 32.5q0 9 -5 9
q-14 0 -33.5 -11t-38.5 -28.5t-33.5 -37.5t-19.5 -38q6 -4 6 -8l-7 -14q3 -13 13.5 -19.5t21.5 -9.5zM82 25q16 16 29 34q12 15 23.5 33.5t16.5 37.5q-7 -15 -18 -33q-8 -14 -21.5 -33t-32.5 -39h3z" />
    <glyph glyph-name="oacute" unicode="&#xf3;" horiz-adv-x="200" 
d="M205 64q-14 -14 -32 -25q-17 -9 -40 -17t-55 -8q-20 -19 -39 -30t-33 -11t-24 10t-11 25q-2 12 5 30t15 32q-3 6 -3 14q-2 23 10 47t32 44.5t44.5 33.5t47.5 13q19 0 31.5 -12.5t14.5 -25.5q2 -18 -4 -38.5t-17 -41.5t-25.5 -41t-30.5 -37q20 0 39.5 8.5t34.5 19.5
q19 12 35 28zM140 206q-22 -3 -44 -16q-18 -11 -39.5 -32.5t-40.5 -60.5q18 26 32.5 43.5t28 29.5t29 20t34.5 16zM-5 -5q10 0 20.5 5t24.5 18q-8 2 -17.5 10t-13.5 13l-8 -16t-6.5 -15t-3 -11t3.5 -4zM54 30q18 17 35.5 39t31.5 44t22 41.5t7 32.5q0 9 -5 9
q-14 0 -33.5 -11t-38.5 -28.5t-33.5 -37.5t-19.5 -38q6 -4 6 -8l-7 -14q3 -13 13.5 -19.5t21.5 -9.5zM82 25q16 16 29 34q12 15 23.5 33.5t16.5 37.5q-7 -15 -18 -33q-8 -14 -21.5 -33t-32.5 -39h3zM125 321q2 2 4 2q6 0 12 -9.5t4 -16.5q-2 -6 -10 -13t-18.5 -13.5
t-22.5 -11t-23 -4.5q-15 0 -16 8t4 8q6 0 15 5.5t18.5 13t18 16.5z" />
    <glyph glyph-name="ocircumflex" unicode="&#xf4;" horiz-adv-x="200" 
d="M205 64q-14 -14 -32 -25q-17 -9 -40 -17t-55 -8q-20 -19 -39 -30t-33 -11t-24 10t-11 25q-2 12 5 30t15 32q-3 6 -3 14q-2 23 10 47t32 44.5t44.5 33.5t47.5 13q19 0 31.5 -12.5t14.5 -25.5q2 -18 -4 -38.5t-17 -41.5t-25.5 -41t-30.5 -37q20 0 39.5 8.5t34.5 19.5
q19 12 35 28zM140 206q-22 -3 -44 -16q-18 -11 -39.5 -32.5t-40.5 -60.5q18 26 32.5 43.5t28 29.5t29 20t34.5 16zM-5 -5q10 0 20.5 5t24.5 18q-8 2 -17.5 10t-13.5 13l-8 -16t-6.5 -15t-3 -11t3.5 -4zM54 30q18 17 35.5 39t31.5 44t22 41.5t7 32.5q0 9 -5 9
q-14 0 -33.5 -11t-38.5 -28.5t-33.5 -37.5t-19.5 -38q6 -4 6 -8l-7 -14q3 -13 13.5 -19.5t21.5 -9.5zM82 25q16 16 29 34q12 15 23.5 33.5t16.5 37.5q-7 -15 -18 -33q-8 -14 -21.5 -33t-32.5 -39h3zM165 273q5 -1 6 -3.5t1 -4.5q-1 -2 -3 -4t-9 -2q-14 0 -30.5 10t-24.5 30
l-23 -16l-20.5 -12t-18.5 -8q-2 -1 -6 -1q-5 0 -7 3q-5 5 2 10q5 3 14.5 9.5t20 14.5l20 15.5t13.5 11.5l1 4q4 4 12 4q7 0 8 -3l2 -2t3 -6q3 -4 7.5 -12t10 -16t11 -14t10.5 -8z" />
    <glyph glyph-name="odieresis" unicode="&#xf6;" horiz-adv-x="200" 
d="M205 64q-14 -14 -32 -25q-17 -9 -40 -17t-55 -8q-20 -19 -39 -30t-33 -11t-24 10t-11 25q-2 12 5 30t15 32q-3 6 -3 14q-2 23 10 47t32 44.5t44.5 33.5t47.5 13q19 0 31.5 -12.5t14.5 -25.5q2 -18 -4 -38.5t-17 -41.5t-25.5 -41t-30.5 -37q20 0 39.5 8.5t34.5 19.5
q19 12 35 28zM140 206q-22 -3 -44 -16q-18 -11 -39.5 -32.5t-40.5 -60.5q18 26 32.5 43.5t28 29.5t29 20t34.5 16zM-5 -5q10 0 20.5 5t24.5 18q-8 2 -17.5 10t-13.5 13l-8 -16t-6.5 -15t-3 -11t3.5 -4zM54 30q18 17 35.5 39t31.5 44t22 41.5t7 32.5q0 9 -5 9
q-14 0 -33.5 -11t-38.5 -28.5t-33.5 -37.5t-19.5 -38q6 -4 6 -8l-7 -14q3 -13 13.5 -19.5t21.5 -9.5zM82 25q16 16 29 34q12 15 23.5 33.5t16.5 37.5q-7 -15 -18 -33q-8 -14 -21.5 -33t-32.5 -39h3zM54 303q6 2 9 2q11 0 18.5 -9t1.5 -17q-5 -8 -16 -8q-10 0 -14 7
q-3 5 -5 13t6 12zM150 299q4 -8 2 -15.5t-10 -12.5q-6 -2 -8 -2q-10 0 -17 9t-3 18q2 5 8 8t12 3q11 0 16 -8z" />
    <glyph glyph-name="oe" unicode="&#x153;" horiz-adv-x="337" 
d="M169 229q3 0 6.5 -0.5t3.5 -4.5q14 0 23 -8t9 -31q0 -5 -0.5 -9.5t-1.5 -9.5q25 23 49.5 37.5t41.5 14.5q10 0 19 -10t9 -19q0 -6 -12 -25t-28.5 -39t-34.5 -35.5t-29 -15.5q-8 0 -13.5 5t-7.5 10q-14 -21 -23.5 -41t-9.5 -36q0 -12 19 -12q14 0 34.5 9.5t41.5 22.5
t40.5 27l31.5 23l5 -18l-28 -29.5t-34 -30t-37 -23t-38 -9.5q-29 0 -47.5 22.5t-18.5 49.5q-27 -31 -56.5 -51.5t-52.5 -20.5q-14 0 -19.5 8t-6.5 17q-2 12 3 26q-15 8 -15 30q0 25 20 55.5t48.5 57.5t58.5 45t50 18zM13 34q2 4 7 12.5t11 16.5t12 14.5t10 6.5t10.5 -3
t3.5 -10q-1 -3 -8.5 -14t-15 -23.5t-11.5 -22t0 -9.5q8 0 22.5 9t32.5 24t36.5 34.5t34 41t25 43t9.5 40.5q0 4 -1 7.5t-4 3.5q-25 0 -56 -20t-58 -47t-45 -54.5t-18 -42.5q0 -7 3 -7zM218 95q11 0 26 14t28.5 30.5t22.5 30t7 13.5q-7 0 -18 -7t-23.5 -19t-26.5 -28t-26 -33
q1 -1 10 -1zM2 73q21 31 45.5 59.5t54.5 51.5q-29 -21 -58 -49t-42 -62zM248 11q5 2 9 5t9 5q4 3 7 5.5t8 5.5l-16 -9l-9 -5.5t-9 -4.5t-9 -4l-8 -4q-5 -2 -9.5 -4t-9.5 -4q10 3 19 6t18 8zM204 148q2 2 3.5 4t3.5 4q5 6 11 11.5t11 11.5l-12 -10.5l-11 -10.5q-1 -1 -2 -1.5
t-2 -1.5q-1 -2 -1 -3.5t-1 -3.5z" />
    <glyph glyph-name="ogonek" unicode="&#x2db;" horiz-adv-x="152" 
d="M72 -36q0 -6 -5 -17t-13.5 -22.5t-20 -20t-24.5 -8.5q-10 0 -18.5 9t-8.5 20q0 10 6.5 24t17 28t23.5 26.5t25 21.5q2 -5 3 -10q-10 -10 -19.5 -22t-17.5 -24.5t-13 -24.5t-5 -22q0 -2 1 -2q7 0 17 4.5t19 11.5t16 15.5t9 15.5q0 1 3 1q5 0 5 -4z" />
    <glyph glyph-name="ograve" unicode="&#xf2;" horiz-adv-x="200" 
d="M205 64q-14 -14 -32 -25q-17 -9 -40 -17t-55 -8q-20 -19 -39 -30t-33 -11t-24 10t-11 25q-2 12 5 30t15 32q-3 6 -3 14q-2 23 10 47t32 44.5t44.5 33.5t47.5 13q19 0 31.5 -12.5t14.5 -25.5q2 -18 -4 -38.5t-17 -41.5t-25.5 -41t-30.5 -37q20 0 39.5 8.5t34.5 19.5
q19 12 35 28zM140 206q-22 -3 -44 -16q-18 -11 -39.5 -32.5t-40.5 -60.5q18 26 32.5 43.5t28 29.5t29 20t34.5 16zM-5 -5q10 0 20.5 5t24.5 18q-8 2 -17.5 10t-13.5 13l-8 -16t-6.5 -15t-3 -11t3.5 -4zM54 30q18 17 35.5 39t31.5 44t22 41.5t7 32.5q0 9 -5 9
q-14 0 -33.5 -11t-38.5 -28.5t-33.5 -37.5t-19.5 -38q6 -4 6 -8l-7 -14q3 -13 13.5 -19.5t21.5 -9.5zM82 25q16 16 29 34q12 15 23.5 33.5t16.5 37.5q-7 -15 -18 -33q-8 -14 -21.5 -33t-32.5 -39h3zM75 322q6 -7 14.5 -16t18 -17t18.5 -13.5t16 -5.5q5 0 4.5 -8t-15.5 -8
q-12 0 -24.5 4.5t-23.5 11.5t-19 14t-10 13q-3 8 4 17.5t13 9.5q2 0 4 -2z" />
    <glyph glyph-name="one" unicode="1" horiz-adv-x="273" 
d="M274 333q10 10 23 10q10 0 15.5 -4.5t0.5 -8.5l-16.5 -16.5t-33.5 -30.5q-26 -37 -47.5 -74t-38.5 -70t-28.5 -61t-18.5 -48q21 3 43 3q19 0 27 -8.5t10 -21.5q-4 3 -9 5t-12 3t-18 1q9 -2 17 -4q7 -2 14 -5t11 -8q1 -4 -2 -7q-1 -1 -3 -1q-5 0 -12.5 5.5t-25.5 5.5
q-27 0 -50 -6v-2q2 -9 -4 -9q-4 0 -12 8q-31 -9 -52 -20.5t-26 -16.5q-7 -5 -10 -5q-5 0 -8 7t-5 26q-1 8 25 20.5t63 22.5q-1 13 9 37.5t26 53.5t36 60.5t39 57.5q-19 -14 -37.5 -24.5t-33.5 -14.5q-2 0 -2.5 -0.5t-1.5 -0.5q-5 0 -7 4q-2 2 -2 4q12 8 34 24.5t45.5 36.5
l44.5 39.5t33 32.5zM167 165q-14 -24 -25 -45q-9 -18 -17 -37t-10 -30z" />
    <glyph glyph-name="onesuperior" unicode="&#xb9;" horiz-adv-x="183" 
d="M154 335q0 -5 -3 -7l-6.5 -6.5t-11.5 -10.5q-18 -26 -30 -49.5t-18 -40.5q2 0 4.5 0.5t5.5 0.5q16 0 19 -18q2 -4 -2 -8q-2 -2 -4 -2q-1 0 -5 2q-3 3 -10 3q-10 0 -15 -1q0 -6 -6 -6q-2 0 -5 3q-11 -3 -17.5 -7t-8.5 -6q-4 -3 -7 -3q-2 0 -3 1q-6 1 -7 16q0 3 4.5 6.5
t10 6.5t11.5 5l9 3q1 11 10.5 28.5t20.5 33.5q-8 -4 -11 -4h-3q-3 0 -4 1l-3 3q-1 1 -1 2q0 4 3 5q5 3 13 9t16.5 13.5l17 15t12.5 12.5q5 5 12 5h5q5 -1 7 -6z" />
    <glyph glyph-name="ordfeminine" unicode="&#xaa;" horiz-adv-x="166" 
d="M139 292q5 0 9.5 -5t4.5 -11q0 -1 -2 -4.5l-8 -13.5l-6.5 -11l-6.5 -11q-5 -9 -8 -20t-1 -14q4 0 4 -5v-4q-2 -2 -3 -2q-7 0 -11 2.5t-6 4.5q-5 7 -5 14q0 10 4.5 22.5t9.5 20.5q-22 -22 -36.5 -34.5l-22.5 -19t-11.5 -8.5t-4.5 -2q-5 0 -12.5 6.5t-7.5 17.5
q0 14 9.5 31.5t24 33t31.5 26t31 10.5q11 0 17 -7q6 -8 4 -18q1 1 3 1zM49 216q18 16 37 31l38 29q-5 3 -5 8v4q1 2 1.5 4.5t-0.5 4.5q-6 0 -17.5 -9.5t-23 -23t-20 -27t-10.5 -21.5z" />
    <glyph glyph-name="ordmasculine" unicode="&#xba;" horiz-adv-x="139" 
d="M116 322q8 -5 8 -20q0 -14 -9.5 -33.5t-23.5 -37.5t-31 -30.5t-31 -12.5q-10 0 -14 6.5t-4 14.5q0 5 2 9q-9 5 -9 17q0 11 10.5 27t25 30.5t31 25t28.5 10.5q1 0 1.5 -0.5t1.5 -0.5v-1q4 0 7.5 -0.5t6.5 -3.5zM48 241q-2 -2 -8.5 -13.5t-8.5 -17.5q10 2 23.5 14.5
t27.5 31.5q13 17 20.5 32t6.5 23q-10 -1 -22.5 -9t-24.5 -18.5t-22.5 -22t-15.5 -20.5q9 12 13 12q8 0 11 -5q3 -4 1 -7h-1z" />
    <glyph glyph-name="oslash" unicode="&#xf8;" horiz-adv-x="225" 
d="M247 313q10 -3 4 -13l-29.5 -43l-28.5 -42q6 -5 10.5 -13t4.5 -24q0 -28 -17 -61.5t-41.5 -63t-52 -52.5t-49.5 -30q-31 -64 -28 -79q0 -10 -6 -13q-4 -2 -9.5 4.5t-8.5 15.5q-2 8 2 26t17 47q-8 5 -10 14t-2 15q0 10 4 19q-7 3 -12 10.5t-5 20.5q0 22 19.5 51.5t47.5 56
t57.5 45t50.5 18.5q2 0 2.5 -0.5t-0.5 -0.5q-16 -4 -36 -15t-33 -22q-20 -14 -39.5 -34t-33.5 -40q37 37 76 70l21 15q6 3 11.5 6.5l10.5 6.5l12 6t12 5q0 1 2 1l29.5 39l32.5 41q-1 1 -1 2q-1 1 2 4q4 5 6.5 6t7.5 1zM29 1q18 35 47 81.5t71 105.5q-23 -12 -47.5 -33
t-45 -43t-34 -42t-13.5 -31q0 -6 4 -8q8 18 19.5 33.5t16.5 15.5q8 0 13.5 -5t3.5 -10q-1 -1 -6.5 -9.5t-11.5 -19t-11 -20.5t-6 -15zM73 18q21 17 43.5 42.5t39.5 52t26.5 51t5.5 37.5h-4l-61 -97.5zM194 147q-2 -5 -3.5 -9.5t-3.5 -9.5t-4.5 -9.5t-4.5 -9.5l-5 -9
q-4 -6 -5 -9q3 5 6 9t5 9q6 9 9 18q2 2 2.5 5t1.5 5q2 2 2 5l1 2q0 2 1 3q2 7 4 19q-1 -1 -1 -4z" />
    <glyph glyph-name="p" unicode="p" horiz-adv-x="217" 
d="M173 191q9 0 14 -9t5 -14q0 -21 -11.5 -55.5t-31.5 -67.5t-46 -56.5t-55 -23.5q-22 0 -36 7t-23 17q-12 -23 -22 -46t-17.5 -43t-11.5 -36t-4 -26q0 -9 3 -10.5t11 -1.5q6 0 2.5 -11t-14.5 -11q-10 0 -24 14t-14 38q0 16 6.5 39.5t18.5 51t28 58t35 59.5q22 33 46 63
t45 52.5t36 35.5t18 13q11 0 14.5 -4.5t-0.5 -9.5q-14 -14 -40 -44t-56 -76l38.5 35l37 31t30.5 22.5t18 8.5zM-83 -136q1 7 2.5 13t3.5 13q2 6 5 12t5 13q2 6 4.5 12.5t5.5 12.5q2 6 4.5 12.5t5.5 12.5l-11.5 -24t-10.5 -26q-6 -10 -9 -25q-1 -3 -1.5 -6.5t-1.5 -6.5
q-2 -8 -2 -13zM-27 -19q5 8 9 17q0 3 -2 5q-2 -5 -5 -10t-5 -10q-3 -7 -6.5 -13.5t-5.5 -12.5q-3 -7 -6.5 -13.5t-5.5 -13.5l-9.5 -27l-9.5 -27q-1 -5 -1.5 -8t-0.5 -6q-1 -5 -1.5 -8t0.5 -8v8l2 7q1 4 2 7t2 7l9 27q3 7 5.5 13.5t5.5 12.5l6 13.5t5 12.5q7 13 12 27zM-9 16
q4 8 8.5 16t8.5 16q0 2 -1 2q-5 -8 -9 -16t-9 -16zM32 3q27 0 52 23t44 52.5t30.5 57.5t11.5 38q0 3 -2 3q-6 0 -23 -15.5t-38 -37l-42 -45l-35 -38.5q-3 -4 -7 -4t-7 3q-5 -8 -8.5 -15.5t-8.5 -15.5q5 -2 13.5 -4t19.5 -2z" />
    <glyph glyph-name="parenleft" unicode="(" horiz-adv-x="235" 
d="M423 461q6 0 0 -6l-11 -11q-90 -61 -159 -133.5t-116 -144.5t-71 -139t-24 -119q0 -13 2 -19.5t5 -9.5t7 -3.5t7 -0.5q4 0 4 -3.5t-2 -7t-5.5 -7t-7.5 -3.5t-12.5 5.5t-17.5 17t-15.5 28t-6.5 38.5q0 36 12 73.5t32 74.5t45 72.5t52 67.5q61 75 140 147v4q0 3 4 6
q6 5 24 19l37.5 29t37 26.5t21.5 11.5q5 0 9 -6t9 -7zM198 282q-19 -19 -37 -40q-16 -17 -33 -39t-30 -43z" />
    <glyph glyph-name="parenright" unicode=")" horiz-adv-x="274" 
d="M-81 -100q3 0 4 -5.5t5 -5.5q3 0 5 2q39 22 77.5 66.5t73 100t63.5 115.5t50.5 113t33.5 93.5t12 56.5q0 10 -1 13.5t-1 8.5q0 7 6 7q5 0 10.5 -9t5.5 -32q0 -33 -16 -88.5t-42 -119t-60 -129t-69 -118t-69.5 -86t-61.5 -33.5q-15 0 -27 6.5t-12 19.5q0 12 5 18t8 6z
M-60 -123q29 8 59 38t58.5 71.5t54.5 90t48 95t38 86l25 62.5q-9 -23 -25.5 -61.5t-38.5 -83.5t-48 -93t-54.5 -90t-58 -73t-58.5 -42z" />
    <glyph glyph-name="percent" unicode="%" horiz-adv-x="346" 
d="M86 198q-6 2 -11 8.5t-5 21.5t9 34.5t24 37t35 29t42 11.5q16 0 26 -4.5t15 -9.5q6 -7 9 -15q3 -3 5.5 -8t2.5 -16t-14 -31.5t-34 -41t-42 -35.5t-39 -15q-9 0 -13.5 5.5t-6.5 11.5q-3 7 -3 17zM199 310q-19 0 -35.5 -9t-28.5 -20q-15 -13 -27 -29q5 -3 9 -6
q3 -3 5.5 -6.5t2.5 -8.5q0 -10 -2 -18.5t3 -8.5q3 0 16.5 10.5t29.5 26t28.5 32t12.5 28.5q0 9 -14 9zM355 351q1 1 4 1q4 0 8.5 -2t8 -5t4.5 -6.5t-3 -6.5t-13 -12.5l-18 -19.5t-16 -19t-8 -11l-6 -8t-6 -5q-2 -1 -5 2t-6 3t-4 -1q-28 -28 -65.5 -70.5t-73 -90.5t-63 -96
t-34.5 -87q1 -8 0 -16t-9 -8t-14 8.5t-11 20.5q-5 13 6.5 38t33.5 58t52.5 70l62.5 74q75 87 175 189zM299 119q8 -2 14 -7q5 -5 9.5 -14.5t4.5 -26.5q0 -16 -16 -39t-37.5 -43t-44.5 -34.5t-38 -14.5q-13 0 -19.5 11t-6.5 20q0 4 2 9.5l4 10.5q2 6 5 12q-3 2 -5 6t-4 9
t-2 13q0 16 10.5 33t27 31.5t37 24t40.5 9.5q14 0 19 -10zM194 -30q7 0 25.5 10t38 26.5t34.5 37t15 40.5t-11 20q-26 0 -45.5 -10.5t-32.5 -24.5q-16 -15 -27 -35q3 2 8 2q7 0 10.5 -6.5t-1.5 -11.5q-9 -13 -14 -24q-5 -9 -6 -16.5t6 -7.5z" />
    <glyph glyph-name="period" unicode="." horiz-adv-x="94" 
d="M28 22q6 2 8 2q13 0 16 -14q2 -6 -1 -11.5t-8.5 -10t-11.5 -7t-11 -2.5q-6 0 -7 4q-3 10 3.5 23.5t11.5 15.5z" />
    <glyph glyph-name="periodcentered" unicode="&#xb7;" horiz-adv-x="94" 
d="M33 151q3 1 7 1q12 0 17 -14q2 -5 -1 -10.5t-8.5 -10t-11.5 -7t-11 -2.5q-6 0 -7 4q-3 10 3.5 23.5t11.5 15.5z" />
    <glyph glyph-name="perthousand" unicode="&#x2030;" horiz-adv-x="508" 
d="M84 204q-10 8 -10 25q0 15 8.5 31.5t21.5 32t27.5 28.5t26.5 21q9 5 17 8.5t19 3.5h1q8 0 17 -6q5 -5 9.5 -12t4.5 -17q0 -15 -12.5 -41.5t-31 -51.5t-39.5 -43.5t-38 -18.5q-13 0 -17.5 9t-4.5 20v5t1 6zM136 284q-13 -12 -22.5 -24.5t-15.5 -22.5l9 11t8 5q8 0 13 -8
q3 -4 1 -8l-1 -2q-1 -1 -3.5 -6l-6 -11.5t-6.5 -13l-5 -10.5q11 3 28.5 20t34.5 43q16 23 26.5 45t9.5 33q-12 -2 -31.5 -16t-38.5 -35zM300 123q8 -2 14 -8q5 -5 9.5 -14t4.5 -26q0 -16 -16 -38.5t-37.5 -42.5t-44.5 -34t-38 -14q-13 0 -19.5 11t-6.5 20q0 4 2 9.5l4 10.5
t5 11q-3 2 -5 6t-4 9t-2 13q0 15 10.5 32.5t27 31.5t37 23.5t40.5 9.5q8 0 12.5 -3t6.5 -7zM195 -24q7 0 25.5 10t38 26t34.5 36t15 40t-11 20q-26 0 -45.5 -10.5t-32.5 -23.5q-16 -16 -27 -35q3 2 8 2q7 0 10.5 -6.5t-1.5 -11.5q-9 -13 -14 -24q-5 -8 -6 -15.5t6 -7.5z
M296 263q-28 -27 -65.5 -69.5t-73 -89.5t-63 -95t-34.5 -86q1 -8 0 -15.5t-9 -7.5t-14 8t-11 20q-5 13 6.5 38t33.5 57.5t52.5 69.5l62.5 73q75 86 175 186q1 1 4 1q4 0 8.5 -2t8 -5t4.5 -6.5t-3 -6.5t-13 -12t-18 -19t-16 -19t-8 -11l-6 -8t-6 -5q-2 -1 -5 2t-6 3t-4 -1z
M472 84q7 -3 7 -20q0 -10 -12 -28t-29.5 -35.5t-37 -30.5t-34.5 -13q-8 0 -12 4.5t-6 9.5q-2 7 -2 15q-6 2 -10.5 7.5t-4.5 19.5q0 13 8 29.5t21.5 31.5t31 25t36.5 10q14 0 22.5 -3.5t13.5 -8.5q5 -6 8 -13zM374 -17q5 0 19.5 11t29.5 26.5t27 32t12 28.5q0 7 -13 7
q-22 0 -39 -9.5t-29 -20.5q-14 -13 -24 -30l8 -6q8 -6 8 -14t-2 -16.5t3 -8.5z" />
    <glyph glyph-name="plus" unicode="+" horiz-adv-x="191" 
d="M171 133q1 -2 -0.5 -2.5t-2.5 -0.5q-20 0 -42 -2t-43 -5q-22 -44 -27 -69l1 1h4q3 0 3 -3t-3.5 -9t-6.5 -6t-8 2t-5 15t5.5 30t14.5 35q-33 -8 -48 -17q-4 -2 -7 -2q-5 0 -9.5 2.5t-4.5 8.5t21.5 18t63.5 18q20 32 40.5 58.5t31.5 33.5l2 2q2 0 3 0.5t3 0.5q3 0 4 -1
q5 -3 -3 -11q-17 -16 -32 -37t-28 -43q8 1 17 1h19q23 0 30 -6.5t7 -11.5z" />
    <glyph glyph-name="q" unicode="q" horiz-adv-x="238" 
d="M246 205q8 0 13 -5.5t1 -10.5l-2 -2l-46.5 -56.5t-42.5 -55.5q-26 -41 -46 -81.5t-33 -76.5t-19 -66t-5 -49q2 -15 6 -16t4 -5q0 -5 -4 -5q-6 0 -17 13t-13 39t2.5 46t6.5 25l5.5 13l5.5 13l12 27l6.5 12.5l6.5 12.5l6 12.5t7 13.5q11 23 27 49q-13 -17 -23 -35t-20 -38
q-8 -12 -14 -25t-11 -27l-3.5 -9l-3.5 -9q14 52 44.5 103.5t62.5 93.5q-4 -3 -7 -6l-6 -6q-21 -19 -40 -38.5l-34.5 -34.5l-26 -24.5t-14.5 -9.5q-6 0 -13 4t-13 10t-10.5 14t-5.5 16q-2 22 10.5 52t33.5 57t48 46t54 19q6 0 13.5 -2t15 -6.5t13 -12.5t6.5 -19v-13
l40.5 37.5t22.5 15.5zM81 -73q2 8 5 15.5t5 15.5q-17 -30 -26 -60q-3 -8 -4.5 -16t-3.5 -16q-1 -2 -1 -4t-1 -4v-9q-2 -8 0 -16q1 4 1 7.5t1 8.5q1 4 1.5 7.5t1.5 8.5q2 8 4.5 15.5t4.5 15.5q3 8 5.5 15.5t6.5 15.5zM160 131q2 6 3.5 15t1.5 16.5t-1 13t-6 5.5
q-19 0 -43 -21.5t-45 -49.5t-33.5 -55.5t-8.5 -39.5q2 0 13.5 10l29.5 25.5l40 35.5l44 40q1 2 2 2.5t3 2.5z" />
    <glyph glyph-name="question" unicode="?" horiz-adv-x="231" 
d="M91 63q0 -8 3 -8t3 -4t-5 -4q-6 0 -16 8.5t-10 23.5q0 20 18 46t45 54.5t59 58.5t59 58.5t45 53.5t18 44q0 5 -9.5 9t-32.5 4q-27 0 -65 -13.5t-73 -34.5t-60 -45t-25 -45q0 -19 9.5 -24.5t14.5 -5.5t1 -8t-13 -8t-20 11.5t-11 37.5q0 29 20.5 57t55 51t79 37t92.5 14
q32 0 44 -8.5t11 -21.5q2 0 4 -3t3 -9t1 -19t-18 -38.5t-45.5 -57l-59 -65.5l-59 -64t-45.5 -52t-18 -30zM278 316l-31.5 -31.5l-42 -42l-45 -46l-41 -44.5t-29.5 -37.5t-11 -24.5q4 9 26 35l51.5 59l62.5 68.5zM61 -23q2 -1 4 -3l2 -4t1 -4q0 -3 -2.5 -8.5t-7 -11.5
t-10.5 -10.5t-13 -4.5t-9.5 10t0 21.5t9 21.5t15.5 10q8 0 10.5 -2.5t2.5 -6.5q0 -3 -2 -8z" />
    <glyph glyph-name="questiondown" unicode="&#xbf;" horiz-adv-x="231" 
d="M214 299q0 8 -3 8t-3 4t5 4q6 0 16 -8.5t10 -23.5q0 -20 -18 -46t-45 -54.5t-59 -58.5t-59 -58.5t-45 -53.5t-18 -44q0 -5 9.5 -9t32.5 -4q27 0 65 13.5t73 34.5t60 45t25 45q0 19 -9.5 24.5t-14.5 5.5t-1 8t13 8t20 -11.5t11 -37.5q0 -28 -20.5 -56.5t-55 -51.5t-79 -37
t-92.5 -14q-32 0 -44 8.5t-11 21.5q-2 0 -4 3t-3 9t-1 19t18 38.5t45.5 57l59 65.5l59 64t45.5 52t18 30zM27 46l31.5 31.5l42 42l45 46l41 44.5t30 37.5t10.5 24.5q-4 -9 -26 -35l-51.5 -59l-62.5 -68zM244 385q-2 1 -3 3q-4 4 -4 8q0 3 2.5 8.5t7 11.5t10.5 10.5t13 4.5
q8 0 10 -10t-0.5 -21.5t-9 -21.5t-15.5 -10q-13 0 -13 9q0 3 2 8z" />
    <glyph glyph-name="quotedbl" unicode="&#x22;" horiz-adv-x="111" 
d="M72 371l-18.5 -19t-25.5 -37q-1 -3 -4 -3q-8 0 -10 17q-1 5 4.5 15.5t13 21.5t15.5 19.5t12 8.5q10 1 14 -8.5t-1 -14.5zM135 400q12 0 17 -2.5t1 -6.5q-2 -1 -15 -12.5t-28 -27t-27 -32t-12 -29.5q0 -8 -4 -8t-8.5 5.5t-4.5 12.5q0 10 9 26.5t22 33t26.5 28.5t23.5 12z
" />
    <glyph glyph-name="quotedblbase" unicode="&#x201e;" horiz-adv-x="97" 
d="M63 42q-9 -6 -15 -6q-5 0 -7 3.5t0 7.5l8.5 12.5l13.5 20.5l13.5 21t7.5 13q0 4 8 4q5 0 10.5 -2.5t7.5 -7.5q1 -3 -3.5 -11.5t-11.5 -19t-15.5 -20t-16.5 -15.5zM12 48q-6 -3 -9 -3q-5 0 -4.5 5.5t3.5 9.5q3 3 8.5 12.5t11.5 21t10.5 21.5t5.5 13q0 3 7 3q5 0 11 -2.5
t8 -7.5q2 -3 -3 -13t-13 -22t-18 -22.5t-18 -15.5z" />
    <glyph glyph-name="quotedblleft" unicode="&#x201c;" horiz-adv-x="97" 
d="M69 366q9 6 15 6q5 0 7 -3.5t0 -7.5l-8.5 -12.5l-13.5 -20.5l-13 -21t-8 -13q0 -4 -8 -4q-5 0 -10.5 2.5t-7.5 7.5q-1 3 3.5 11.5t11.5 19t16 20t16 15.5zM120 360q6 3 9 3q5 0 4.5 -5.5t-3.5 -9.5q-3 -3 -8.5 -12.5l-11.5 -20.5t-10.5 -21.5t-5.5 -13.5q0 -3 -7 -3
q-5 0 -11 2.5t-8 7.5q-1 3 3.5 13t12.5 22t18 23t18 15z" />
    <glyph glyph-name="quotedblright" unicode="&#x201d;" horiz-adv-x="97" 
d="M88 288q-9 -6 -15 -6q-5 0 -7 3.5t0 7.5l8.5 12.5l13.5 20.5l13.5 21t7.5 13q0 4 8 4q5 0 10.5 -2.5t7.5 -7.5q1 -3 -3.5 -11.5t-11.5 -19t-15.5 -20t-16.5 -15.5zM37 294q-6 -3 -9 -3q-5 0 -4.5 5.5t3.5 9.5q3 3 8.5 12.5t11.5 21t10.5 21.5t5.5 13q0 3 7 3q5 0 11 -2.5
t8 -7.5q2 -3 -3 -13t-13 -22t-18 -22.5t-18 -15.5z" />
    <glyph glyph-name="quoteleft" unicode="&#x2018;" horiz-adv-x="97" 
d="M69 366q9 6 15 6q5 0 7 -3.5t0 -7.5l-8.5 -12.5l-13.5 -20.5l-13 -21t-8 -13q0 -4 -8 -4q-5 0 -10.5 2.5t-7.5 7.5q-1 3 3.5 11.5t11.5 19t16 20t16 15.5z" />
    <glyph glyph-name="quoteright" unicode="&#x2019;" horiz-adv-x="97" 
d="M37 294q-6 -3 -9 -3q-5 0 -4.5 5.5t3.5 9.5q3 3 8.5 12.5t11.5 21t10.5 21.5t5.5 13q0 3 7 3q5 0 11 -2.5t8 -7.5q2 -3 -3 -13t-13 -22t-18 -22.5t-18 -15.5z" />
    <glyph glyph-name="quotesinglbase" unicode="&#x201a;" horiz-adv-x="97" 
d="M32 48q-6 -3 -9 -3q-5 0 -4.5 5.5t3.5 9.5q3 3 8.5 12.5t11.5 21t10.5 21.5t5.5 13q0 3 7 3q5 0 11 -2.5t8 -7.5q2 -3 -3 -13t-13 -22t-18 -22.5t-18 -15.5z" />
    <glyph glyph-name="quotesingle" unicode="'" horiz-adv-x="71" 
d="M65 371q6 0 11 -2.5t8.5 -6t4.5 -6.5t-1 -4q-3 -2 -10 -11l-14.5 -19.5l-14 -19.5t-7.5 -12q-3 -3 -7 -3q-5 0 -10 4.5t-3 14.5q2 9 7.5 20t12 21t13 17t10.5 7z" />
    <glyph glyph-name="r" unicode="r" horiz-adv-x="181" 
d="M186 64q-23 -28 -45 -50q-19 -19 -40 -35t-38 -18q-2 0 -2.5 -0.5t-1.5 -0.5q-9 0 -19 8.5t-10 28.5q0 23 17.5 52t37.5 55t36.5 44.5t13.5 20.5q-1 1 -6 1q-6 0 -16 -1.5t-18 -3.5l-20 -24l-24.5 -28l-25 -27l-20.5 -22l-5 18l23.5 25.5l23.5 25.5l25 28q-5 -1 -9 -1.5
t-6 -0.5q-7 0 -17.5 8t-10.5 15q0 15 14 36t33 40.5t37.5 33.5t27.5 14q5 0 14 -11t9 -17q0 -10 -15 -35t-38 -57q14 1 21.5 2t21.5 1q4 0 8.5 -7t4.5 -9q0 -6 -15.5 -30l-34.5 -52.5t-34.5 -55t-15.5 -36.5q8 0 27 13t38 29q23 18 49 41zM61 234q1 0 12 12t25 23
q20 17 30 22t10 6q0 2 -2 2q-4 0 -16.5 -9t-25.5 -20.5t-23 -22t-10 -13.5zM89 184q23 32 37 55.5t10 26.5q-3 3 -15 -8.5t-25.5 -27t-23 -29.5t-7.5 -16t10 -2q3 0 6.5 0.5t7.5 0.5z" />
    <glyph glyph-name="registered" unicode="&#xae;" horiz-adv-x="304" 
d="M200 307q0 -10 -7 -20.5t-17 -19.5t-20 -14.5t-16 -5.5q-2 -7 -1 -13q2 -5 7 -9t16 -4t21 5.5t18 11.5q2 2 1 -3t-5 -11.5t-12 -12t-21 -5.5q-14 0 -22.5 5.5t-13 13t-6 15.5t-1.5 12q-12 -14 -17.5 -24.5t-5.5 -15.5q0 -6 -5 -6q-4 0 -8 4t-4 12t11.5 25.5t28 35.5
t34 31.5t29.5 13.5q7 0 7 -7q3 0 5 -2q4 -2 4 -12zM137 265q5 0 14.5 7t18.5 16t14 16t0 7t-14 -7t-17 -15l-20 -23h1q1 -1 3 -1zM131 148q28 10 55 28q23 15 47.5 40.5t42.5 64.5q-14 -37 -36 -66.5t-47.5 -49t-51 -30t-46.5 -10.5t-32.5 8.5t-17 20t-6.5 23.5t-1 18
q0 4 6 4q3 0 6 -2t3 -7t0.5 -12.5t3.5 -14.5t10 -12t21 -5q25 0 57.5 18t61 46.5t48 62.5t19.5 65q0 24 -12.5 34.5t-35.5 10.5q-24 0 -54 -14.5t-56.5 -35.5t-44.5 -45t-18 -44q0 -9 2 -8.5t2 -3.5q0 -2 -2 -2q-3 0 -7.5 4.5t-4.5 15.5q0 20 17 44.5t43 45.5t58 35.5
t62 14.5q23 0 41.5 -13.5t18.5 -39.5q0 -45 -23.5 -80t-52.5 -59q-33 -29 -76 -50zM53 275q12 18 27 35q13 14 30.5 30t38.5 27q-19 -10 -37 -23q-15 -12 -31.5 -29t-27.5 -40z" />
    <glyph glyph-name="ring" unicode="&#x2da;" horiz-adv-x="175" 
d="M116 345q4 -1 8 -4q2 -2 4.5 -6t2.5 -11q0 -9 -7 -19t-16 -18.5t-18 -14.5t-14 -6q-10 0 -13.5 7.5t-3.5 12.5q-1 -1 -3 -1q-3 0 -7 4.5t-4 10.5t4.5 15t13 17t19 13.5t22.5 5.5q9 0 12 -6zM77 287q2 0 8 4.5t12.5 11t11.5 13.5t5 11q0 3 -4 3q-8 0 -16.5 -4.5
t-15.5 -10.5q-7 -7 -14 -15q2 1 5 1q4 0 6.5 -2t2.5 -4t-2.5 -5t1.5 -3z" />
    <glyph glyph-name="s" unicode="s" horiz-adv-x="157" 
d="M162 64q-20 -27 -43 -47q-20 -18 -44.5 -33t-50.5 -15q-25 0 -44.5 11.5t-19.5 40.5q0 5 3 7.5t6 2.5q7 0 7 -7q0 -8 6 -14t32 -6q13 0 25.5 5t23 12.5t17 17.5t6.5 19q0 12 -13.5 22.5l-29.5 22.5l-15 -15.5l-12 -12.5l-11 -11l-5 18l16 15.5l16 15.5q-10 9 -16 20
t-6 25q0 20 15 40.5t35 37t39.5 27.5t28.5 11q8 0 17.5 -8.5t9.5 -14.5q0 -10 -9.5 -25.5t-23.5 -34.5t-31.5 -38.5t-34.5 -36.5q23 -17 35.5 -32t12.5 -45q10 7 19 14.5t17 13.5l17 15zM30 103q3 2 7 6q-1 0 -2 1l-6 -6q-5 -5 -9 -9.5t-9 -9.5q5 5 9.5 9t9.5 9zM35 142
q0 -8 9 -16q24 25 43 47.5t31.5 39.5t17.5 27t1 10t-20.5 -11.5t-34.5 -28.5t-32.5 -35.5t-14.5 -32.5zM48 123l2 -2l9 9q3 4 9 10l18 19q8 11 16.5 21t16.5 21q13 18 21 34q1 1 1.5 2.5t1.5 2.5q1 2 1 3.5t1 3.5q-3 -7 -6 -12t-7 -11l-11 -16q-1 -2 -2 -3t-2 -3
q-2 -2 -4 -5t-4 -5l-17 -21q-6 -6 -8 -10l-18 -19q-5 -5 -9 -9.5t-9 -9.5z" />
    <glyph glyph-name="section" unicode="&#xa7;" horiz-adv-x="379" 
d="M8 -117q2 10 12 15q1 1 2 1q2 0 4 -1.5t2 -3.5q0 -6 -3 -12v-2t3 -3q3 -3 8 -4q5 0 7 -1h10.5t12.5 1q6 0 7 1h2q2 0 7 1.5t11 3t11 3.5t6 3q2 0 2.5 0.5t1.5 0.5l1 1q2 0 4 2q18 8 40 20t41.5 27.5t34 34t19.5 38.5q5 14 2 30l-1 1q-2 2 -3 2l-10 -6t-10 -5
q-4 -2 -7.5 -3.5t-7.5 -3.5q-2 -1 -3.5 -1t-3.5 -1t-4.5 -2t-7.5 -2q-6 -3 -12 -3.5t-12 -0.5q-8 0 -15 4q-11 5 -17 16q-3 5 -3 11q0 13 4 20q2 6 2 5q1 1 1 1.5t1 1.5l2 6l3.5 7t3.5 5q3 6 8 11q5 8 11 14q1 2 2 2.5t3 2.5q3 4 6 7t5 7v1h1l12 15l7.5 9t8.5 9v1q0 1 -1 2
q-10 10 -17.5 22t-12.5 25q-4 10 -1 17l1 2l3 9q0 2 1 3.5t2 3.5q0 2 2 4q0 2 0.5 2.5t0.5 2.5q4 7 4 13l2 6l2 5q2 10 7 17q6 6 8 13q1 3 3 5l12.5 14l10.5 11q1 2 2 2t2 1v1q4 2 7 5v1l8 8q2 1 3 2t3 2q7 7 15 10q4 1 8 4q6 4 14 6h4q3 1 11 1q5 1 8 4q4 4 9 4h1
q3 0 6.5 0.5t6.5 0.5q2 0 5 0.5t6 0.5q5 0 9 -0.5t9 -1.5q5 0 9 -0.5t8 -2.5q1 -1 2 -1q1 -1 1.5 -1t1.5 -1q1 0 2 -1q20 -8 21 -31v-15t-2 -16q0 -3 -1 -4l-5.5 -9t-5.5 -7t-7 -3t-7 3t-1 8q1 1 1.5 2t1.5 2q4 6 5 13q2 3 0 6q0 2 -1 3q0 3 -1 4l-2 2q-8 5 -16 5h-36
q-5 0 -6 -1q-6 -3 -10 -3q-7 0 -9 -1q-6 0 -7 -1q-5 0 -9 -2t-9 -5q-12 -9 -22 -15l-13.5 -10t-12.5 -13q-13 -12 -25 -28q-6 -11 -10.5 -21.5t-7.5 -23.5q0 -1 2 -7q5 -10 9 -15l12 -12q3 -3 11 -6q0 1 2 1q3 1 5 3l15.5 11.5t18.5 11.5q8 8 17 12t19 8l2 1h1l1 1q5 0 6 -1
q2 0 4 -2q4 -2 9 -6.5t5 -9.5q1 -5 1 -9.5v-9.5q0 -17 -8 -31q-2 -4 -5 -8t-6 -9q-5 -6 -9 -12t-8 -11q-1 -1 -1.5 -2t-1.5 -2l-3 -3q-4 -4 -4 -12l-1 -1v-9l-3 -9q-2 -5 -4 -8t-4 -7q-2 -2 -2 -3l-7 -7q-5 -4 -8.5 -7.5t-8.5 -7.5q2 -2 4 -4.5t4 -4.5q1 -3 4 -6q2 -6 2 -5
q5 -18 1 -32q-1 -2 -1 -4t-1 -4v-1l-9 -18q-1 -3 -2 -5l-2 -4q-2 -6 -7 -10l-2 -2q-3 -5 -6.5 -9l-7.5 -9l-1 -1q-1 -2 -2.5 -3.5l-3.5 -3.5t-3 -2.5t-3 -2.5v-1q-1 -1 -1.5 -1t-1.5 -1q-1 -2 -2 -2.5t-3 -2.5q-1 0 -1.5 -0.5t-1.5 -0.5q-2 -2 -3.5 -3t-2.5 -3
q-2 -2 -4.5 -4t-5.5 -4l-8 -6q-1 -2 -2 -2.5t-2 -1.5q-10 -4 -13 -7q-2 -1 -3 -2l-2 -2q-6 -4 -12.5 -7l-13.5 -6q-1 -1 -2 -1t-2 -1h-3v-1h-2q-5 -5 -10.5 -7l-11.5 -4q-1 -1 -3 -1q-3 -2 -6 -2.5t-5 -1.5q-2 0 -3.5 -0.5t-3.5 -0.5q-6 -2 -15 -2h-3h-9t-9 -1
q-5 0 -10.5 0.5t-10.5 2.5q-1 0 -1.5 0.5t-2.5 0.5q-1 0 -2 0.5t-2 0.5q-3 2 -7 4t-7 5q-2 2 -4 4.5t-4 4.5q-2 6 -2 5q0 3 -0.5 6.5t1.5 7.5zM158 46q3 2 11 4q15 1 33 11q5 2 10 4.5t10 4.5q2 2 4 2.5t4 2.5q19 10 36 26l6 6q5 5 6 9q1 1 1 1.5t1 1.5l2 6v1q0 2 -2 4
q-5 6 -11 10t-13 7q-2 0 -3 -1q-5 -2 -8.5 -5l-8.5 -7q-7 -7 -15 -12q-2 -1 -2.5 -2t-2.5 -2q-6 -6 -12 -9q-3 -1 -11 -9l-6 -6q-2 -2 -3 -3.5t-2 -2.5q-10 -8 -14 -18q-3 -5 -6 -11t-5 -14zM288 165h2q0 1 2 3l2 2q0 1 2 3l1 2l-4 -2l-4 -2l-3 -3q2 -2 2 -3zM258 333
q1 1 2 1.5t2 1.5q2 6 9 11l1 1q3 2 4.5 3.5t4.5 3.5q-2 0 -3 -1q-4 -3 -8 -6.5l-9 -7.5q-2 -2 -2.5 -3t-1.5 -2q0 -1 0.5 -1t0.5 -1zM242 319l3 1l-1 -1q1 0 1 0.5t1 0.5q4 4 5 8z" />
    <glyph glyph-name="semicolon" unicode=";" horiz-adv-x="156" 
d="M66 35q1 4 6 4t10 -3t4 -8q-2 -6 -12 -17.5t-23 -17.5q-3 -2 -6.5 2t0.5 7q7 7 13 16.5t8 16.5zM103 134q9 0 15 -5t6 -14q0 -8 -8.5 -12t-17.5 -4q-14 0 -14 7q0 10 4 19t15 9z" />
    <glyph glyph-name="seven" unicode="7" 
d="M275 350q6 -4 7 -14t-7 -18q-27 -27 -51.5 -54.5l-47.5 -53.5q8 1 15 1.5t13 0.5q23 0 19 -11l4 -4q2 -4 -2 -7q-7 -4 -14 -4q-4 0 -4 1q-1 2 2 7q1 2 3 4q-22 0 -50 -5q-59 -71 -93.5 -132.5t-34.5 -104.5q0 -14 2.5 -18.5t6.5 -4.5q5 0 6 2.5t4 2.5q6 0 1.5 -9.5
t-13.5 -9.5q-4 0 -9.5 2t-10 9.5t-8 21t-3.5 36.5q0 20 8 43t21.5 48t31.5 51l37 51q-35 -10 -62 -21.5t-34 -17.5q-4 -2 -10 4.5t-1 11.5q19 14 53.5 25t70.5 19l39 46.5t36.5 41l31 32.5l20.5 21q-13 5 -36 5q-48 0 -85.5 -7t-57.5 -24q-1 -1 -3 -1q-5 0 -9.5 6.5
t-0.5 12.5q5 6 18.5 13.5t34.5 13.5t47.5 10t56.5 4q35 0 46 -8.5t12 -17.5zM22 17q10 23 25 50l33.5 54t47.5 66q-1 -1 -2 -1t-2 -1q-16 -18 -32.5 -39t-30.5 -43t-24.5 -44t-14.5 -42zM144 206l19 22.5t21 22.5q-6 -5 -12 -12q-13 -13 -31 -34q2 0 3 1z" />
    <glyph glyph-name="six" unicode="6" horiz-adv-x="265" 
d="M182 162q8 0 17 -1.5t16.5 -6t12 -12.5t4.5 -20q0 -20 -17 -48t-41.5 -53t-53.5 -42.5t-53 -17.5q-19 0 -33 8q-13 6 -23.5 20.5t-10.5 42.5q0 30 14.5 65t37.5 69.5t52 66t57 56t53 39t41 14.5q3 0 8.5 -1t10 -4t8 -8.5t3.5 -15.5q0 -9 -10.5 -26t-24 -34.5t-25.5 -31
t-15 -15.5q-1 -1 -2 -1q-5 0 -7 9.5t1 13.5q2 3 12 14t21.5 25t21 28t9.5 22q0 4 -7 4q-9 0 -30 -14t-47 -37t-53.5 -54t-50 -65t-37 -69t-14.5 -66q0 -8 5.5 -14t22.5 -6t43 15t50 36t41.5 44t17.5 39q0 7 -7 7q-19 0 -41 -9.5t-41.5 -23.5t-35 -30t-21.5 -28q-2 -2 -3 -2
q-3 0 -6.5 6t-3.5 15q0 12 10 28.5t28 32t42.5 26t53.5 10.5zM175 51q9 5 17 14q8 8 15.5 21.5t13.5 34.5q-5 -12 -12 -24q-6 -11 -14.5 -23t-19.5 -23z" />
    <glyph glyph-name="slash" unicode="/" horiz-adv-x="205" 
d="M-2 -59q-3 11 6.5 41.5t37 80.5t74.5 119.5t118 159.5q-1 1 -1 2q-1 1 2 4q4 5 6.5 6t7.5 1q10 -3 4 -13q-50 -71 -93 -139.5t-74.5 -124.5t-48.5 -94.5t-15 -49.5q0 -10 -6 -13q-4 -2 -9.5 4.5t-8.5 15.5z" />
    <glyph glyph-name="sterling" unicode="&#xa3;" horiz-adv-x="292" 
d="M222 22q22 0 36 -4t21.5 -10t10.5 -11.5t3 -8.5q0 -5 -3.5 -10t-9.5 -5q-4 0 -6 5v5q-3 1 -10 2q-12 3 -43 3q-37 0 -78.5 -5.5t-78 -13.5t-63 -17.5t-34.5 -17.5q-5 -5 -9 -5q-10 0 -10 26q0 8 23 19t61 22q0 8 3 15.5t6 7.5q2 0 2 -2.5t-0.5 -6t0.5 -6.5t5 -4
q4 1 7.5 2t7.5 2q20 11 41.5 48.5t44.5 85.5q-29 -6 -58 -21q-2 -2 -4 -2q-11 0 -11 13q0 8 23.5 16.5t58.5 12.5l40 82t41 74t42 53.5t42 20.5q11 0 18 -8t7 -13q0 -16 -16 -43.5t-36 -54.5l-36.5 -47.5t-18.5 -22.5q-1 -1 -3 -1q-5 0 -7 8.5t0 10.5q2 1 17.5 18.5
t33.5 41.5t32.5 49t14.5 41q0 2 -3 2q-16 0 -33 -18t-33.5 -47.5t-33.5 -66.5l-35 -76q4 1 8 1h7q14 0 20 -6q3 -3 4 -6t1 -5q0 -5 -4 -5q-2 0 -4 1q-10 2 -19.5 2.5t-19.5 0.5q-17 -38 -33.5 -71t-33.5 -59q50 9 105 9zM79 7q12 9 25 26q11 15 25.5 40.5t30.5 66.5
q-4 -10 -12.5 -27.5t-19.5 -37t-23.5 -38t-25.5 -30.5zM99 -9q41 6 82 7t83 1q-16 2 -31 3.5t-29 1.5q-23 0 -42 -2t-33 -5q-16 -2 -30 -6z" />
    <glyph glyph-name="t" unicode="t" horiz-adv-x="192" 
d="M-21 258q4 3 41 11t90 11l35 45t30.5 36t22.5 23.5t11 8.5q6 0 11.5 -3t9.5 -7t5.5 -8t-0.5 -7q-6 -6 -27 -28.5t-46 -57.5q15 0 30 -1t30 -3q14 -2 21 -7t10 -10t2 -8.5t-3 -3.5t-2.5 1.5t-1.5 3t-3.5 3.5t-9.5 3q-9 1 -18.5 1.5t-20.5 0.5q-12 0 -24.5 -0.5t-25.5 -1.5
l-44.5 -68.5t-42.5 -75t-31.5 -72t-12.5 -60.5q0 -13 16 -13q18 0 45 17.5t53 38.5q30 24 63 55l5 -18q-29 -35 -56 -62q-23 -24 -48 -43.5t-43 -19.5q-12 0 -24 5t-22.5 14.5t-17 24.5t-6.5 35q0 23 10 52.5t26 61t36 63.5t39 59q-42 -6 -71 -12.5t-33 -5.5q-8 1 -10 10
t2 12zM12 95q4 12 11 26l13 25q3 8 7 13q4 8 7 12q2 4 3 7l41 66q2 3 4.5 5.5t4.5 5.5h-3q-2 -2 -4 -5t-4 -5q-8 -11 -15.5 -23l-15.5 -25l-7 -12q-2 -3 -3.5 -6t-3.5 -6t-3.5 -6.5t-3.5 -6.5q-4 -8 -6 -13l-12 -25q-1 -2 -3 -6.5t-2 -6.5zM155 273h49l5 -1h10
q-10 1 -20 1.5t-21 1.5h-21zM56 266q5 1 10 1t10 1l20 2h7l1 2q-5 0 -8 -1l-10 -1q-7 0 -10 -1q-5 -1 -10 -1.5t-10 -1.5z" />
    <glyph glyph-name="three" unicode="3" horiz-adv-x="284" 
d="M298 138q0 -23 -16.5 -52.5t-44.5 -55t-63.5 -43t-73.5 -17.5t-58.5 10.5t-30 24t-11 25.5t-1.5 15q0 7 3.5 13.5t8 11t8.5 7.5t5 3q3 2 3.5 -2.5t-2.5 -7.5t-6.5 -10t-3.5 -14t20 -19.5t67 -12.5q31 0 62.5 14t57 34t41.5 43t16 41q0 17 -19.5 22.5t-44.5 5.5
q-31 0 -53 -7t-30 -12q-2 0 -4 -2q-1 0 -1.5 -0.5t-1.5 -0.5q-3 0 -5.5 4.5t-2.5 11.5t2 14t7 11t24.5 16.5t41 28t38.5 31.5t17 27q0 7 -4 7q-14 0 -31 -7t-31.5 -17t-24 -21t-9.5 -20q0 -3 -5 -3t-12 4t-7 14q0 11 13.5 23.5t33 23t40.5 17t35 6.5q12 0 17.5 -10.5
t5.5 -26.5q0 -15 -19.5 -36.5t-44.5 -41.5q16 0 33 -4t30.5 -12t22 -21.5t8.5 -32.5zM18 18q20 -13 41.5 -18.5t42.5 -5.5q36 0 64 15q-8 -3 -18 -4q-18 -5 -45 -5q-19 0 -40.5 3.5t-44.5 14.5z" />
    <glyph glyph-name="threesuperior" unicode="&#xb3;" horiz-adv-x="149" 
d="M122 285q12 -12 12 -25q0 -10 -7 -22.5t-19 -24t-27.5 -19t-32.5 -7.5q-23 0 -36 11q-6 7 -7.5 13t-1.5 10q0 8 5 12.5t7 6.5q5 0 7 -2q4 -4 -1 -9q-3 -3 -3 -7q1 -2 7.5 -5t23.5 -3q8 0 20 4t23 11t18.5 16t7.5 18q0 5 -9 6.5t-13 1.5q-14 0 -22.5 -3.5t-10.5 -4.5
q0 -1 -2 -1q-1 -1 -2 -1t-3 1t-4 5q-4 10 4 19l9 6l13 8.5t13 9.5q12 10 14 13q-11 -2 -22 -9.5t-11 -12.5t-7 -5q-1 0 -7 2q-4 3 -4 9t6 12t14.5 10.5t18 7.5t15.5 3q2 0 8 -2.5t6 -16.5q0 -11 -19 -28q9 -2 19 -8z" />
    <glyph glyph-name="tilde" unicode="&#x2dc;" horiz-adv-x="207" 
d="M35 286q-5 0 -7.5 4.5t-1 10t7.5 10t16 4.5q11 0 20 -2t18 -4.5t19 -4.5t22 -2q7 0 9.5 1.5t4 3t2 3t2.5 1.5q5 0 7 -5t-0.5 -10.5t-9 -10.5t-19.5 -5q-25 0 -42 8t-36 8q-9 0 -8.5 -5t-3.5 -5z" />
    <glyph glyph-name="two" unicode="2" horiz-adv-x="246" 
d="M305 313q1 -15 -13 -36.5t-37 -46t-52.5 -51.5l-59 -52.5l-56.5 -49.5t-45 -43q53 14 109 14q17 0 33 -1.5t30 -5.5q24 -6 21 -30q3 -4 5 -8q2 -9 -5 -14t-14.5 -9t-12.5 -4q-2 0 -2 1q0 2 3 6l6 8t5 7.5t-1 4.5q-22 5 -47 5q-27 0 -57.5 -4t-57.5 -9t-46.5 -10.5
t-24.5 -8.5q-8 -5 -8 -10.5t-4 -4.5t-8.5 8t-2.5 19q1 11 21 24h1q-2 11 3 26t25 35q12 11 37 29.5l55 41l62.5 47t58.5 47t42.5 41.5t15.5 31q-1 11 -10 11q-26 0 -56.5 -15t-56.5 -33.5t-43.5 -36t-16.5 -23.5q1 -11 4.5 -10.5t3.5 -3.5q0 -2 -3.5 -3t-8.5 -1
q-7 0 -12.5 3.5t-6.5 14.5q-2 23 17 46.5t48.5 42t62.5 30t59 11.5q21 0 29.5 -9t10.5 -21zM195 202q-13 -8 -28.5 -21t-18.5 -16l26 19l17.5 13.5t6.5 5.5h-1q-1 0 -2 -1zM218 23q-10 5 -22.5 7t-26.5 2q-12 0 -23.5 -1t-19.5 -2q-11 -2 -20 -4q11 1 21 1h21
q15 0 27.5 -0.5t22.5 -0.5q11 -1 20 -2zM43 69q-9 -5 -17 -12t-14 -14q-7 -8 -13 -16z" />
    <glyph glyph-name="twosuperior" unicode="&#xb2;" horiz-adv-x="160" 
d="M106 224q11 -3 11 -15q3 -3 2 -7q0 -3 -4 -6q-2 -2 -7 -5t-7 -1q-3 2 -3 4q-1 2 3 7q-5 1 -15 1t-21.5 -1.5t-21.5 -3.5l-17 -3.5t-9 -2.5q-1 -1 -1 -3q-1 -4 -6 -4q-4 0 -7 5q-1 3 -1 10q0 6 9 12q-1 4 1.5 10.5t10.5 13.5l13.5 10.5l19.5 14.5l25 19l24 19
q17 14 20.5 20t3.5 7q-9 0 -20 -5t-20.5 -11.5t-16 -13t-7.5 -9.5q3 -1 3 -4t-3 -4.5t-6 -1.5q-10 0 -12 11q-1 12 11 24q11 13 30.5 22t36.5 9q18 0 19 -16q2 -12 -17.5 -32t-50.5 -47l-13.5 -12t-12.5 -11q8 2 15.5 2h14.5h14.5t11.5 -2z" />
    <glyph glyph-name="u" unicode="u" horiz-adv-x="272" 
d="M277 64q-23 -28 -45 -50q-19 -20 -38.5 -35.5t-33.5 -15.5q-21 0 -31 16.5t-10 33.5q0 14 5 32t13 37l-24 -23t-29 -25t-28 -20.5t-21 -8.5q-5 0 -12 4.5t-13.5 11.5t-11 15.5t-4.5 16.5q0 20 12 45.5t27 48t29.5 38t18.5 15.5q3 0 9.5 -2t11 -5.5t6.5 -9t-4 -11.5
q-6 -7 -19.5 -28.5t-26.5 -46t-21.5 -46t-3.5 -29.5q4 0 12 6t19.5 16t24.5 23l26 26l67 70q17 26 30.5 43t18.5 17q12 0 18 -7t-1 -12q-4 -4 -20.5 -27.5t-33.5 -55t-31 -65.5t-14 -61q11 0 31 13.5t41 30.5q24 19 51 43zM112 64l18 18q-5 -5 -9.5 -8.5t-9.5 -8.5l-10 -8
l-10 -8q-5 -5 -9.5 -8.5t-9.5 -8.5l-20 -16l21 15q11 7 20.5 15.5t18.5 17.5z" />
    <glyph glyph-name="uacute" unicode="&#xfa;" horiz-adv-x="272" 
d="M277 64q-23 -28 -45 -50q-19 -20 -38.5 -35.5t-33.5 -15.5q-21 0 -31 16.5t-10 33.5q0 14 5 32t13 37l-24 -23t-29 -25t-28 -20.5t-21 -8.5q-5 0 -12 4.5t-13.5 11.5t-11 15.5t-4.5 16.5q0 20 12 45.5t27 48t29.5 38t18.5 15.5q3 0 9.5 -2t11 -5.5t6.5 -9t-4 -11.5
q-6 -7 -19.5 -28.5t-26.5 -46t-21.5 -46t-3.5 -29.5q4 0 12 6t19.5 16t24.5 23l26 26l67 70q17 26 30.5 43t18.5 17q12 0 18 -7t-1 -12q-4 -4 -20.5 -27.5t-33.5 -55t-31 -65.5t-14 -61q11 0 31 13.5t41 30.5q24 19 51 43zM112 64l18 18q-5 -5 -9.5 -8.5t-9.5 -8.5l-10 -8
l-10 -8q-5 -5 -9.5 -8.5t-9.5 -8.5l-20 -16l21 15q11 7 20.5 15.5t18.5 17.5zM161 321q2 2 4 2q6 0 12 -9.5t4 -16.5q-2 -6 -10 -13t-18.5 -13.5t-22.5 -11t-23 -4.5q-15 0 -16 8t4 8q6 0 15 5.5t18.5 13t18 16.5z" />
    <glyph glyph-name="udieresis" unicode="&#xfc;" horiz-adv-x="272" 
d="M277 64q-23 -28 -45 -50q-19 -20 -38.5 -35.5t-33.5 -15.5q-21 0 -31 16.5t-10 33.5q0 14 5 32t13 37l-24 -23t-29 -25t-28 -20.5t-21 -8.5q-5 0 -12 4.5t-13.5 11.5t-11 15.5t-4.5 16.5q0 20 12 45.5t27 48t29.5 38t18.5 15.5q3 0 9.5 -2t11 -5.5t6.5 -9t-4 -11.5
q-6 -7 -19.5 -28.5t-26.5 -46t-21.5 -46t-3.5 -29.5q4 0 12 6t19.5 16t24.5 23l26 26l67 70q17 26 30.5 43t18.5 17q12 0 18 -7t-1 -12q-4 -4 -20.5 -27.5t-33.5 -55t-31 -65.5t-14 -61q11 0 31 13.5t41 30.5q24 19 51 43zM112 64l18 18q-5 -5 -9.5 -8.5t-9.5 -8.5l-10 -8
l-10 -8q-5 -5 -9.5 -8.5t-9.5 -8.5l-20 -16l21 15q11 7 20.5 15.5t18.5 17.5zM132 300q6 2 9 2q11 0 18.5 -9t1.5 -17q-5 -8 -16 -8q-10 0 -14 7q-3 5 -5 13t6 12zM228 296q4 -8 2 -15.5t-10 -12.5q-6 -2 -8 -2q-10 0 -17 9t-3 18q2 5 8 8t12 3q11 0 16 -8z" />
    <glyph glyph-name="underscore" unicode="_" horiz-adv-x="355" 
d="M-20 -51q0 4 9.5 6.5t21 4.5t21 3t10.5 1q2 0 6 -2l4 -2q31 4 64 7l64.5 4.5t70.5 2.5q29 0 47.5 -3t21.5 -6q4 -4 6 -11t0 -9t-13.5 -6.5t-16.5 -4.5q-4 0 -4 7q0 4 1 8q1 1 3 2q2 2 2 3t-7 1t-17.5 -0.5t-21.5 -0.5q-51 0 -97.5 -4t-82.5 -8.5t-58 -8.5t-25 -4
q-9 0 -9 20z" />
    <glyph glyph-name="uni0000.1" horiz-adv-x="0" 
 />
    <glyph glyph-name="uni000D.1" horiz-adv-x="250" 
 />
    <glyph glyph-name="v" unicode="v" horiz-adv-x="195" 
d="M159 253q15 0 29 -13t14 -41q0 -19 -11 -43.5t-28.5 -49t-39 -48t-42.5 -41.5t-38.5 -29t-27.5 -11q-7 0 -12 1.5t-7 3.5q-3 3 -5 6q-4 1 -8 4q-2 3 -4.5 8.5t-2.5 14.5q0 22 16 52.5t36.5 58.5t39.5 47.5t26 19.5q8 0 11 -4t-1 -9q-6 -6 -22 -27t-32.5 -48t-31 -54.5
t-17.5 -45.5q10 5 26.5 17.5t35.5 30.5t39 39t36 43t26 43t10 38q0 16 -6 22t-9 6q-4 0 -4.5 4.5t4.5 4.5zM186 171l3 9q3 8 3 17q-2 -10 -4 -17q-2 -4 -3.5 -8t-3.5 -8q-2 -5 -4 -8.5t-4 -7.5l-18 -30q-2 -4 -5 -7.5t-5 -7.5l-10.5 -14l-10.5 -14l11.5 13.5l11.5 13.5
q2 4 5 7.5t5 6.5q10 11 17 26t12 29z" />
    <glyph glyph-name="w" unicode="w" horiz-adv-x="284" 
d="M276 204q1 -10 0 -24.5t-4 -31t-8.5 -33.5t-14.5 -32q-13 -22 -28 -42.5t-30 -36t-29.5 -24.5t-28.5 -9q-15 0 -25 9t-17 20t-10.5 20t-5.5 9t-10.5 -6.5t-18.5 -15.5l-18.5 -18.5t-12.5 -8.5q-15 0 -24.5 12t-11.5 23q-4 28 14.5 58t44 54.5t49.5 40t32 15.5q3 0 8.5 -5
t5.5 -8q1 -5 -18 -15.5t-39 -33.5q-4 -5 -4 -11.5t-5 -11.5q-9 -9 -19 -21t-17.5 -24t-11.5 -21t-1 -12q1 -1 2 -1q6 0 17 10t22.5 22l21 22t12.5 10q5 0 10 -6.5t6 -8.5q0 -2 -1.5 -9t0.5 -15q2 -11 5.5 -20t8.5 -9q11 0 34 17.5t44 46.5q12 17 22.5 36.5t18 38.5t11 35
t1.5 27q-1 5 -3 11t-7 6q-7 0 -10 -3.5t-7 -3.5q-3 0 -5 2q-5 5 -0.5 10.5t13.5 5.5q22 0 31 -14.5t11 -25.5zM104 172q-13 -8 -29 -20.5t-28.5 -25t-20.5 -22.5t-6 -13q11 8 28 28.5t56 52.5z" />
    <glyph glyph-name="x" unicode="x" 
d="M213 64q-21 -27 -42 -47q-18 -18 -38.5 -33t-37.5 -15q-21 0 -37 15.5t-19 37.5l-33 -33t-25 -24q-1 -1 -3 -1t-3.5 1.5t-0.5 3.5q8 13 25.5 34t40.5 45q3 22 10.5 47t16.5 47l-32.5 -43t-29.5 -35l-5 18q9 8 24.5 28l31 40.5l27.5 36.5t15 16q9 0 17 -10.5t6 -15.5
q-2 -3 -8.5 -23t-14.5 -47l33 32.5l29 28l22 21l12 11.5l2 2q2 1 4 -7q1 -2 -8.5 -13.5t-25 -28.5l-36 -38l-41.5 -43q-3 -15 -5 -29.5t-2 -28.5q0 -12 12 -12q10 0 29 12.5t38 27.5l47 40zM95 98q0 -2 -2 -8l35.5 37t31.5 35q-5 -4 -23 -21.5zM39 34v5l-28.5 -31l-24.5 -28
l15 15q7 8 17 17.5t21 21.5z" />
    <glyph glyph-name="y" unicode="y" horiz-adv-x="249" 
d="M251 196q0 -2 -8.5 -21t-23.5 -49l-35 -67l-42 -75q5 -7 6 -13t1 -8q0 -4 -5 -4q-3 0 -3 4q0 6 -5 10q-19 -33 -38.5 -62.5t-38 -52.5t-34.5 -36.5t-28 -13.5q-20 0 -32 15.5t-12 38.5q0 25 15 50t38 44t50 31t51 12l35 61.5l32 56.5l-43 -39.5l-45.5 -40t-39 -31
t-23.5 -12.5q-11 0 -22 13.5t-11 32.5q0 22 12.5 49.5t28 52t31 41t21.5 16.5q11 0 18 -12t0 -19q-17 -21 -32 -47.5t-25 -49t-15 -38t-3 -15.5q6 0 18 8t27 21.5t32 30.5l34 35l85 94q3 5 10 5t13 -5t6 -11zM-30 -149q0 -14 11 -14q8 0 20 10.5t26.5 28.5t30.5 42.5
l32 51.5q-18 -8 -39 -22.5t-39 -31.5t-30 -34t-12 -31zM-10 -170q9 -1 23.5 11t31 32.5t34.5 47.5t35 57q-2 -1 -4 -1t-4 -1l-32.5 -53t-32 -46.5t-29 -33.5t-22.5 -13zM104 -58q5 7 8.5 14l7.5 15q-8 -14 -17.5 -28l-18.5 -28l-4.5 -6.5l-4.5 -6.5l-9 -14q-2 -4 -4.5 -7
t-4.5 -7l-4.5 -6.5t-5.5 -6.5q6 6 11 12t10 13q2 4 5 7t5 7q1 2 2 3.5t2 3.5q2 2 2.5 3.5t2.5 3.5l4.5 6.5l4.5 6.5q2 4 4 7.5t4 7.5zM124 -4q23 43 38 82l-18 -35.5t-25 -44.5q2 -1 2.5 -1t2.5 -1z" />
    <glyph glyph-name="yen" unicode="&#xa5;" horiz-adv-x="274" 
d="M286 103q17 0 27.5 -5.5t10.5 -14.5q0 -7 -6 -11q-3 -1 -7 -2q-4 0 -7 5q-1 2 -1 5q2 3 2 5q0 5 -10 5q-42 0 -80.5 -6.5t-73.5 -14.5q-20 -51 -31 -98t-11 -82q0 -16 2.5 -24t5 -12.5t5 -7t2.5 -8.5q0 -2 -3 -2q-4 0 -10.5 4t-12.5 14t-10.5 28t-4.5 46q0 30 6.5 63
t18.5 66q-54 -19 -87.5 -35.5t-36.5 -16.5q-14 0 -14 16q0 4 11.5 10.5t31.5 14t47 16t57 15.5q12 30 26.5 59l29.5 57q-11 -10 -24.5 -21l-26 -20.5t-22 -15.5t-14.5 -6q-14 0 -23 7.5t-9 17.5q0 26 6.5 50.5t15 43.5t16 30.5t10.5 11.5q11 0 17 -5.5t6 -11.5q0 -2 -8 -21
t-16 -41t-13.5 -40t0.5 -18q5 0 18.5 9t31 22.5l35 28t29.5 25.5q19 29 37.5 53.5t33.5 42t25.5 27.5t13.5 10q9 0 12 -5t-2 -9q-20 -17 -42 -46t-43.5 -65t-41.5 -77t-36 -83q35 8 70 12.5t67 4.5zM81 -104q-1 19 2 43q3 22 10.5 52.5t21.5 69.5q-2 -1 -4 -1.5t-6 -0.5
q-13 -40 -21 -81.5t-3 -81.5zM124 80q12 32 29.5 67t41.5 74q-2 -2 -4 -5l-5 -5t-8 -6l-29 -51.5t-35 -74.5q2 0 4.5 0.5t5.5 0.5z" />
    <glyph glyph-name="z" unicode="z" horiz-adv-x="203" 
d="M40 108q-1 -1 -6.5 -8t-12.5 -15l-16 -21l-5 18q13 11 21.5 19l12.5 12q2 2 3 2q2 0 3.5 -2.5t-0.5 -4.5zM116 -4q40 0 55.5 -15t15.5 -28q0 -7 -4 -7q-5 0 -5 7q0 3 -10 6.5t-33 3.5q-44 0 -76 -7t-54 -16t-33 -16t-13 -7q-4 0 -8.5 9.5t-5.5 15.5q-1 4 3 8t9.5 7.5
t12 6.5l10.5 5l23 22l46 44l64.5 63.5l77.5 80.5q-34 0 -68.5 -14t-62.5 -33q-1 -1 -5 -4t-6 -6l-2 -2q-2 0 -3.5 2t-0.5 4q2 6 2 13q-3 10 -6 26q-1 4 14 12.5t37 16.5t45.5 14.5t40.5 6.5q13 0 25.5 -10.5t14.5 -23.5q1 -6 -10.5 -21.5t-29 -35t-39.5 -41.5l-41.5 -41.5
l-34.5 -34l-20 -19.5q9 2 20 3.5t22 2.5t20 1.5t13 0.5zM173 151q-17 -14 -41.5 -38l-47.5 -47l-54 -59l45 42l46 46.5zM35 -22q29 5 57.5 6t57.5 1q-5 2 -13 3t-20 1q-17 0 -38 -2.5t-44 -8.5z" />
    <glyph glyph-name="zero" unicode="0" horiz-adv-x="235" 
d="M181 337q16 0 28 -12q11 -11 19.5 -34.5t8.5 -70.5t-16.5 -94.5t-43.5 -86t-60.5 -62.5t-67.5 -24q-26 0 -46 20.5t-20 52.5q0 29 11 63.5t28.5 69t39.5 67t44 57t42 39.5t33 15zM19 -18q32 0 66 29t62.5 72t47 92t18.5 88q0 16 -3.5 25t-8.5 14q-6 6 -13 8
q-10 0 -12.5 -1.5t-2.5 -4t1 -5t-2 -5.5q-4 -4 -18 -20t-32.5 -40.5t-39 -55t-38 -62t-29 -62.5t-11.5 -57q0 -15 15 -15zM127 30q16 16 31 36q14 17 28.5 41t25.5 53q-3 -11 -5 -21q-5 -20 -10 -35q11 23 18 48q6 21 9 46.5t-2 48.5q-4 -35 -15 -72q-10 -32 -28.5 -70
t-51.5 -75z" />
    <glyph glyph-name="uniE005" unicode="&#xe005;" horiz-adv-x="2761" 
d="M2695 0q1 -4 2 -4.5t3 -3.5q0 -3 -4 -3q-6 0 -16.5 8.5t-14.5 28.5q-3 17 0.5 37t11.5 37q4 11 8.5 21t10.5 20q-18 -18 -41.5 -46l-45.5 -55.5l-39 -49t-21 -25.5q-1 -1 -4 -1q-6 0 -15 9t-12 26q-5 18 8 46.5t30 55.5q9 16 20 33t25 34l-3 2q-2 3 -1 4q3 4 9.5 11.5
t14 15t15 13t11.5 5.5q6 0 11 -6.5t0 -14.5q-1 -3 -14.5 -25.5l-30.5 -52.5t-33 -61.5t-23 -52.5q6 7 27.5 30.5l45 49.5l42.5 46.5t20 20.5q10 0 21.5 -10.5t13.5 -21.5q1 -4 -4.5 -20l-12.5 -35.5t-12 -38t-3 -27.5zM2628 164q-2 -3 -3 -5.5t-3 -5.5q2 2 3.5 5t3.5 5
q3 7 7 11q2 2 2.5 5t2.5 5q3 4 4 9q-1 -4 -5 -8q-2 -2 -3.5 -5t-3.5 -5q-5 -5 -5 -11zM2557 29q-2 -2 -1.5 -2.5t-0.5 -2.5q0 1 3 4q2 7 3 8l9 15q2 4 3.5 8t4.5 9l5 7l3 9l9 15q2 4 3.5 8t4.5 8q5 8 8.5 16t7.5 16l-10 -15.5t-9 -15.5q-3 -4 -5 -8t-5 -7q-2 -4 -3.5 -8
t-3.5 -8l-5 -8.5t-4 -7.5q-2 -1 -4 -8q-1 -1 -3 -8q-3 -4 -4 -8l-3 -8q-2 -2 -2 -4t-1 -4zM2636 81l11 14.5l11 14.5q-8 -7 -13.5 -13.5t-11.5 -12.5q-2 -4 -4.5 -7.5t-6.5 -6.5l-22 -27q-5 -3 -7 -6.5t-5 -6.5l-11 -14.5l-10 -13.5q6 7 12 13t11 14l12 12l22 27q4 4 6.5 7
t5.5 6zM2106 178q8 0 13.5 -8t0.5 -15q-9 -13 -18 -38t-16 -51.5t-10.5 -50.5t-2.5 -36q2 -9 4 -9t4 -6q0 -2 -5 -2q-6 0 -16 7t-13 30q-3 20 1 44.5t10 44.5q6 24 17 49q-11 -6 -28 -21.5t-34 -33l-30 -32t-17 -18.5q-2 -2 -5 -2q-8 0 -14.5 14.5t-8.5 28.5q-2 19 14.5 53
t39.5 69l-58 -55l-67.5 -66.5l-68.5 -69.5l-61 -65q-3 -3 -9 -3q-8 0 -16 2.5t-10 4.5q-8 4 -15.5 10t-2.5 14q2 3 19.5 27.5l42.5 62l54.5 83t55 91t43.5 86.5t21 69q-15 -7 -39 -24.5t-51.5 -41t-55 -50t-49.5 -51t-35 -44.5t-11 -31q3 -15 10 -15q5 0 17 5q3 2 3 -1
t-1.5 -7.5t-6 -8t-10.5 -3.5q-14 0 -27.5 13.5t-16.5 33.5q-3 21 13 48.5t43 56.5t60 57t64.5 50.5t56.5 36t36 13.5q17 0 25.5 -8.5t10.5 -19.5q2 -15 -6.5 -42.5t-24 -62t-36 -73.5l-42.5 -77.5l-44 -73.5l-40 -62l86.5 84.5l83.5 78l68 60.5t40 32q2 2 4 3t4 3
q5 0 9.5 -5t8 -11t4.5 -12.5t-2 -9.5t-15.5 -21l-27.5 -41t-28.5 -48t-19.5 -42q13 14 32.5 31.5l38.5 33t34.5 26.5t19.5 12h3zM1729 -17q15 17 33 46.5l35 58.5l18 34l19 36zM1872 98l-100 -103q56 46 100 103zM1559 344q8 1 14 -4.5t9 -12t3 -13t-3 -8.5
q-33 -22 -60 -49.5t-45.5 -55t-27 -52.5t-5.5 -43q8 -35 20 -62t12 -51q0 -11 -6 -20t-16 -16t-22 -10.5t-23 -3.5q-18 0 -35.5 7.5t-17.5 24.5q0 14 6 20t11 6q2 0 2 -2q0 -5 -2.5 -6t-2.5 -6q0 -6 7.5 -8.5t18.5 -2.5q18 0 37 7t19 24q0 7 -5 19t-11 28t-11 36t-5 42
q0 19 6 38q-21 -23 -44 -43.5l-46 -39.5q6 -8 10 -17t4 -21q0 -9 -5 -22.5t-14.5 -26t-24.5 -21.5t-36 -9h-4q-23 0 -33.5 12t-12.5 26q0 2 1.5 4t3.5 4q18 9 41 27.5t48 41.5q-5 5 -11 9.5t-14 9.5l-15 -15.5l-12 -12.5q-3 -3 -5.5 -6t-5.5 -5q-11 -14 -20.5 -25t-20.5 -21
q-17 -17 -35 -31.5t-30 -14.5q-19 0 -30 15t-11 35q0 17 9.5 42t21.5 48l-35 -34l-44.5 -41l-40.5 -35t-23 -15q-8 0 -20 11t-12 29q0 2 0.5 4.5t0.5 5.5q-7 -9 -19 -20.5t-25 -21.5t-26.5 -17t-24.5 -7q-20 0 -26.5 16t-8.5 36q-3 23 3 51l-37 -34.5t-33.5 -29t-27.5 -20
t-18 -7.5q-15 0 -31.5 15t-16.5 42q0 20 16.5 46.5t39 50.5t46 41t36.5 17q24 0 32.5 -10.5t13.5 -24.5q20 54 53 102.5t67.5 85t66 58.5t47.5 22q15 0 25 -10t12 -15q2 -8 -7.5 -23.5t-24.5 -34t-33 -38l-34 -35.5t-26.5 -25.5l-10.5 -9.5q-1 1 7.5 11l21.5 25.5l28.5 34
t28 36t21 32.5t7.5 22q-3 8 -8 8q-12 0 -43.5 -29t-68.5 -73q-26 -31 -48 -69t-38 -80l28 27.5l25 24t18 16.5t8 5t-5.5 -9.5t-18.5 -22.5t-29 -32l-37 -38l-9 -29t-9 -32.5t-6.5 -32t-2.5 -27.5q0 -2 3 -4q11 0 30.5 12.5t39.5 27.5l22 18t23 20q11 22 28.5 44.5t38 40.5
t42.5 29.5t41 11.5q14 0 21.5 -5t11.5 -12.5t4 -16t-2 -16.5q7 7 9 7q8 0 15 -7.5t7 -17.5q0 -1 -4 -8.5t-10.5 -18l-13.5 -22.5t-13 -21q-4 -9 -8 -20.5t-6 -21.5t-2 -16.5t4 -6.5q6 0 25.5 14t41.5 32.5l42 37t29 27.5q-10 9 -16 20t-6 25q0 20 15 40.5t35 37t39.5 27.5
t28.5 11q8 0 17.5 -8.5t9.5 -14.5q0 -9 -9 -25.5t-23.5 -35t-32 -38t-34.5 -36.5q6 -5 12.5 -9.5t12.5 -10.5l37.5 37l35 36.5l29.5 32.5l22 25q13 23 28.5 43.5t30.5 36.5t28 25.5t21 10.5zM707 100q9 10 18.5 19.5l18.5 18.5q14 14 29.5 28t24.5 19q-12 -5 -25 -14.5
t-25 -21.5t-22.5 -25t-18.5 -24zM841 118v12t-1 14.5t-4 12.5t-9 5q-10 0 -24 -9t-28 -23t-27 -31.5t-22 -33t-12 -28t3 -17.5q2 -2 12 3t25 15l33.5 23.5t36.5 28.5l14 12q1 5 2 9t1 7zM968 328q-45 -51 -75.5 -107.5t-42.5 -108.5q2 2 5.5 5t6.5 6q14 50 39 97t67 108z
M848 26q2 19 4.5 36t5.5 33q-8 -6 -10 -10q-6 -32 0 -59zM990 83l39 45l34 35.5t29 25.5q-16 -10 -32 -24t-29.5 -28.5t-24 -28.5t-16.5 -25zM1006 25q1 0 19.5 14.5l42.5 33l47.5 37.5t33.5 28q-5 2 -8.5 5t-3.5 8q0 2 1 6t2 8.5t0 8t-4 3.5q-8 0 -21.5 -9.5t-28.5 -24
t-30 -32.5t-27 -36q-13 -20 -19 -35t-4 -15zM1283 110l-2 1l-24 -25zM1281 143q0 -8 9 -16q24 25 43 47.5t31.5 39.5t17.5 27t1 10t-20.5 -11.5t-34.5 -28.5t-32.5 -35.5t-14.5 -32.5zM1296 122q12 11 26 25.5t27 31t24 34t17 33.5q-13 -23 -29.5 -45.5t-31.5 -39.5
q-8 -11 -17 -20t-18 -17zM1260 5q13 0 25.5 5t23 12.5t17 17t6.5 19.5t-9 17l-31 -25.5l-25 -20.5q-12 -10 -24 -18q-2 -2 -1.5 -2.5t-1.5 -2.5q0 -1 2 -1t6 -0.5t12 -0.5zM645 165q8 0 15 -7.5t7 -17.5q0 -1 -6.5 -14.5t-14.5 -32t-14.5 -39.5t-6.5 -38q0 -8 5.5 -9.5
t5.5 -5.5q0 -6 -7 -6q-10 0 -23 10.5t-13 29.5q0 16 2.5 30t5.5 25q2 7 4 13l4 12l-35 -34l-44.5 -41l-40.5 -35t-23 -15q-8 0 -20 11t-12 29q0 22 16.5 52.5t41 58.5t54 47.5t55.5 19.5q14 0 21.5 -5t11.5 -12.5t4 -16t-2 -16.5q6 7 9 7zM464 85l39 45l34 35.5t29 25.5
q-16 -10 -32 -24t-29.5 -28.5t-24 -28.5t-16.5 -25zM480 27q1 0 19.5 14.5l42.5 33.5l47.5 37.5t33.5 27.5q-5 2 -8.5 5t-3.5 8q0 2 1.5 6t2 8.5t0 8t-4.5 3.5q-8 0 -21 -9.5t-28 -24t-30.5 -32.5t-27.5 -36q-13 -20 -19 -35t-4 -15zM341 200q27 0 44.5 -6.5t27.5 -16.5
t13.5 -21.5t3.5 -20.5q0 -20 -13 -44.5t-35.5 -50.5t-52 -50.5t-63 -44t-68.5 -31t-69 -11.5q-29 0 -49.5 9.5t-33.5 24t-19 30.5t-6 28q0 10 6 15t11 5q4 0 4 -3q0 -6 -4 -7.5t-4 -10.5q0 -6 7.5 -14.5t21 -16t33 -12.5t42.5 -5q45 0 91.5 21.5t85 51.5t63 63t24.5 55
q0 17 -6 27t-16 15t-21.5 7t-22.5 2q-31 0 -56 -6t-43 -13.5t-28.5 -13.5t-12.5 -6q-3 0 -8 5q-26 -42 -42 -80t-16 -66q0 -3 1 -6t1 -5q0 -6 -7 -6q-9 0 -20.5 10.5t-11.5 33.5q0 28 14 60t35 64t46.5 61.5t47.5 52t38.5 36t20.5 13.5q8 0 12.5 -4.5t0.5 -8.5
q-23 -23 -47 -52.5t-47 -61.5q34 15 73 34t72.5 41.5t55.5 48.5t22 55q0 20 -22 20q-34 0 -72.5 -11t-75.5 -29t-70.5 -40.5t-59 -45.5t-40.5 -44.5t-15 -37.5q0 -13 5.5 -15t5.5 -9t-17 -7q-12 0 -25.5 9.5t-13.5 35.5q0 20 15.5 43.5t42.5 47t62 45.5t74 38.5t80 26.5
t78 10q35 0 52.5 -13.5t17.5 -36.5q0 -24 -16 -47t-41.5 -44t-57 -39.5t-61.5 -33.5q26 3 58 3zM248 373l-35 -15t-49.5 -25.5t-53 -36t-45.5 -45.5q14 17 36.5 34t48 33t51.5 30.5t47 24.5zM137 126l21.5 39.5t16.5 27.5q-20 -26 -32.5 -48l-20.5 -37q-8 -20 -11 -32
l13.5 26.5zM188 210q10 8 20.5 19t18.5 22l10.5 12t10.5 13q-5 -5 -15 -16.5t-21 -22.5q-10 -12 -24 -27zM310 2q-35 -29 -81 -47t-94 -18q-25 0 -42 4q25 -13 52 -13q45 0 88 23t77 51zM2509 223q4 0 9.5 -1.5t11 -6t9.5 -12.5t4 -22q0 -31 -20 -68t-48.5 -68.5t-58 -53
t-49.5 -21.5t-24.5 12.5t-4.5 21.5q0 11 4 19q-3 2 -5 3.5t-4 3.5q-15 -6 -42 -10.5t-50 -4.5q-20 -19 -39 -30t-33 -11t-24 10t-11 25q-2 12 5 30t15 32q-3 6 -3 14q-2 23 10 47t31.5 44.5t44.5 33.5t48 13q19 0 31.5 -12t14.5 -26q2 -18 -4 -38.5t-17 -41.5t-25.5 -41
t-30.5 -37q14 0 36 4.5t36 11.5q-1 3 -1 11q0 22 19.5 51.5t47.5 56t57.5 45t50.5 18.5q2 0 2.5 -0.5t-0.5 -0.5q-17 -4 -36.5 -15t-32.5 -22q-20 -14 -39.5 -34t-33.5 -40q18 19 37 36l39 34l21 15q6 3 11.5 6.5l10.5 6.5l12 6t12 5q1 0 2.5 0.5t3.5 0.5zM2179 98
q18 27 32.5 44t28 29t29 20t34.5 16q-21 -3 -40 -13.5t-34.5 -26t-28 -33.5t-21.5 -36zM2158 -4q10 0 20.5 5t24.5 18q-8 2 -17.5 10t-13.5 13q-8 -16 -14.5 -31t0.5 -15zM2217 31q18 17 35.5 39t31 44t22 41.5t7.5 32.5q0 9 -5 9q-14 0 -33.5 -11t-38.5 -28.5t-33.5 -37.5
t-19.5 -38q6 -3 6 -8q-1 -1 -2 -3t-2 -4.5t-3 -6.5q3 -13 13.5 -19.5t21.5 -9.5zM2245 26q20 22 40.5 49t28.5 56q-14 -29 -32 -55.5t-40 -49.5h3zM2346 34q0 2 0.5 2t0.5 1q-2 0 -2 -0.5t-1 -0.5zM2365 0q14 0 31.5 12t36 30.5t36 42t30.5 46t20 42t4 31.5q-20 0 -47.5 -17
t-54.5 -40.5t-48 -49t-28 -42.5q8 5 15 10.5l12 9.5q5 8 9 8h1q8 0 13.5 -5t3.5 -10q-1 -2 -8 -13l-14 -23t-11.5 -22t-0.5 -10zM2530 147q0 3 1 3q1 4 1.5 8.5t2.5 10.5q-1 0 -1 -4l-5 -15q-4 -7 -7 -19q-2 -5 -4.5 -9.5t-4.5 -9.5l-5 -9q-5 -7 -5 -9q3 5 6 9t5 9q6 9 9 18
q2 2 2 5t2 5q2 4 2 5z" />
    </font>
</defs>
</svg>
